<?xml version="1.0" encoding="UTF-8"?>
<!DOCTYPE svg PUBLIC "-//W3C//DTD SVG 1.1//EN" "http://www.w3.org/Graphics/SVG/1.1/DTD/svg11.dtd">
<!-- Creator: CorelDRAW 2018 (64-Bit) -->
<svg xmlns="http://www.w3.org/2000/svg" xml:space="preserve" width="100px" height="100px" version="1.1" style="shape-rendering:geometricPrecision; text-rendering:geometricPrecision; image-rendering:optimizeQuality; fill-rule:evenodd; clip-rule:evenodd"
viewBox="0 0 892.63 892.63"
 xmlns:xlink="http://www.w3.org/1999/xlink">
 <defs>
  <style type="text/css">
   <![CDATA[
    .fil0 {fill:#198FD9}
    .fil1 {fill:#FEFEFE;fill-rule:nonzero}
   ]]>
  </style>
 </defs>
 <g id="Слой_x0020_1">
  <metadata id="CorelCorpID_0Corel-Layer"/>
  <circle class="fil0" cx="446.32" cy="446.32" r="446.31"/>
  <g id="_3017932495472">
   <g>
    <path class="fil1" d="M389.48 731.64l25.25 -3.6 -10.67 -10.8 1.29 0.2 1.29 0.19 1.31 0.18 1.28 0.18 1.3 0.17 1.32 0.17 1.28 0.16 1.31 0.15 1.33 0.16 1.29 0.14 1.31 0.13 1.33 0.13 1.3 0.13 1.32 0.11 1.32 0.11 1.31 0.11 1.33 0.1 1.33 0.09 1.31 0.09 1.33 0.08 1.33 0.07 1.34 0.07 1.33 0.06 1.34 0.05 1.34 0.05 1.34 0.04 1.32 0.04 1.33 0.03 1.36 0.02 1.35 0.02 1.33 0.01 1.35 0 0 25.5 -1.46 0 -1.48 -0.01 -1.46 -0.02 -1.45 -0.02 -1.48 -0.03 -1.47 -0.04 -1.46 -0.05 -1.45 -0.05 -1.46 -0.06 -1.45 -0.07 -1.45 -0.07 -1.45 -0.08 -1.45 -0.09 -1.46 -0.09 -1.44 -0.1 -1.43 -0.11 -1.46 -0.11 -1.44 -0.13 -1.43 -0.13 -1.45 -0.13 -1.42 -0.14 -1.44 -0.15 -1.44 -0.16 -1.41 -0.16 -1.43 -0.17 -1.44 -0.18 -1.41 -0.17 -1.42 -0.19 -1.43 -0.2 -1.4 -0.2 -1.42 -0.21 -1.41 -0.22 -10.68 -10.8zm10.68 10.8c-6.96,-1.07 -11.73,-7.59 -10.65,-14.55 1.07,-6.96 7.59,-11.72 14.55,-10.65l-3.9 25.2zm5.7 -76.61l8.87 62.21 -25.25 3.6 -8.87 -62.21 15.59 -14.2 9.66 10.6zm-25.25 3.6c-0.99,-6.97 3.86,-13.43 10.83,-14.42 6.97,-1 13.43,3.85 14.42,10.82l-25.25 3.6zm-45.59 -18.9l-15.31 -20.39 14.33 -0.67 1.78 1.08 1.8 1.07 1.81 1.06 1.81 1.03 1.83 1.01 1.84 1 1.85 0.98 1.87 0.97 1.87 0.94 1.88 0.93 1.9 0.91 1.9 0.89 1.91 0.88 1.91 0.85 1.95 0.84 1.94 0.82 1.94 0.8 1.96 0.78 1.98 0.76 1.98 0.75 1.99 0.72 2 0.71 2.01 0.68 2.01 0.67 2.03 0.65 2.04 0.63 2.03 0.61 2.06 0.58 2.06 0.58 2.06 0.54 2.08 0.53 2.08 0.51 -5.92 24.81 -2.34 -0.57 -2.32 -0.6 -2.32 -0.61 -2.3 -0.64 -2.3 -0.66 -2.29 -0.68 -2.27 -0.7 -2.27 -0.73 -2.26 -0.75 -2.24 -0.76 -2.24 -0.79 -2.23 -0.82 -2.21 -0.83 -2.21 -0.85 -2.19 -0.87 -2.2 -0.91 -2.17 -0.91 -2.16 -0.94 -2.15 -0.96 -2.15 -0.97 -2.13 -1 -2.11 -1.02 -2.11 -1.04 -2.1 -1.06 -2.08 -1.07 -2.07 -1.1 -2.06 -1.12 -2.05 -1.14 -2.03 -1.16 -2.03 -1.18 -2 -1.19 -2 -1.21 14.33 -0.67zm-14.33 0.67c-6,-3.69 -7.88,-11.54 -4.19,-17.54 3.68,-6 11.54,-7.88 17.54,-4.19l-13.35 21.73zm-51.22 16.64l50.24 -37.7 15.31 20.39 -50.24 37.71 -15.19 0.09 -0.12 -20.49zm15.31 20.4c-5.63,4.23 -13.63,3.09 -17.86,-2.54 -4.22,-5.63 -3.08,-13.63 2.55,-17.86l15.31 20.4zm-80.39 -80.38l20.4 15.3 0.09 -15.18 1.58 2.14 1.6 2.12 1.61 2.1 1.64 2.08 1.66 2.08 1.68 2.05 1.7 2.04 1.7 2.02 1.75 2.01 1.75 1.99 1.77 1.96 1.8 1.96 1.8 1.94 1.83 1.91 1.85 1.9 1.86 1.89 1.89 1.86 1.9 1.85 1.91 1.83 1.94 1.8 1.95 1.8 1.97 1.77 1.99 1.75 2.01 1.74 2.02 1.71 2.04 1.7 2.05 1.68 2.07 1.65 2.09 1.64 2.11 1.62 2.12 1.6 2.13 1.58 -15.06 20.58 -2.33 -1.72 -2.32 -1.75 -2.29 -1.77 -2.28 -1.78 -2.27 -1.81 -2.24 -1.84 -2.23 -1.85 -2.21 -1.88 -2.19 -1.89 -2.17 -1.92 -2.15 -1.93 -2.13 -1.96 -2.12 -1.98 -2.1 -2 -2.07 -2.01 -2.06 -2.04 -2.04 -2.06 -2.02 -2.07 -1.99 -2.1 -1.98 -2.12 -1.95 -2.12 -1.95 -2.16 -1.91 -2.17 -1.89 -2.19 -1.88 -2.21 -1.86 -2.23 -1.83 -2.24 -1.81 -2.26 -1.78 -2.28 -1.78 -2.3 -1.74 -2.32 -1.72 -2.33 0.09 -15.18zm-0.09 15.18c-4.16,-5.68 -2.92,-13.66 2.76,-17.82 5.68,-4.16 13.66,-2.92 17.82,2.76l-20.58 15.06zm58.19 -50.12l-37.7 50.24 -20.4 -15.3 37.71 -50.25 21.06 0.98 -0.67 14.33zm-20.39 -15.31c4.22,-5.63 12.22,-6.77 17.85,-2.54 5.63,4.22 6.77,12.22 2.54,17.85l-20.39 -15.31zm-18.9 -45.59l3.6 -25.25 10.6 9.66 0.51 2.08 0.53 2.08 0.55 2.08 0.57 2.04 0.59 2.06 0.6 2.04 0.63 2.04 0.65 2.02 0.67 2.01 0.68 2.01 0.71 2 0.73 1.99 0.74 1.99 0.76 1.96 0.78 1.96 0.8 1.95 0.82 1.94 0.84 1.94 0.85 1.92 0.88 1.91 0.89 1.9 0.91 1.9 0.93 1.89 0.94 1.86 0.97 1.86 0.98 1.85 0.99 1.84 1.02 1.83 1.03 1.82 1.06 1.81 1.07 1.8 1.08 1.78 -21.73 13.35 -1.22 -2 -1.19 -2.01 -1.17 -2.02 -1.16 -2.04 -1.13 -2.04 -1.12 -2.06 -1.1 -2.07 -1.08 -2.08 -1.07 -2.11 -1.03 -2.1 -1.02 -2.11 -1 -2.13 -0.98 -2.15 -0.95 -2.15 -0.94 -2.16 -0.92 -2.17 -0.89 -2.19 -0.88 -2.2 -0.85 -2.21 -0.84 -2.22 -0.8 -2.21 -0.8 -2.25 -0.76 -2.25 -0.75 -2.25 -0.73 -2.27 -0.7 -2.28 -0.68 -2.28 -0.66 -2.3 -0.64 -2.31 -0.61 -2.31 -0.59 -2.32 -0.57 -2.33 10.6 9.66zm-10.6 -9.66c-1.64,-6.85 2.59,-13.73 9.44,-15.37 6.85,-1.64 13.73,2.59 15.36,9.44l-24.8 5.93zm-48.01 -24.46l62.21 8.87 -3.6 25.25 -62.21 -8.87 -10.81 -10.68 14.41 -14.57zm-3.6 25.25c-6.98,-0.99 -11.82,-7.45 -10.83,-14.43 1,-6.97 7.46,-11.81 14.43,-10.82l-3.6 25.25zm-1.59 -69.58l0 25.5 12.75 -12.75 0.01 1.35 0.01 1.33 0.02 1.35 0.01 1.35 0.04 1.34 0.03 1.34 0.04 1.33 0.05 1.34 0.05 1.33 0.07 1.34 0.06 1.33 0.08 1.33 0.08 1.32 0.08 1.32 0.1 1.34 0.09 1.31 0.11 1.32 0.11 1.32 0.12 1.32 0.12 1.32 0.13 1.31 0.14 1.31 0.14 1.3 0.15 1.32 0.15 1.31 0.16 1.3 0.17 1.3 0.17 1.29 0.18 1.31 0.18 1.29 0.19 1.3 0.2 1.29 -25.21 3.89 -0.21 -1.41 -0.21 -1.41 -0.2 -1.42 -0.19 -1.41 -0.2 -1.43 -0.17 -1.42 -0.18 -1.43 -0.17 -1.43 -0.16 -1.41 -0.16 -1.44 -0.14 -1.44 -0.15 -1.43 -0.13 -1.44 -0.13 -1.43 -0.12 -1.44 -0.11 -1.44 -0.11 -1.46 -0.1 -1.43 -0.1 -1.44 -0.08 -1.47 -0.08 -1.45 -0.08 -1.45 -0.06 -1.45 -0.06 -1.45 -0.06 -1.46 -0.04 -1.47 -0.04 -1.46 -0.03 -1.46 -0.03 -1.46 -0.02 -1.47 -0.01 -1.48 0 -1.46 12.75 -12.75zm-12.75 12.75c0,-7.04 5.71,-12.75 12.75,-12.75 7.04,0 12.75,5.71 12.75,12.75l-25.5 0zm153.95 12.75l-141.2 0 0 -25.5 141.2 0 12.75 12.75 -12.75 12.75zm0 -25.5c7.04,0 12.75,5.71 12.75,12.75 0,7.04 -5.71,12.75 -12.75,12.75l0 -25.5zm-12.75 12.75l0 0 25.5 0 0 0 0 0 -25.5 0zm158.46 132.97l0 25.5 0 0 -8.14 -0.2 -8.04 -0.61 -7.93 -1.02 -7.81 -1.39 -7.67 -1.77 -7.52 -2.13 -7.37 -2.5 -7.2 -2.84 -7.02 -3.17 -6.84 -3.5 -6.63 -3.82 -6.43 -4.12 -6.22 -4.42 -5.98 -4.7 -5.75 -4.98 -5.5 -5.25 -5.24 -5.49 -4.98 -5.75 -4.7 -5.98 -4.42 -6.22 -4.13 -6.43 -3.81 -6.63 -3.5 -6.84 -3.17 -7.03 -2.84 -7.19 -2.5 -7.37 -2.13 -7.52 -1.77 -7.68 -1.4 -7.8 -1.01 -7.93 -0.61 -8.05 -0.2 -8.14 25.5 0 0.17 6.86 0.52 6.75 0.84 6.66 1.17 6.55 1.49 6.43 1.79 6.3 2.09 6.17 2.37 6.04 2.67 5.88 2.93 5.73 3.2 5.57 3.46 5.4 3.71 5.21 3.95 5.02 4.18 4.83 4.41 4.62 4.62 4.41 4.82 4.18 5.03 3.95 5.21 3.71 5.4 3.46 5.56 3.2 5.74 2.94 5.88 2.65 6.04 2.38 6.17 2.09 6.3 1.79 6.43 1.48 6.55 1.17 6.66 0.85 6.75 0.52 6.85 0.17 0 0zm132.97 -132.97l25.51 0 0 0 -0.21 8.14 -0.61 8.05 -1.01 7.93 -1.39 7.8 -1.77 7.68 -2.14 7.52 -2.49 7.37 -2.84 7.19 -3.17 7.03 -3.51 6.84 -3.81 6.63 -4.12 6.43 -4.42 6.22 -4.7 5.98 -4.98 5.75 -5.25 5.49 -5.5 5.25 -5.75 4.98 -5.98 4.7 -6.21 4.42 -6.43 4.12 -6.64 3.82 -6.83 3.5 -7.03 3.18 -7.2 2.83 -7.36 2.5 -7.53 2.13 -7.67 1.77 -7.81 1.39 -7.93 1.02 -8.04 0.61 -8.15 0.2 0 -25.5 6.86 -0.17 6.76 -0.52 6.65 -0.85 6.55 -1.17 6.43 -1.48 6.3 -1.79 6.18 -2.09 6.03 -2.38 5.89 -2.66 5.73 -2.93 5.57 -3.2 5.39 -3.46 5.21 -3.71 5.03 -3.95 4.83 -4.18 4.62 -4.41 4.41 -4.62 4.18 -4.83 3.95 -5.02 3.71 -5.21 3.45 -5.4 3.2 -5.57 2.94 -5.73 2.66 -5.88 2.38 -6.04 2.09 -6.17 1.79 -6.3 1.48 -6.43 1.17 -6.55 0.85 -6.66 0.51 -6.75 0.17 -6.86 0 0zm0 0c0,-7.04 5.71,-12.75 12.76,-12.75 7.04,0 12.75,5.71 12.75,12.75l-25.51 0zm25.51 0l0 0 -25.51 0 0 0 12.76 -12.75 12.75 12.75zm-25.51 0c0,-7.04 5.71,-12.75 12.76,-12.75 7.04,0 12.75,5.71 12.75,12.75l-25.51 0zm153.95 12.75l-141.19 0 0 -25.5 141.19 0 12.76 12.75 -12.76 12.75zm0 -25.5c7.05,0 12.76,5.71 12.76,12.75 0,7.04 -5.71,12.75 -12.76,12.75l0 -25.5zm-1.58 69.58l-3.61 -25.25 -10.8 10.68 0.2 -1.29 0.19 -1.3 0.19 -1.29 0.17 -1.3 0.18 -1.31 0.16 -1.29 0.16 -1.3 0.16 -1.32 0.15 -1.3 0.14 -1.31 0.14 -1.33 0.12 -1.29 0.13 -1.32 0.12 -1.32 0.1 -1.32 0.11 -1.32 0.1 -1.31 0.09 -1.34 0.09 -1.32 0.08 -1.32 0.07 -1.33 0.07 -1.33 0.06 -1.34 0.06 -1.33 0.04 -1.34 0.05 -1.33 0.03 -1.34 0.03 -1.34 0.02 -1.35 0.02 -1.35 0.01 -1.33 0 -1.35 25.51 0 -0.01 1.46 -0.01 1.48 -0.02 1.47 -0.02 1.46 -0.03 1.46 -0.04 1.46 -0.05 1.47 -0.05 1.46 -0.06 1.45 -0.07 1.45 -0.07 1.45 -0.08 1.45 -0.09 1.47 -0.09 1.44 -0.1 1.43 -0.11 1.46 -0.11 1.44 -0.13 1.44 -0.13 1.43 -0.13 1.44 -0.14 1.45 -0.15 1.42 -0.15 1.43 -0.17 1.44 -0.17 1.41 -0.17 1.43 -0.18 1.43 -0.19 1.41 -0.2 1.42 -0.2 1.42 -0.21 1.41 -0.21 1.41 -10.8 10.68zm10.8 -10.68c-1.08,6.96 -7.59,11.73 -14.55,10.66 -6.96,-1.08 -11.73,-7.59 -10.66,-14.55l25.21 3.89zm-76.62 -5.7l62.21 -8.87 3.61 25.25 -62.21 8.87 -14.21 -15.59 10.6 -9.66zm3.61 25.25c-6.98,0.99 -13.43,-3.85 -14.43,-10.82 -0.99,-6.98 3.85,-13.44 10.82,-14.43l3.61 25.25zm-18.91 45.59l-20.39 15.31 -0.67 -14.33 1.08 -1.78 1.07 -1.8 1.06 -1.81 1.03 -1.81 1.01 -1.83 1 -1.84 0.98 -1.85 0.97 -1.87 0.94 -1.87 0.93 -1.88 0.91 -1.89 0.89 -1.91 0.88 -1.91 0.85 -1.92 0.84 -1.93 0.82 -1.95 0.8 -1.95 0.78 -1.95 0.76 -1.98 0.75 -1.99 0.72 -1.97 0.71 -2.01 0.69 -2.01 0.66 -2.01 0.65 -2.02 0.63 -2.04 0.61 -2.04 0.59 -2.05 0.56 -2.06 0.56 -2.07 0.52 -2.07 0.51 -2.09 24.81 5.93 -0.57 2.33 -0.59 2.33 -0.62 2.31 -0.64 2.31 -0.66 2.29 -0.68 2.28 -0.7 2.28 -0.72 2.27 -0.76 2.27 -0.76 2.23 -0.79 2.24 -0.81 2.24 -0.84 2.21 -0.85 2.2 -0.88 2.21 -0.89 2.18 -0.92 2.17 -0.94 2.16 -0.96 2.16 -0.97 2.14 -1 2.13 -1.02 2.12 -1.04 2.11 -1.06 2.09 -1.08 2.08 -1.09 2.07 -1.12 2.06 -1.14 2.05 -1.16 2.03 -1.18 2.03 -1.19 2 -1.21 2 -0.67 -14.33zm0.67 14.33c-3.69,6 -11.54,7.88 -17.54,4.19 -6,-3.68 -7.88,-11.54 -4.19,-17.54l21.73 13.35zm16.64 51.23l-37.7 -50.25 20.39 -15.31 37.71 50.25 0.09 15.18 -20.49 0.13zm20.4 -15.31c4.22,5.63 3.08,13.62 -2.55,17.85 -5.63,4.23 -13.62,3.09 -17.85,-2.54l20.4 -15.31zm-80.38 80.38l15.3 -20.4 -15.18 -0.09 2.14 -1.58 2.12 -1.6 2.1 -1.61 2.08 -1.64 2.08 -1.66 2.05 -1.68 2.04 -1.7 2.02 -1.71 2.01 -1.74 1.99 -1.75 1.96 -1.77 1.96 -1.8 1.94 -1.8 1.91 -1.83 1.9 -1.85 1.89 -1.86 1.86 -1.89 1.85 -1.9 1.82 -1.91 1.81 -1.94 1.8 -1.95 1.77 -1.98 1.75 -1.98 1.74 -2.01 1.71 -2.02 1.7 -2.03 1.68 -2.06 1.65 -2.07 1.64 -2.09 1.62 -2.1 1.6 -2.12 1.58 -2.14 20.58 15.06 -1.72 2.34 -1.75 2.31 -1.77 2.3 -1.79 2.28 -1.81 2.26 -1.83 2.25 -1.85 2.22 -1.88 2.21 -1.89 2.19 -1.92 2.18 -1.94 2.15 -1.95 2.13 -1.97 2.11 -2.01 2.1 -2.01 2.08 -2.04 2.05 -2.06 2.04 -2.07 2.01 -2.1 2 -2.12 1.98 -2.12 1.95 -2.16 1.95 -2.17 1.91 -2.19 1.89 -2.21 1.88 -2.23 1.86 -2.24 1.83 -2.26 1.81 -2.28 1.78 -2.3 1.78 -2.32 1.74 -2.33 1.72 -15.18 -0.09zm15.18 0.09c-5.68,4.16 -13.66,2.92 -17.82,-2.76 -4.16,-5.68 -2.92,-13.66 2.76,-17.82l15.06 20.58zm-50.12 -58.19l50.24 37.7 -15.3 20.4 -50.25 -37.71 0.98 -21.06 14.33 0.67zm-15.31 20.39c-5.63,-4.22 -6.77,-12.22 -2.54,-17.85 4.23,-5.63 12.22,-6.77 17.85,-2.54l-15.31 20.39zm-45.59 18.9l-25.25 -3.6 9.66 -10.6 2.08 -0.51 2.08 -0.53 2.06 -0.54 2.06 -0.58 2.05 -0.58 2.05 -0.62 2.03 -0.62 2.03 -0.65 2.01 -0.66 2.01 -0.69 2.01 -0.71 1.98 -0.72 1.98 -0.75 1.97 -0.76 1.96 -0.78 1.95 -0.8 1.95 -0.82 1.93 -0.83 1.92 -0.86 1.91 -0.88 1.9 -0.89 1.9 -0.91 1.88 -0.93 1.88 -0.94 1.85 -0.96 1.85 -0.99 1.85 -1 1.83 -1.01 1.81 -1.03 1.81 -1.06 1.79 -1.06 1.79 -1.09 13.36 21.73 -2 1.21 -2.01 1.2 -2.03 1.17 -2.03 1.16 -2.06 1.14 -2.04 1.11 -2.08 1.11 -2.09 1.08 -2.09 1.05 -2.11 1.04 -2.11 1.02 -2.13 1 -2.15 0.97 -2.15 0.96 -2.17 0.94 -2.16 0.92 -2.19 0.89 -2.19 0.88 -2.22 0.86 -2.21 0.83 -2.23 0.81 -2.24 0.79 -2.24 0.77 -2.26 0.74 -2.27 0.73 -2.28 0.7 -2.28 0.68 -2.3 0.66 -2.3 0.64 -2.32 0.61 -2.32 0.6 -2.34 0.57 9.67 -10.61zm-9.67 10.61c-6.85,1.63 -13.73,-2.6 -15.36,-9.45 -1.64,-6.84 2.59,-13.73 9.44,-15.36l5.92 24.81zm-24.45 48l8.87 -62.21 25.25 3.6 -8.87 62.22 -10.68 10.8 -14.57 -14.41zm25.25 3.61c-1,6.97 -7.46,11.81 -14.43,10.82 -6.97,-0.99 -11.82,-7.45 -10.82,-14.43l25.25 3.61zm-56.84 14.33l0 -25.5 0 0 1.36 0 1.33 -0.01 1.35 -0.02 1.36 -0.02 1.33 -0.03 1.33 -0.04 1.33 -0.04 1.35 -0.05 1.33 -0.05 1.33 -0.06 1.34 -0.07 1.33 -0.07 1.33 -0.08 1.31 -0.09 1.33 -0.09 1.33 -0.1 1.31 -0.11 1.32 -0.11 1.32 -0.11 1.31 -0.13 1.32 -0.13 1.29 -0.13 1.33 -0.15 1.31 -0.14 1.31 -0.16 1.3 -0.16 1.28 -0.16 1.32 -0.18 1.29 -0.17 1.3 -0.19 1.29 -0.19 1.29 -0.2 3.9 25.21 -1.41 0.21 -1.42 0.21 -1.41 0.2 -1.42 0.2 -1.41 0.19 -1.44 0.18 -1.42 0.17 -1.43 0.17 -1.43 0.16 -1.42 0.16 -1.44 0.15 -1.43 0.14 -1.44 0.13 -1.43 0.13 -1.44 0.13 -1.46 0.11 -1.43 0.11 -1.44 0.1 -1.46 0.09 -1.45 0.09 -1.45 0.08 -1.45 0.07 -1.45 0.07 -1.46 0.06 -1.45 0.05 -1.46 0.05 -1.48 0.04 -1.47 0.03 -1.45 0.02 -1.46 0.02 -1.48 0.01 -1.47 0 0 0z"/>
   </g>
   <g>
    <path class="fil1" d="M372.46 446.32l0 0 25.5 0 0 0 0 0 -25.5 0zm73.85 48.36l0 25.5 0 0 -3.78 -0.1 -3.75 -0.28 -3.69 -0.47 -3.64 -0.65 -3.59 -0.82 -3.5 -1.01 -3.43 -1.15 -3.36 -1.33 -3.28 -1.48 -3.19 -1.63 -3.09 -1.78 -3 -1.92 -2.89 -2.06 -2.79 -2.19 -2.67 -2.32 -2.57 -2.44 -2.44 -2.57 -2.32 -2.67 -2.19 -2.79 -2.06 -2.9 -1.92 -2.98 -1.78 -3.1 -1.63 -3.2 -1.48 -3.27 -1.33 -3.36 -1.16 -3.43 -1 -3.51 -0.82 -3.58 -0.65 -3.64 -0.47 -3.69 -0.29 -3.75 -0.09 -3.79 25.5 0 0.07 2.5 0.18 2.46 0.31 2.42 0.42 2.39 0.54 2.33 0.65 2.29 0.77 2.24 0.86 2.19 0.97 2.14 1.06 2.08 1.16 2.02 1.26 1.97 1.36 1.9 1.43 1.83 1.52 1.75 1.6 1.69 1.69 1.6 1.75 1.52 1.83 1.44 1.9 1.35 1.96 1.25 2.03 1.17 2.08 1.06 2.14 0.97 2.19 0.86 2.24 0.77 2.3 0.65 2.32 0.53 2.38 0.43 2.42 0.3 2.47 0.19 2.49 0.07 0 0zm48.37 -48.36l25.5 0 0 0 -0.1 3.79 -0.28 3.75 -0.47 3.69 -0.65 3.64 -0.82 3.58 -1.01 3.51 -1.15 3.43 -1.33 3.36 -1.48 3.28 -1.63 3.19 -1.78 3.09 -1.92 2.99 -2.06 2.9 -2.19 2.79 -2.32 2.67 -2.44 2.56 -2.57 2.45 -2.68 2.32 -2.78 2.19 -2.9 2.06 -2.99 1.92 -3.1 1.78 -3.19 1.63 -3.27 1.48 -3.36 1.33 -3.43 1.16 -3.51 1 -3.59 0.82 -3.64 0.65 -3.69 0.47 -3.74 0.28 -3.8 0.1 0 -25.5 2.51 -0.07 2.46 -0.19 2.42 -0.3 2.38 -0.43 2.33 -0.53 2.29 -0.66 2.25 -0.76 2.19 -0.86 2.14 -0.97 2.08 -1.06 2.02 -1.17 1.97 -1.25 1.89 -1.35 1.84 -1.44 1.76 -1.52 1.67 -1.6 1.61 -1.69 1.52 -1.76 1.43 -1.82 1.36 -1.9 1.25 -1.96 1.17 -2.03 1.07 -2.08 0.96 -2.14 0.86 -2.19 0.77 -2.24 0.65 -2.29 0.53 -2.33 0.43 -2.39 0.3 -2.42 0.19 -2.46 0.07 -2.5 0 0zm0 0c0,-7.04 5.71,-12.75 12.75,-12.75 7.04,0 12.75,5.71 12.75,12.75l-25.5 0zm25.5 0l0 0 -25.5 0 0 0 12.75 -12.75 12.75 12.75zm-25.5 0c0,-7.04 5.71,-12.75 12.75,-12.75 7.04,0 12.75,5.71 12.75,12.75l-25.5 0zm-109.47 -12.75l122.22 0 0 25.5 -122.22 0 -12.75 -12.75 12.75 -12.75zm0 25.5c-7.04,0 -12.75,-5.71 -12.75,-12.75 0,-7.04 5.71,-12.75 12.75,-12.75l0 25.5z"/>
   </g>
   <g>
    <path class="fil1" d="M159.4 433.57l0 25.5 -12.75 -12.75 0.2 -8.14 0.62 -8.05 1.01 -7.93 1.39 -7.8 1.77 -7.68 2.13 -7.52 2.5 -7.37 2.84 -7.2 3.17 -7.02 3.5 -6.84 3.82 -6.63 4.12 -6.43 4.42 -6.21 4.7 -5.99 4.98 -5.75 5.25 -5.5 5.5 -5.24 5.74 -4.98 5.99 -4.71 6.21 -4.41 6.43 -4.12 6.63 -3.82 6.84 -3.51 7.03 -3.17 7.19 -2.83 7.37 -2.5 7.53 -2.14 7.67 -1.77 7.81 -1.39 7.92 -1.01 8.05 -0.61 8.14 -0.21 0 25.51 -6.85 0.17 -6.76 0.52 -6.65 0.84 -6.55 1.17 -6.43 1.48 -6.3 1.8 -6.18 2.08 -6.03 2.38 -5.89 2.66 -5.73 2.94 -5.57 3.2 -5.39 3.46 -5.22 3.71 -5.02 3.95 -4.83 4.18 -4.62 4.4 -4.41 4.62 -4.18 4.83 -3.94 5.03 -3.71 5.21 -3.46 5.4 -3.21 5.57 -2.93 5.73 -2.66 5.88 -2.38 6.04 -2.09 6.17 -1.79 6.3 -1.48 6.43 -1.17 6.55 -0.85 6.66 -0.51 6.75 -0.18 6.86 -12.75 -12.75zm12.75 12.75c0,7.04 -5.71,12.75 -12.75,12.75 -7.04,0 -12.75,-5.71 -12.75,-12.75l25.5 0zm128.45 12.75l-141.2 0 0 -25.5 141.2 0 12.75 12.75 -12.75 12.75zm0 -25.5c7.04,0 12.75,5.71 12.75,12.75 0,7.04 -5.71,12.75 -12.75,12.75l0 -25.5zm68.93 -103.6l12.38 -22.3 0 22.3 -3.8 2.19 -3.71 2.31 -3.63 2.42 -3.54 2.54 -3.46 2.65 -3.37 2.77 -3.28 2.86 -3.18 2.98 -3.07 3.07 -2.99 3.17 -2.87 3.27 -2.77 3.36 -2.66 3.46 -2.55 3.54 -2.43 3.62 -2.31 3.71 -2.2 3.79 -2.07 3.86 -1.95 3.94 -1.81 4.01 -1.69 4.08 -1.55 4.15 -1.43 4.21 -1.28 4.27 -1.14 4.34 -1 4.38 -0.85 4.44 -0.7 4.5 -0.55 4.55 -0.4 4.59 -0.24 4.63 -0.08 4.69 -25.5 0 0.09 -5.56 0.29 -5.52 0.47 -5.47 0.66 -5.41 0.84 -5.36 1.01 -5.3 1.19 -5.24 1.36 -5.17 1.53 -5.09 1.69 -5.03 1.86 -4.95 2.02 -4.87 2.17 -4.78 2.32 -4.7 2.47 -4.61 2.61 -4.52 2.76 -4.41 2.9 -4.32 3.03 -4.22 3.17 -4.11 3.3 -4.01 3.42 -3.89 3.55 -3.78 3.66 -3.66 3.79 -3.53 3.9 -3.42 4.01 -3.29 4.11 -3.16 4.23 -3.03 4.33 -2.88 4.42 -2.75 4.52 -2.61 0 22.3zm0 -22.3c6.16,-3.41 13.93,-1.19 17.34,4.96 3.42,6.16 1.19,13.93 -4.96,17.34l-12.38 -22.3zm-64.41 5.68l0 -25.51 0 0 2.6 0.03 2.6 0.06 2.58 0.1 2.58 0.15 2.55 0.18 2.56 0.23 2.54 0.27 2.52 0.3 2.52 0.35 2.51 0.39 2.5 0.42 2.46 0.47 2.47 0.5 2.45 0.54 2.44 0.57 2.43 0.62 2.39 0.65 2.39 0.69 2.39 0.73 2.35 0.76 2.35 0.79 2.33 0.84 2.31 0.86 2.29 0.9 2.27 0.94 2.27 0.97 2.23 1.01 2.21 1.03 2.21 1.08 2.19 1.1 2.16 1.13 2.14 1.17 -12.38 22.3 -1.8 -0.98 -1.81 -0.95 -1.83 -0.93 -1.84 -0.89 -1.87 -0.87 -1.88 -0.85 -1.88 -0.81 -1.91 -0.78 -1.92 -0.76 -1.94 -0.73 -1.94 -0.7 -1.97 -0.66 -1.98 -0.64 -1.98 -0.6 -2.01 -0.58 -2.03 -0.55 -2.02 -0.52 -2.04 -0.48 -2.05 -0.45 -2.07 -0.42 -2.08 -0.39 -2.09 -0.36 -2.1 -0.32 -2.11 -0.29 -2.12 -0.26 -2.14 -0.23 -2.13 -0.19 -2.16 -0.15 -2.16 -0.13 -2.17 -0.08 -2.18 -0.06 -2.2 -0.01 0 0z"/>
   </g>
   <g>
    <path class="fil1" d="M733.23 459.07l0 -25.5 -12.75 12.75 -0.17 -6.86 -0.52 -6.75 -0.84 -6.66 -1.17 -6.55 -1.48 -6.43 -1.79 -6.3 -2.09 -6.17 -2.38 -6.04 -2.67 -5.88 -2.93 -5.74 -3.2 -5.56 -3.46 -5.4 -3.71 -5.21 -3.95 -5.03 -4.18 -4.82 -4.4 -4.63 -4.62 -4.4 -4.83 -4.18 -5.03 -3.95 -5.21 -3.71 -5.4 -3.46 -5.57 -3.2 -5.73 -2.94 -5.88 -2.66 -6.04 -2.38 -6.17 -2.08 -6.31 -1.8 -6.43 -1.48 -6.54 -1.17 -6.66 -0.84 -6.76 -0.52 -6.85 -0.17 0 -25.51 8.14 0.21 8.05 0.61 7.93 1.01 7.8 1.39 7.67 1.77 7.53 2.14 7.37 2.5 7.2 2.83 7.02 3.18 6.83 3.5 6.65 3.82 6.42 4.12 6.21 4.41 5.99 4.71 5.75 4.98 5.5 5.24 5.24 5.5 4.98 5.75 4.71 5.99 4.41 6.21 4.12 6.43 3.82 6.63 3.5 6.84 3.18 7.02 2.84 7.2 2.49 7.37 2.14 7.52 1.77 7.68 1.39 7.8 1.01 7.93 0.61 8.05 0.21 8.14 -12.76 12.75zm12.76 -12.75c0,7.04 -5.71,12.75 -12.76,12.75 -7.04,0 -12.75,-5.71 -12.75,-12.75l25.51 0zm-153.96 -12.75l141.2 0 0 25.5 -141.2 0 -12.75 -12.75 12.75 -12.75zm0 25.5c-7.04,0 -12.75,-5.71 -12.75,-12.75 0,-7.04 5.71,-12.75 12.75,-12.75l0 25.5zm-81.31 -151.4l12.38 22.3 0 -22.3 4.52 2.61 4.42 2.75 4.33 2.88 4.23 3.03 4.11 3.16 4.01 3.29 3.9 3.42 3.79 3.53 3.67 3.66 3.54 3.78 3.43 3.89 3.29 4.01 3.17 4.11 3.03 4.22 2.9 4.31 2.76 4.42 2.62 4.52 2.46 4.61 2.33 4.7 2.17 4.78 2.01 4.87 1.86 4.95 1.69 5.03 1.53 5.09 1.36 5.17 1.19 5.24 1.02 5.3 0.83 5.36 0.66 5.41 0.47 5.47 0.29 5.52 0.1 5.56 -25.51 0 -0.08 -4.69 -0.24 -4.63 -0.4 -4.59 -0.55 -4.55 -0.7 -4.5 -0.85 -4.44 -1 -4.38 -1.14 -4.34 -1.28 -4.27 -1.42 -4.21 -1.55 -4.15 -1.69 -4.08 -1.82 -4.01 -1.95 -3.94 -2.07 -3.86 -2.2 -3.79 -2.31 -3.71 -2.43 -3.62 -2.55 -3.54 -2.66 -3.46 -2.77 -3.36 -2.87 -3.27 -2.98 -3.17 -3.08 -3.07 -3.18 -2.98 -3.27 -2.86 -3.37 -2.77 -3.47 -2.65 -3.54 -2.54 -3.63 -2.42 -3.71 -2.31 -3.8 -2.19 0 -22.3zm0 22.3c-6.15,-3.41 -8.37,-11.18 -4.96,-17.34 3.41,-6.15 11.18,-8.37 17.34,-4.96l-12.38 22.3zm76.79 -42.13l0 25.51 0 0 -2.19 0.01 -2.19 0.06 -2.17 0.08 -2.16 0.13 -2.16 0.15 -2.13 0.19 -2.13 0.23 -2.13 0.26 -2.11 0.29 -2.09 0.32 -2.09 0.36 -2.09 0.39 -2.06 0.42 -2.06 0.45 -2.03 0.48 -2.03 0.52 -2.03 0.55 -2 0.57 -1.98 0.61 -1.99 0.64 -1.96 0.66 -1.95 0.7 -1.93 0.73 -1.93 0.76 -1.9 0.78 -1.89 0.81 -1.88 0.85 -1.87 0.87 -1.83 0.89 -1.84 0.93 -1.81 0.95 -1.8 0.98 -12.38 -22.3 2.15 -1.17 2.15 -1.13 2.19 -1.1 2.21 -1.08 2.21 -1.03 2.24 -1.01 2.26 -0.97 2.27 -0.94 2.3 -0.9 2.31 -0.86 2.33 -0.84 2.34 -0.79 2.35 -0.76 2.39 -0.73 2.39 -0.69 2.4 -0.65 2.42 -0.61 2.44 -0.58 2.46 -0.54 2.46 -0.5 2.47 -0.47 2.49 -0.42 2.51 -0.39 2.52 -0.35 2.52 -0.3 2.54 -0.27 2.56 -0.23 2.56 -0.18 2.57 -0.15 2.59 -0.1 2.59 -0.06 2.6 -0.03 0 0z"/>
   </g>
   <g>
    <path class="fil1" d="M388.47 230l-25.5 0 0 0 0.11 -4.28 0.32 -4.23 0.53 -4.17 0.73 -4.11 0.93 -4.04 1.13 -3.95 1.31 -3.87 1.49 -3.8 1.68 -3.7 1.84 -3.59 2 -3.49 2.17 -3.39 2.33 -3.26 2.47 -3.15 2.61 -3.02 2.76 -2.89 2.89 -2.76 3.03 -2.62 3.15 -2.47 3.26 -2.32 3.38 -2.17 3.5 -2.01 3.59 -1.84 3.69 -1.67 3.79 -1.5 3.88 -1.3 3.96 -1.13 4.04 -0.93 4.1 -0.74 4.18 -0.53 4.23 -0.32 4.27 -0.11 0 25.51 -2.99 0.07 -2.94 0.23 -2.9 0.36 -2.84 0.51 -2.8 0.65 -2.74 0.77 -2.68 0.92 -2.62 1.03 -2.56 1.15 -2.5 1.29 -2.42 1.39 -2.34 1.5 -2.27 1.61 -2.19 1.72 -2.1 1.82 -2.01 1.92 -1.92 2.02 -1.82 2.09 -1.72 2.19 -1.62 2.27 -1.5 2.35 -1.39 2.42 -1.28 2.5 -1.16 2.55 -1.03 2.62 -0.91 2.69 -0.78 2.74 -0.64 2.79 -0.51 2.85 -0.37 2.89 -0.22 2.94 -0.08 3 0 0zm57.85 57.84l0 25.51 0 0 -4.27 -0.11 -4.23 -0.32 -4.18 -0.53 -4.1 -0.73 -4.04 -0.94 -3.96 -1.12 -3.88 -1.31 -3.79 -1.5 -3.69 -1.67 -3.59 -1.84 -3.5 -2 -3.38 -2.18 -3.26 -2.32 -3.15 -2.47 -3.03 -2.61 -2.89 -2.77 -2.76 -2.89 -2.62 -3.02 -2.46 -3.15 -2.33 -3.26 -2.17 -3.39 -2.01 -3.49 -1.83 -3.59 -1.68 -3.7 -1.49 -3.79 -1.31 -3.87 -1.13 -3.96 -0.93 -4.04 -0.73 -4.11 -0.53 -4.17 -0.32 -4.23 -0.11 -4.27 25.5 0 0.08 2.99 0.22 2.94 0.37 2.89 0.51 2.85 0.64 2.8 0.78 2.73 0.91 2.69 1.03 2.62 1.16 2.56 1.28 2.5 1.39 2.42 1.5 2.34 1.62 2.27 1.72 2.19 1.82 2.1 1.91 2.01 2.01 1.92 2.11 1.82 2.19 1.72 2.27 1.61 2.34 1.51 2.42 1.39 2.5 1.28 2.56 1.15 2.62 1.03 2.68 0.92 2.74 0.77 2.8 0.65 2.84 0.51 2.9 0.36 2.94 0.23 2.99 0.07 0 0zm57.85 -57.84l25.5 0 0 0 -0.11 4.27 -0.32 4.23 -0.53 4.17 -0.73 4.11 -0.93 4.04 -1.13 3.96 -1.31 3.87 -1.49 3.79 -1.68 3.7 -1.83 3.59 -2.01 3.49 -2.17 3.39 -2.33 3.26 -2.46 3.15 -2.62 3.02 -2.76 2.89 -2.89 2.77 -3.03 2.61 -3.14 2.47 -3.27 2.32 -3.38 2.18 -3.49 2 -3.59 1.84 -3.7 1.67 -3.8 1.5 -3.87 1.31 -3.96 1.12 -4.04 0.94 -4.1 0.73 -4.18 0.53 -4.22 0.32 -4.28 0.11 0 -25.51 2.99 -0.07 2.94 -0.23 2.9 -0.36 2.85 -0.51 2.78 -0.65 2.75 -0.77 2.69 -0.92 2.61 -1.03 2.56 -1.15 2.49 -1.28 2.43 -1.39 2.34 -1.51 2.28 -1.61 2.18 -1.72 2.1 -1.82 2.02 -1.92 1.91 -2.01 1.82 -2.1 1.72 -2.19 1.62 -2.27 1.5 -2.34 1.39 -2.42 1.28 -2.5 1.16 -2.56 1.03 -2.62 0.91 -2.69 0.78 -2.73 0.64 -2.8 0.51 -2.85 0.37 -2.89 0.22 -2.94 0.08 -2.99 0 0zm-57.85 -57.85l0 -25.51 0 0 4.28 0.11 4.22 0.32 4.18 0.53 4.1 0.74 4.04 0.93 3.96 1.13 3.87 1.3 3.8 1.5 3.7 1.67 3.59 1.84 3.49 2.01 3.38 2.17 3.27 2.32 3.14 2.47 3.03 2.62 2.89 2.76 2.75 2.89 2.62 3.02 2.47 3.15 2.33 3.26 2.17 3.39 2 3.49 1.84 3.59 1.68 3.7 1.49 3.8 1.31 3.87 1.13 3.95 0.93 4.04 0.73 4.11 0.53 4.17 0.32 4.23 0.11 4.28 -25.5 0 -0.08 -3 -0.22 -2.94 -0.37 -2.89 -0.51 -2.85 -0.64 -2.79 -0.78 -2.74 -0.91 -2.69 -1.03 -2.62 -1.16 -2.55 -1.28 -2.5 -1.39 -2.42 -1.5 -2.35 -1.62 -2.27 -1.72 -2.19 -1.82 -2.09 -1.92 -2.02 -2.01 -1.92 -2.1 -1.82 -2.18 -1.72 -2.28 -1.61 -2.34 -1.5 -2.43 -1.4 -2.49 -1.28 -2.56 -1.15 -2.61 -1.03 -2.69 -0.92 -2.75 -0.77 -2.78 -0.65 -2.85 -0.51 -2.9 -0.36 -2.94 -0.23 -2.99 -0.07 0 0z"/>
   </g>
   <g>
    <path class="fil1" d="M554.29 230l-25.5 0 0 0 0.11 -4.28 0.32 -4.23 0.53 -4.17 0.73 -4.11 0.93 -4.04 1.13 -3.95 1.31 -3.87 1.49 -3.8 1.68 -3.7 1.84 -3.59 2 -3.49 2.17 -3.39 2.33 -3.26 2.47 -3.15 2.62 -3.02 2.75 -2.89 2.89 -2.76 3.03 -2.62 3.15 -2.47 3.26 -2.32 3.38 -2.17 3.5 -2.01 3.59 -1.84 3.7 -1.67 3.79 -1.5 3.87 -1.3 3.96 -1.13 4.04 -0.93 4.1 -0.74 4.18 -0.53 4.23 -0.32 4.27 -0.11 0 25.51 -2.99 0.07 -2.94 0.23 -2.89 0.36 -2.85 0.51 -2.8 0.65 -2.74 0.77 -2.68 0.92 -2.62 1.03 -2.56 1.15 -2.5 1.29 -2.42 1.39 -2.34 1.5 -2.27 1.61 -2.19 1.72 -2.1 1.82 -2.01 1.92 -1.92 2.02 -1.82 2.09 -1.72 2.19 -1.62 2.27 -1.5 2.35 -1.39 2.42 -1.28 2.5 -1.16 2.55 -1.03 2.62 -0.91 2.69 -0.78 2.74 -0.64 2.79 -0.51 2.85 -0.37 2.89 -0.22 2.94 -0.08 3 0 0zm57.85 57.84l0 25.51 0 0 -4.27 -0.11 -4.23 -0.32 -4.18 -0.53 -4.1 -0.73 -4.04 -0.94 -3.96 -1.12 -3.87 -1.31 -3.79 -1.5 -3.7 -1.67 -3.59 -1.84 -3.5 -2 -3.38 -2.18 -3.26 -2.32 -3.15 -2.47 -3.02 -2.61 -2.9 -2.77 -2.76 -2.89 -2.61 -3.02 -2.47 -3.15 -2.33 -3.26 -2.17 -3.39 -2.01 -3.49 -1.83 -3.59 -1.68 -3.7 -1.49 -3.79 -1.31 -3.87 -1.13 -3.96 -0.93 -4.04 -0.73 -4.11 -0.53 -4.17 -0.32 -4.23 -0.11 -4.27 25.5 0 0.08 2.99 0.22 2.94 0.37 2.89 0.51 2.85 0.64 2.8 0.78 2.73 0.91 2.69 1.03 2.62 1.16 2.56 1.28 2.5 1.39 2.42 1.5 2.34 1.62 2.27 1.72 2.19 1.82 2.1 1.92 2.01 2.01 1.92 2.1 1.82 2.19 1.72 2.27 1.61 2.34 1.51 2.42 1.39 2.5 1.28 2.56 1.15 2.62 1.03 2.68 0.92 2.74 0.77 2.8 0.65 2.85 0.51 2.89 0.36 2.94 0.23 2.99 0.07 0 0zm57.85 -57.84l25.51 0 0 0 -0.11 4.27 -0.32 4.23 -0.53 4.17 -0.74 4.11 -0.93 4.04 -1.13 3.96 -1.3 3.87 -1.5 3.79 -1.67 3.7 -1.84 3.59 -2.01 3.49 -2.17 3.39 -2.32 3.26 -2.47 3.15 -2.62 3.02 -2.76 2.89 -2.89 2.77 -3.02 2.61 -3.15 2.47 -3.26 2.32 -3.39 2.18 -3.49 2 -3.59 1.84 -3.7 1.67 -3.79 1.5 -3.87 1.31 -3.97 1.12 -4.04 0.94 -4.1 0.73 -4.17 0.53 -4.23 0.32 -4.28 0.11 0 -25.51 3 -0.07 2.94 -0.23 2.89 -0.36 2.85 -0.51 2.79 -0.65 2.74 -0.77 2.69 -0.92 2.62 -1.03 2.55 -1.15 2.5 -1.28 2.43 -1.39 2.34 -1.51 2.27 -1.61 2.19 -1.72 2.1 -1.82 2.01 -1.92 1.91 -2.01 1.82 -2.1 1.73 -2.19 1.61 -2.27 1.5 -2.34 1.39 -2.42 1.28 -2.5 1.16 -2.56 1.03 -2.62 0.91 -2.69 0.78 -2.73 0.65 -2.8 0.51 -2.85 0.36 -2.89 0.23 -2.94 0.07 -2.99 0 0zm-57.85 -57.85l0 -25.51 0 0 4.28 0.11 4.23 0.32 4.17 0.53 4.1 0.74 4.04 0.93 3.97 1.13 3.87 1.3 3.79 1.5 3.7 1.67 3.59 1.84 3.49 2.01 3.39 2.17 3.26 2.32 3.15 2.47 3.02 2.62 2.9 2.76 2.75 2.89 2.62 3.02 2.47 3.15 2.32 3.26 2.17 3.39 2.01 3.49 1.84 3.59 1.67 3.7 1.5 3.8 1.3 3.87 1.13 3.95 0.93 4.04 0.74 4.11 0.53 4.17 0.32 4.23 0.11 4.28 -25.51 0 -0.07 -3 -0.23 -2.94 -0.36 -2.89 -0.51 -2.85 -0.65 -2.79 -0.78 -2.74 -0.91 -2.69 -1.03 -2.62 -1.16 -2.55 -1.27 -2.5 -1.4 -2.42 -1.5 -2.35 -1.61 -2.27 -1.72 -2.19 -1.82 -2.09 -1.92 -2.02 -2.01 -1.92 -2.1 -1.82 -2.19 -1.72 -2.27 -1.61 -2.34 -1.5 -2.43 -1.39 -2.5 -1.29 -2.55 -1.15 -2.62 -1.03 -2.69 -0.92 -2.74 -0.77 -2.79 -0.65 -2.85 -0.51 -2.89 -0.36 -2.94 -0.23 -3 -0.07 0 0z"/>
   </g>
   <g>
    <path class="fil1" d="M222.65 230l-25.5 0 0 0 0.11 -4.28 0.31 -4.23 0.54 -4.17 0.73 -4.11 0.93 -4.04 1.13 -3.95 1.31 -3.87 1.49 -3.8 1.67 -3.7 1.84 -3.59 2.01 -3.49 2.17 -3.39 2.32 -3.26 2.48 -3.15 2.61 -3.02 2.76 -2.89 2.89 -2.76 3.02 -2.62 3.15 -2.47 3.26 -2.32 3.39 -2.17 3.49 -2.01 3.59 -1.84 3.7 -1.67 3.8 -1.5 3.87 -1.3 3.96 -1.13 4.03 -0.93 4.11 -0.74 4.17 -0.53 4.23 -0.32 4.28 -0.11 0 25.51 -3 0.07 -2.94 0.23 -2.89 0.36 -2.85 0.51 -2.79 0.65 -2.74 0.77 -2.69 0.92 -2.62 1.03 -2.55 1.15 -2.5 1.28 -2.42 1.4 -2.34 1.5 -2.28 1.61 -2.18 1.72 -2.1 1.82 -2.02 1.92 -1.91 2.02 -1.82 2.09 -1.72 2.19 -1.62 2.27 -1.5 2.35 -1.39 2.42 -1.28 2.5 -1.16 2.55 -1.03 2.62 -0.91 2.69 -0.78 2.74 -0.64 2.79 -0.51 2.85 -0.37 2.89 -0.22 2.94 -0.08 3 0 0zm57.85 57.84l0 25.51 0 0 -4.28 -0.11 -4.23 -0.32 -4.17 -0.53 -4.11 -0.73 -4.03 -0.94 -3.96 -1.12 -3.87 -1.31 -3.8 -1.5 -3.7 -1.67 -3.59 -1.84 -3.49 -2 -3.39 -2.18 -3.26 -2.32 -3.15 -2.47 -3.02 -2.61 -2.89 -2.77 -2.76 -2.89 -2.62 -3.02 -2.47 -3.15 -2.32 -3.26 -2.17 -3.39 -2.01 -3.49 -1.84 -3.59 -1.67 -3.7 -1.49 -3.79 -1.31 -3.87 -1.13 -3.96 -0.93 -4.04 -0.73 -4.11 -0.54 -4.17 -0.31 -4.23 -0.11 -4.27 25.5 0 0.08 2.99 0.22 2.94 0.37 2.89 0.51 2.85 0.64 2.8 0.78 2.73 0.91 2.69 1.03 2.62 1.16 2.56 1.28 2.5 1.39 2.42 1.5 2.34 1.62 2.27 1.72 2.19 1.82 2.1 1.91 2.01 2.01 1.92 2.11 1.82 2.18 1.72 2.28 1.61 2.34 1.51 2.42 1.39 2.5 1.28 2.55 1.15 2.62 1.03 2.69 0.92 2.74 0.77 2.79 0.65 2.85 0.51 2.89 0.36 2.94 0.23 3 0.07 0 0zm57.84 -57.84l25.51 0 0 0 -0.11 4.27 -0.32 4.23 -0.53 4.17 -0.73 4.11 -0.94 4.04 -1.12 3.96 -1.31 3.87 -1.5 3.79 -1.67 3.7 -1.84 3.59 -2 3.49 -2.18 3.39 -2.32 3.26 -2.47 3.15 -2.61 3.02 -2.76 2.89 -2.9 2.77 -3.02 2.61 -3.15 2.47 -3.26 2.32 -3.39 2.18 -3.49 2 -3.59 1.84 -3.7 1.67 -3.79 1.5 -3.87 1.31 -3.96 1.12 -4.04 0.94 -4.11 0.73 -4.17 0.53 -4.23 0.32 -4.27 0.11 0 -25.51 2.99 -0.07 2.94 -0.23 2.89 -0.36 2.85 -0.51 2.8 -0.65 2.73 -0.77 2.69 -0.92 2.62 -1.03 2.56 -1.15 2.5 -1.28 2.42 -1.39 2.34 -1.51 2.27 -1.61 2.19 -1.72 2.1 -1.82 2.01 -1.92 1.92 -2.01 1.82 -2.1 1.72 -2.19 1.61 -2.27 1.51 -2.34 1.39 -2.42 1.28 -2.5 1.16 -2.56 1.02 -2.62 0.92 -2.69 0.77 -2.73 0.65 -2.8 0.51 -2.85 0.37 -2.89 0.22 -2.94 0.07 -2.99 0 0zm-57.84 -57.85l0 -25.51 0 0 4.27 0.11 4.23 0.32 4.17 0.53 4.11 0.74 4.04 0.93 3.96 1.13 3.87 1.3 3.79 1.5 3.7 1.67 3.59 1.84 3.49 2.01 3.39 2.17 3.26 2.32 3.15 2.47 3.03 2.62 2.89 2.76 2.75 2.89 2.62 3.02 2.47 3.15 2.32 3.26 2.18 3.39 2 3.49 1.84 3.59 1.67 3.7 1.5 3.8 1.31 3.87 1.12 3.95 0.94 4.04 0.73 4.11 0.53 4.17 0.32 4.23 0.11 4.28 -25.51 0 -0.07 -3 -0.22 -2.94 -0.37 -2.89 -0.51 -2.85 -0.65 -2.79 -0.77 -2.74 -0.92 -2.69 -1.02 -2.62 -1.16 -2.55 -1.28 -2.5 -1.39 -2.42 -1.51 -2.35 -1.61 -2.27 -1.72 -2.19 -1.82 -2.09 -1.92 -2.02 -2.01 -1.92 -2.1 -1.82 -2.19 -1.72 -2.27 -1.61 -2.34 -1.5 -2.42 -1.39 -2.5 -1.29 -2.56 -1.15 -2.62 -1.03 -2.69 -0.92 -2.73 -0.77 -2.8 -0.65 -2.85 -0.51 -2.89 -0.36 -2.94 -0.23 -2.99 -0.07 0 0z"/>
   </g>
   <g>
    <path class="fil1" d="M300.6 433.57l0 25.5 -12.75 -12.75 0.2 -8.14 0.61 -8.05 1.01 -7.93 1.4 -7.8 1.77 -7.68 2.13 -7.52 2.5 -7.37 2.84 -7.2 3.17 -7.02 3.5 -6.84 3.82 -6.63 4.12 -6.43 4.41 -6.21 4.71 -5.99 4.98 -5.75 5.24 -5.5 5.51 -5.24 5.74 -4.98 5.99 -4.71 6.21 -4.41 6.43 -4.12 6.63 -3.82 6.84 -3.51 7.03 -3.17 7.19 -2.83 7.37 -2.5 7.53 -2.14 7.67 -1.77 7.8 -1.39 7.93 -1.01 8.05 -0.61 8.14 -0.21 0 25.51 -6.85 0.17 -6.76 0.52 -6.65 0.84 -6.55 1.17 -6.43 1.48 -6.31 1.8 -6.17 2.08 -6.04 2.38 -5.88 2.66 -5.73 2.94 -5.57 3.2 -5.4 3.46 -5.21 3.71 -5.03 3.95 -4.82 4.18 -4.62 4.4 -4.41 4.62 -4.18 4.83 -3.95 5.03 -3.7 5.21 -3.47 5.4 -3.2 5.57 -2.93 5.73 -2.67 5.88 -2.37 6.04 -2.09 6.17 -1.79 6.3 -1.49 6.43 -1.17 6.55 -0.84 6.66 -0.52 6.75 -0.17 6.86 -12.75 -12.75zm12.75 12.75c0,7.04 -5.71,12.75 -12.75,12.75 -7.04,0 -12.75,-5.71 -12.75,-12.75l25.5 0zm278.69 12.75l-291.44 0 0 -25.5 291.44 0 12.75 12.75 -12.75 12.75zm0 -25.5c7.04,0 12.75,5.71 12.75,12.75 0,7.04 -5.71,12.75 -12.75,12.75l0 -25.5zm-145.72 -120.22l0 -25.51 0 0 8.14 0.21 8.05 0.61 7.93 1.01 7.8 1.39 7.67 1.77 7.53 2.14 7.37 2.5 7.19 2.83 7.03 3.17 6.84 3.51 6.63 3.82 6.43 4.12 6.21 4.41 5.98 4.71 5.75 4.98 5.5 5.24 5.25 5.5 4.98 5.75 4.7 5.98 4.42 6.22 4.12 6.43 3.81 6.63 3.51 6.84 3.17 7.02 2.84 7.2 2.49 7.37 2.14 7.52 1.77 7.68 1.39 7.8 1.01 7.93 0.61 8.05 0.21 8.14 -25.51 0 -0.17 -6.86 -0.51 -6.75 -0.85 -6.66 -1.17 -6.55 -1.48 -6.43 -1.79 -6.3 -2.09 -6.17 -2.38 -6.04 -2.66 -5.88 -2.94 -5.74 -3.2 -5.56 -3.45 -5.4 -3.71 -5.21 -3.95 -5.03 -4.18 -4.83 -4.41 -4.62 -4.62 -4.4 -4.83 -4.18 -5.02 -3.95 -5.22 -3.71 -5.39 -3.46 -5.57 -3.2 -5.73 -2.94 -5.89 -2.66 -6.03 -2.38 -6.18 -2.08 -6.3 -1.8 -6.42 -1.48 -6.55 -1.17 -6.66 -0.84 -6.75 -0.52 -6.86 -0.17 0 0z"/>
   </g>
  </g>
 </g>
</svg>
