<?xml version="1.0" encoding="UTF-8"?>
<!DOCTYPE svg PUBLIC "-//W3C//DTD SVG 1.1//EN" "http://www.w3.org/Graphics/SVG/1.1/DTD/svg11.dtd">
<!-- Creator: CorelDRAW 2018 (64-Bit) -->
<svg xmlns="http://www.w3.org/2000/svg" xml:space="preserve" width="100px" height="100px" version="1.1" style="shape-rendering:geometricPrecision; text-rendering:geometricPrecision; image-rendering:optimizeQuality; fill-rule:evenodd; clip-rule:evenodd"
viewBox="0 0 877.41 877.41"
 xmlns:xlink="http://www.w3.org/1999/xlink">
 <defs>
  <style type="text/css">
   <![CDATA[
    .fil0 {fill:#198FD9}
    .fil1 {fill:#FEFEFE;fill-rule:nonzero}
   ]]>
  </style>
 </defs>
 <g id="Слой_x0020_1">
  <metadata id="CorelCorpID_0Corel-Layer"/>
  <circle class="fil0" cx="438.71" cy="438.71" r="438.71"/>
  <g id="_3017921063232">
   <g>
    <path class="fil1" d="M135.44 373.32c1.46,-6.77 8.13,-11.07 14.9,-9.61 6.76,1.46 11.07,8.13 9.61,14.89l-24.51 -5.28zm18.11 65.38l-25.07 0 0 0 0 -2.05 0.02 -2.07 0.04 -2.05 0.04 -2.06 0.07 -2.06 0.07 -2.07 0.09 -2.05 0.1 -2.04 0.12 -2.07 0.13 -2.06 0.15 -2.04 0.15 -2.05 0.17 -2.06 0.19 -2.05 0.19 -2.04 0.22 -2.05 0.22 -2.05 0.24 -2.04 0.25 -2.04 0.26 -2.04 0.28 -2.04 0.3 -2.05 0.31 -2.03 0.31 -2.02 0.33 -2.04 0.35 -2.04 0.36 -2.01 0.37 -2.03 0.39 -2.02 0.4 -2.02 0.42 -2.03 0.42 -2.01 24.51 5.28 -0.4 1.86 -0.37 1.84 -0.37 1.87 -0.36 1.86 -0.34 1.86 -0.33 1.87 -0.32 1.86 -0.3 1.86 -0.3 1.88 -0.28 1.87 -0.27 1.87 -0.26 1.87 -0.24 1.87 -0.23 1.89 -0.22 1.88 -0.21 1.88 -0.19 1.88 -0.18 1.88 -0.17 1.89 -0.16 1.87 -0.14 1.9 -0.14 1.89 -0.12 1.88 -0.1 1.88 -0.09 1.9 -0.09 1.9 -0.07 1.88 -0.05 1.89 -0.05 1.89 -0.03 1.9 -0.02 1.88 0 1.9 0 0zm285.16 285.16l0 25.07 0 0 -15.96 -0.4 -15.74 -1.2 -15.53 -1.97 -15.28 -2.73 -15.01 -3.47 -14.73 -4.18 -14.42 -4.88 -14.09 -5.55 -13.74 -6.22 -13.39 -6.85 -12.99 -7.47 -12.58 -8.07 -12.16 -8.64 -11.72 -9.21 -11.26 -9.75 -10.77 -10.27 -10.27 -10.77 -9.75 -11.26 -9.21 -11.72 -8.64 -12.16 -8.07 -12.58 -7.47 -13 -6.86 -13.38 -6.21 -13.74 -5.55 -14.09 -4.88 -14.42 -4.18 -14.73 -3.47 -15.01 -2.73 -15.28 -1.97 -15.53 -1.2 -15.74 -0.4 -15.96 25.07 0 0.37 14.69 1.1 14.49 1.81 14.27 2.51 14.04 3.19 13.79 3.84 13.53 4.48 13.24 5.1 12.95 5.71 12.62 6.3 12.3 6.86 11.94 7.42 11.57 7.95 11.18 8.47 10.78 8.96 10.34 9.45 9.91 9.91 9.45 10.34 8.96 10.78 8.47 11.18 7.95 11.57 7.42 11.94 6.86 12.3 6.3 12.62 5.71 12.95 5.1 13.24 4.48 13.53 3.84 13.79 3.19 14.04 2.51 14.27 1.81 14.49 1.1 14.69 0.37 0 0zm285.16 -285.16l25.06 0 0 0 -0.4 15.96 -1.19 15.74 -1.98 15.53 -2.73 15.28 -3.46 15.01 -4.18 14.73 -4.89 14.42 -5.55 14.09 -6.21 13.74 -6.86 13.38 -7.47 13 -8.06 12.58 -8.65 12.16 -9.21 11.72 -9.75 11.26 -10.27 10.77 -10.77 10.27 -11.26 9.75 -11.71 9.21 -12.17 8.64 -12.58 8.07 -13 7.47 -13.37 6.85 -13.75 6.22 -14.09 5.55 -14.42 4.88 -14.72 4.18 -15.02 3.47 -15.28 2.73 -15.52 1.97 -15.75 1.2 -15.95 0.4 0 -25.07 14.68 -0.37 14.49 -1.1 14.27 -1.81 14.04 -2.51 13.79 -3.19 13.53 -3.84 13.24 -4.48 12.95 -5.1 12.63 -5.71 12.29 -6.3 11.94 -6.86 11.57 -7.42 11.19 -7.95 10.77 -8.47 10.35 -8.96 9.91 -9.45 9.44 -9.9 8.96 -10.35 8.47 -10.78 7.95 -11.18 7.42 -11.57 6.87 -11.94 6.29 -12.3 5.71 -12.62 5.1 -12.95 4.49 -13.24 3.84 -13.53 3.18 -13.79 2.51 -14.04 1.81 -14.27 1.1 -14.49 0.38 -14.69 0 0zm-285.16 -285.16l0 -25.06 0 0 15.95 0.4 15.75 1.19 15.52 1.98 15.28 2.73 15.02 3.46 14.72 4.18 14.42 4.89 14.09 5.55 13.75 6.21 13.37 6.86 13 7.47 12.58 8.06 12.17 8.65 11.71 9.21 11.26 9.75 10.77 10.27 10.27 10.77 9.75 11.26 9.21 11.71 8.65 12.17 8.06 12.58 7.47 12.99 6.86 13.38 6.21 13.75 5.55 14.09 4.89 14.42 4.18 14.72 3.46 15.02 2.73 15.28 1.98 15.52 1.19 15.75 0.4 15.95 -25.06 0 -0.38 -14.68 -1.1 -14.49 -1.81 -14.27 -2.51 -14.04 -3.18 -13.79 -3.84 -13.53 -4.49 -13.24 -5.1 -12.95 -5.71 -12.63 -6.29 -12.29 -6.87 -11.94 -7.42 -11.57 -7.95 -11.18 -8.47 -10.78 -8.96 -10.35 -9.44 -9.91 -9.91 -9.44 -10.35 -8.96 -10.78 -8.47 -11.18 -7.95 -11.57 -7.42 -11.94 -6.87 -12.29 -6.29 -12.63 -5.71 -12.95 -5.11 -13.24 -4.48 -13.53 -3.84 -13.79 -3.18 -14.04 -2.51 -14.27 -1.81 -14.49 -1.1 -14.68 -0.38 0 0zm-214.11 96.82l-18.82 -16.56 5.6 -6.19 5.74 -6.03 5.89 -5.85 6.03 -5.68 6.17 -5.5 6.29 -5.33 6.43 -5.15 6.55 -4.97 6.68 -4.79 6.78 -4.6 6.9 -4.42 7.01 -4.24 7.11 -4.04 7.22 -3.86 7.3 -3.65 7.41 -3.47 7.49 -3.27 7.58 -3.07 7.65 -2.87 7.74 -2.67 7.8 -2.47 7.88 -2.26 7.94 -2.05 8.01 -1.85 8.06 -1.64 8.11 -1.42 8.16 -1.21 8.2 -0.99 8.25 -0.78 8.28 -0.56 8.32 -0.34 8.35 -0.1 0 25.06 -7.68 0.11 -7.64 0.3 -7.62 0.52 -7.58 0.71 -7.54 0.91 -7.5 1.12 -7.46 1.3 -7.41 1.51 -7.35 1.69 -7.3 1.89 -7.24 2.08 -7.17 2.27 -7.11 2.45 -7.04 2.64 -6.96 2.83 -6.89 3 -6.81 3.19 -6.71 3.36 -6.63 3.54 -6.54 3.72 -6.45 3.89 -6.34 4.06 -6.24 4.24 -6.13 4.4 -6.02 4.56 -5.91 4.74 -5.79 4.9 -5.66 5.06 -5.55 5.22 -5.41 5.38 -5.28 5.53 -5.15 5.7zm-51.73 39.83l26.8 -101.63 70.58 62.09 -97.38 39.54zm51.73 -39.83c-4.57,5.19 -12.49,5.7 -17.69,1.13 -5.19,-4.57 -5.7,-12.5 -1.13,-17.69l18.82 16.56z"/>
   </g>
   <path class="fil1" d="M308.46 303.93c0,-22.35 10.39,-37.21 31.18,-44.59 6.93,-2.46 14.75,-3.69 23.47,-3.69 40.67,0 61.01,20.23 61.01,60.68 0,17.44 -7.49,33.53 -22.46,48.28l0 1.68c0,2.46 1.68,5.25 5.03,8.38 3.8,2.68 6.15,4.47 7.04,5.36 1.79,1.57 3.41,3.07 4.86,4.53 1.45,1.45 2.74,2.85 3.86,4.19 2.68,2.9 4.35,9.16 5.03,18.77 0.22,0.67 0.33,4.69 0.33,12.07 0,13.18 -1.23,24.14 -3.69,32.85 -8.49,28.61 -29.28,42.92 -62.35,42.92 -7.6,0 -13.86,-0.56 -18.78,-1.68 -21.45,-5.81 -34.64,-18.44 -39.56,-37.88 -1.11,-4.92 -1.67,-12.07 -1.67,-21.46l0 -13.08c0.44,-3.35 2.12,-5.02 5.02,-5.02l31.18 0c3.13,0 4.81,1.67 5.03,5.02 0.23,3.81 0.45,7.6 0.67,11.4 0.23,3.8 0.56,7.49 1.01,11.07 0.89,8.27 6.03,12.4 15.42,12.4 12.52,0 18.89,-5.81 19.11,-17.43 0.22,-0.67 0.33,-5.59 0.33,-14.75 0,-9.84 -0.67,-16.99 -2.01,-21.46 -2.9,-10.95 -7.48,-16.43 -13.74,-16.43l-24.14 0c-3.58,0 -5.36,-2.56 -5.36,-7.71l0 -22.46c0,-5.14 1.78,-7.71 5.36,-7.71l24.14 0c0.44,0 1.56,-0.89 3.35,-2.68 2.46,-2.23 4.41,-4.25 5.87,-6.04 1.45,-1.78 2.4,-3.24 2.85,-4.35 1.11,-4.02 1.67,-9.5 1.67,-16.43 0,-15.64 -5.36,-23.47 -16.09,-23.47 -7.6,0 -12.07,2.91 -13.41,8.72 -0.45,6.26 -1.01,10.28 -1.68,12.07 -0.67,2.46 -1.78,3.69 -3.35,3.69l-31.18 0c-0.89,0 -2.01,-1.79 -3.35,-5.37l0 -10.39z"/>
   <path id="1" class="fil1" d="M511.95 495.36c-9.6,0 -18.77,-1.68 -27.48,-5.03 -24.14,-9.61 -36.21,-27.38 -36.21,-53.31l0 -122.7c0,-25.92 12.07,-43.69 36.21,-53.3 8.49,-3.58 17.65,-5.37 27.48,-5.37 9.84,0 19,1.79 27.5,5.37 24.13,9.61 36.2,27.38 36.2,53.3l0 122.7c0,25.93 -12.07,43.7 -36.2,53.31 -8.72,3.35 -17.88,5.03 -27.5,5.03zm0 -40.9c10.29,0 15.43,-4.14 15.43,-12.41l0 -132.76c0,-8.27 -5.14,-12.4 -15.43,-12.4 -10.27,0 -15.42,4.69 -15.42,14.08l0 129.4c0,9.39 5.15,14.09 15.42,14.09z"/>
   <path id="2" class="fil1" d="M312.55 527.22l28.97 0c8.76,0 15.2,3.66 19.31,11.02 3.75,6.43 5.63,12.2 5.63,17.32l0 35.17c0,4.56 -0.94,8.97 -2.82,13.17 -4.92,11.02 -12.51,16.52 -22.79,16.52l-28.97 0c-1.34,0 -2.01,-0.9 -2.01,-2.69l0 -88.5c0,-1.34 0.89,-2.01 2.68,-2.01zm26.35 17.16l-9.72 0 0 58.07 0.67 0.67c0.27,0.09 1.5,0.13 3.64,0.13 9.1,0 13.66,-4.2 13.66,-12.6l0 -33.8c0,-1.6 -0.45,-3.44 -1.34,-5.49 -0.92,-2.42 -2.31,-4.25 -4.2,-5.5 -1.26,-0.99 -2.17,-1.48 -2.71,-1.48z"/>
   <path id="3" class="fil1" d="M371.96 618.4l0 -0.67 19.98 -86.36c0.62,-2.77 1.52,-4.15 2.68,-4.15l19.31 0c1.34,0 2.28,1.11 2.82,3.35l21.45 87.83c0.27,1.34 -0.22,2.02 -1.47,2.02l-15.16 0c-1.25,0 -2.14,-0.9 -2.68,-2.69 -0.62,-2.32 -1.16,-4.33 -1.61,-6.03 -0.45,-1.7 -0.85,-3.13 -1.2,-4.29 -0.36,-1.43 -0.81,-2.15 -1.35,-2.15l-20.11 0 -1.34 1.48c-0.45,1.7 -0.92,3.42 -1.41,5.16 -0.49,1.74 -0.96,3.46 -1.41,5.16 -0.62,2.24 -1.52,3.36 -2.68,3.36l-14.48 0c-0.89,0 -1.34,-0.68 -1.34,-2.02zm31.64 -58.06l-5.63 26.28 13.01 0 -5.9 -25.61c-0.18,-0.53 -0.58,-0.8 -1.21,-0.8 -0.18,0 -0.27,0.04 -0.27,0.13z"/>
   <path id="4" class="fil1" d="M440.21 528.83c0,-1.08 0.45,-1.61 1.34,-1.61l17.97 0c0.72,0 1.61,1.38 2.69,4.15 1.96,5.28 3.71,9.86 5.23,13.75 1.52,3.89 2.77,7.13 3.75,9.72 0.36,0.9 0.8,1.79 1.34,2.68l13.81 -30.3 18.64 0c0.99,0 1.48,0.53 1.48,1.61 0,0.8 -0.27,1.65 -0.81,2.54l-23.73 48.35 0 38.01c0,1.79 -0.81,2.69 -2.42,2.69l-14.48 0c-1.61,0 -2.41,-0.9 -2.41,-2.69l0 -38.55 -21.73 -47.81c-0.44,-1.16 -0.67,-2 -0.67,-2.54z"/>
   <path id="5" class="fil1" d="M513.3 550.82c0,-12.25 5.72,-20.07 17.16,-23.47 3.49,-0.98 7.6,-1.47 12.34,-1.47 6.53,0 12.34,0.71 17.43,2.12 2.24,0.63 3.35,1.52 3.35,2.66l0 13.05c0,0.98 -0.76,1.48 -2.28,1.48 -0.62,0 -0.98,-0.05 -1.07,-0.14 -5.01,-1 -8.72,-1.63 -11.13,-1.88 -0.27,-0.08 -1.56,-0.13 -3.89,-0.13 -2.59,0 -4.07,0.05 -4.42,0.13 -4.11,0.27 -6.17,2.24 -6.17,5.91 0,1.69 0.71,3.39 2.14,5.09 0.63,0.98 2.24,2.37 4.83,4.16 2.68,1.7 4.98,3.26 6.91,4.69 1.92,1.43 3.51,2.64 4.76,3.62 6.97,5.81 11.35,11.8 13.14,17.97 0.98,3.49 1.47,7.02 1.47,10.6 0,11.17 -5.81,19.35 -17.43,24.53 -2.59,1.17 -5.81,1.84 -9.65,2.02l-5.37 0c-7.33,0 -13.58,-0.67 -18.77,-2.02 -1.79,-0.44 -2.68,-1.11 -2.68,-2.01l0 -15.82c0,-0.54 0.8,-0.8 2.41,-0.8l0.94 0c0.9,0.35 1.7,0.67 2.42,0.93 0.71,0.27 1.29,0.45 1.74,0.54 0.36,0.09 0.83,0.18 1.4,0.27 0.59,0.09 1.28,0.22 2.08,0.4 1.52,0.18 3,0.33 4.43,0.47 1.43,0.13 2.86,0.2 4.29,0.2 2.77,0 4.92,-0.22 6.44,-0.67 4.2,-1.61 6.3,-4.43 6.3,-8.45 0,-4.11 -2.32,-7.95 -6.97,-11.53 -6.53,-4.38 -11.36,-7.87 -14.49,-10.46 -7.78,-6.35 -11.66,-13.68 -11.66,-21.99z"/>
  </g>
 </g>
</svg>
