<?xml version="1.0" encoding="UTF-8"?>
<!DOCTYPE svg PUBLIC "-//W3C//DTD SVG 1.1//EN" "http://www.w3.org/Graphics/SVG/1.1/DTD/svg11.dtd">
<!-- Creator: CorelDRAW 2018 (64-Bit) -->
<svg xmlns="http://www.w3.org/2000/svg" xml:space="preserve" width="100px" height="100px" version="1.1" style="shape-rendering:geometricPrecision; text-rendering:geometricPrecision; image-rendering:optimizeQuality; fill-rule:evenodd; clip-rule:evenodd"
viewBox="0 0 7.75 7.75"
 xmlns:xlink="http://www.w3.org/1999/xlink">
 <defs>
  <style type="text/css">
   <![CDATA[
    .str0 {stroke:#FEFEFE;stroke-width:0.22;stroke-linecap:round;stroke-linejoin:round;stroke-miterlimit:22.9256}
    .fil1 {fill:none}
    .fil0 {fill:#198FD9}
   ]]>
  </style>
 </defs>
 <g id="Слой_x0020_1">
  <metadata id="CorelCorpID_0Corel-Layer"/>
  <circle class="fil0" cx="3.88" cy="3.88" r="3.88"/>
  <g id="_3053988800752">
   <path class="fil1 str0" d="M3.88 6.51c1.3,-0.41 1.99,-1.47 2.06,-3.16 0,-0.82 0,-1.22 0,-1.22 -0.72,-0.21 -1.41,-0.5 -2.06,-0.88 -0.66,0.38 -1.34,0.67 -2.06,0.88 0,0 0,0.4 0,1.22 0.06,1.69 0.75,2.75 2.06,3.16z"/>
   <path class="fil1 str0" d="M3.88 6.04c1.17,-0.44 1.56,-1.48 1.61,-2.7 0,-0.29 0,-0.59 0,-0.88 -0.56,-0.19 -1.1,-0.42 -1.61,-0.7 -0.52,0.28 -1.06,0.51 -1.62,0.7 0,0.29 0,0.59 0,0.88 0.05,1.22 0.44,2.26 1.62,2.7z"/>
   <polygon class="fil1 str0" points="3.51,4.79 4.98,3.31 4.73,3.06 3.51,4.28 3.03,3.8 2.77,4.05 "/>
  </g>
 </g>
</svg>
