<?xml version="1.0" encoding="UTF-8"?>
<!DOCTYPE svg PUBLIC "-//W3C//DTD SVG 1.1//EN" "http://www.w3.org/Graphics/SVG/1.1/DTD/svg11.dtd">
<!-- Creator: CorelDRAW 2018 (64-Bit) -->
<svg xmlns="http://www.w3.org/2000/svg" xml:space="preserve" width="100px" height="100px" version="1.1" style="shape-rendering:geometricPrecision; text-rendering:geometricPrecision; image-rendering:optimizeQuality; fill-rule:evenodd; clip-rule:evenodd"
viewBox="0 0 7.74 7.74"
 xmlns:xlink="http://www.w3.org/1999/xlink">
 <defs>
  <style type="text/css">
   <![CDATA[
    .str0 {stroke:#FEFEFE;stroke-width:0.22;stroke-linecap:round;stroke-linejoin:round;stroke-miterlimit:22.9256}
    .fil1 {fill:none}
    .fil0 {fill:#198FD9}
    .fil2 {fill:#198FD9}
   ]]>
  </style>
 </defs>
 <g id="Слой_x0020_1">
  <metadata id="CorelCorpID_0Corel-Layer"/>
  <circle class="fil0" cx="3.87" cy="3.87" r="3.87"/>
  <g id="_3053924959792">
   <g>
    <polygon class="fil1 str0" points="3.87,1.06 5.12,1.78 5.12,3.22 3.87,3.94 2.63,3.22 2.63,1.78 "/>
    <polyline class="fil1 str0" points="2.63,1.78 3.87,2.5 5.12,1.78 "/>
    <line class="fil1 str0" x1="3.87" y1="3.94" x2="3.87" y2= "2.5" />
   </g>
   <g>
    <polygon class="fil1 str0" points="2.63,3.22 3.87,3.94 3.87,5.37 2.63,6.09 1.38,5.37 1.38,3.94 "/>
    <polyline class="fil1 str0" points="1.38,3.94 2.63,4.65 3.87,3.94 "/>
    <line class="fil1 str0" x1="2.63" y1="6.09" x2="2.63" y2= "4.65" />
   </g>
   <g>
    <polygon class="fil1 str0" points="5.12,3.22 6.36,3.94 6.36,5.37 5.12,6.09 3.87,5.37 3.87,3.94 "/>
    <polyline class="fil1 str0" points="3.87,3.94 5.12,4.65 6.36,3.94 "/>
    <line class="fil1 str0" x1="5.12" y1="6.09" x2="5.12" y2= "4.65" />
   </g>
   <circle class="fil2 str0" cx="5.12" cy="3.22" r="0.71"/>
   <polyline class="fil1 str0" points="5.42,3 4.99,3.43 4.82,3.26 "/>
  </g>
 </g>
</svg>
