<?xml version="1.0" encoding="UTF-8"?>
<!DOCTYPE svg PUBLIC "-//W3C//DTD SVG 1.1//EN" "http://www.w3.org/Graphics/SVG/1.1/DTD/svg11.dtd">
<!-- Creator: CorelDRAW 2018 (64-Bit) -->
<svg xmlns="http://www.w3.org/2000/svg" xml:space="preserve" width="100px" height="100px" version="1.1" style="shape-rendering:geometricPrecision; text-rendering:geometricPrecision; image-rendering:optimizeQuality; fill-rule:evenodd; clip-rule:evenodd"
viewBox="0 0 892.52 892.52"
 xmlns:xlink="http://www.w3.org/1999/xlink">
 <defs>
  <style type="text/css">
   <![CDATA[
    .str0 {stroke:#FEFEFE;stroke-width:25.5;stroke-linecap:round;stroke-linejoin:round;stroke-miterlimit:22.9256}
    .fil1 {fill:none}
    .fil0 {fill:#198FD9}
    .fil2 {fill:#FEFEFE;fill-rule:nonzero}
   ]]>
  </style>
 </defs>
 <g id="Слой_x0020_1">
  <metadata id="CorelCorpID_0Corel-Layer"/>
  <circle class="fil0" cx="446.26" cy="446.26" r="446.26"/>
  <g id="_3053986772480">
   <path class="fil1 str0" d="M446.26 749.08c150.3,-47.37 229.33,-168.42 237.07,-363.16 0,-94.19 0,-141.28 0,-141.28 -82.86,-23.68 -161.89,-57.41 -237.07,-101.2 -75.19,43.79 -154.21,77.52 -237.08,101.2 0,0 0,47.09 0,141.28 7.75,194.74 86.77,315.79 237.08,363.16z"/>
   <path class="fil2" d="M440.12 328.94l-2.73 -2.38 -36.83 0c-3.41,0 -5.12,-2.16 -5.12,-6.48l0 -26.26c0,-3.19 1.71,-4.89 5.12,-5.12 4.32,-0.22 8.07,-0.45 11.25,-0.68 3.19,-0.23 5.91,-0.57 8.19,-1.02 9.55,-1.59 18.3,-6.93 26.25,-16.03 5.01,-5.68 7.96,-8.53 8.87,-8.53l27.97 0 5.11 5.12 0 225.07c0,4.55 -1.7,6.82 -5.11,6.82l-36.84 0 -6.13 -5.11 0 -165.4z"/>
   <path id="1" class="fil2" d="M311.55 536.91c0,-1.09 0.46,-1.64 1.37,-1.64l18.28 0c0.72,0 1.64,1.41 2.73,4.23 2,5.37 3.77,10.03 5.32,13.98 1.54,3.96 2.81,7.26 3.81,9.89 0.37,0.91 0.82,1.82 1.37,2.73l14.05 -30.83 18.96 0c1,0 1.5,0.55 1.5,1.64 0,0.82 -0.27,1.68 -0.82,2.59l-24.14 49.17 0 38.68c0,1.82 -0.82,2.72 -2.46,2.72l-14.73 0c-1.64,0 -2.46,-0.9 -2.46,-2.72l0 -39.22 -22.09 -48.63c-0.46,-1.18 -0.69,-2.04 -0.69,-2.59z"/>
   <path id="2" class="fil2" d="M384.53 537.32l2.05 -2.05 47.74 0 2.05 2.05 0 12.69c0,1.63 -0.69,2.45 -2.05,2.45l-29.46 0 -0.68 0.95 0 18.15 23.05 0 1.5 1.77 0 14.05 -1.5 1.64 -22.37 0 -0.68 1.09 0 22.78 32.19 0 1.5 1.77 0 14.05c0,0.91 -0.73,1.36 -2.19,1.36l-49.1 0c-1.36,0 -2.05,-0.9 -2.05,-2.72l0 -90.03z"/>
   <path id="3" class="fil2" d="M444.14 628.03l0 -0.68 20.33 -87.85c0.63,-2.82 1.54,-4.23 2.72,-4.23l19.65 0c1.36,0 2.32,1.14 2.86,3.41l21.83 89.35c0.27,1.36 -0.23,2.04 -1.51,2.04l-15.41 0c-1.27,0 -2.18,-0.9 -2.73,-2.72 -0.63,-2.37 -1.18,-4.42 -1.63,-6.14 -0.46,-1.73 -0.87,-3.18 -1.23,-4.37 -0.36,-1.45 -0.82,-2.18 -1.37,-2.18l-20.46 0 -1.36 1.5c-0.46,1.73 -0.93,3.48 -1.43,5.25 -0.5,1.78 -0.98,3.53 -1.44,5.25 -0.63,2.28 -1.54,3.41 -2.72,3.41l-14.73 0c-0.91,0 -1.37,-0.68 -1.37,-2.04zm32.19 -59.06l-5.73 26.73 13.24 0 -6.01 -26.05c-0.18,-0.55 -0.59,-0.82 -1.22,-0.82 -0.19,0 -0.28,0.04 -0.28,0.14z"/>
   <path id="4" class="fil2" d="M543.04 590.79l-6.01 0 0 36.56c0,1.82 -0.81,2.72 -2.45,2.72l-14.73 0c-1.37,0 -2.05,-0.9 -2.05,-2.72l0 -90.03c0,-1.36 0.91,-2.05 2.73,-2.05l30.96 0c2.73,0 6,0.69 9.83,2.05 11.27,4.18 16.91,12.3 16.91,24.32 0,10.28 -4.5,18.35 -13.51,24.17 -0.45,0.45 -0.68,0.68 -0.68,0.68 0,0.28 0.23,1 0.68,2.18l15.56 35.13c0.45,1.36 0.68,2.59 0.68,3.68 0,1.73 -0.5,2.59 -1.5,2.59l-16.78 0c-1.09,0 -1.82,-0.45 -2.18,-1.36l-17.46 -37.92zm5.59 -38.06l-11.19 0 0 19.78 0.69 0.82 3.95 0c4.09,0 6.96,-0.27 8.6,-0.82 4.27,-1.39 6.41,-4.54 6.41,-9.48 0,-6.87 -2.82,-10.3 -8.46,-10.3z"/>
  </g>
 </g>
</svg>
