<?xml version="1.0" encoding="UTF-8"?>
<!DOCTYPE svg PUBLIC "-//W3C//DTD SVG 1.1//EN" "http://www.w3.org/Graphics/SVG/1.1/DTD/svg11.dtd">
<!-- Creator: CorelDRAW 2018 (64-Bit) -->
<svg xmlns="http://www.w3.org/2000/svg" xml:space="preserve" width="100px" height="100px" version="1.1" style="shape-rendering:geometricPrecision; text-rendering:geometricPrecision; image-rendering:optimizeQuality; fill-rule:evenodd; clip-rule:evenodd"
viewBox="0 0 7.74 7.74"
 xmlns:xlink="http://www.w3.org/1999/xlink">
 <defs>
  <style type="text/css">
   <![CDATA[
    .fil0 {fill:#198FD9}
    .fil1 {fill:#FEFEFE;fill-rule:nonzero}
   ]]>
  </style>
 </defs>
 <g id="Слой_x0020_1">
  <metadata id="CorelCorpID_0Corel-Layer"/>
  <circle class="fil0" cx="3.87" cy="3.87" r="3.87"/>
  <g id="_3054077518192">
   <g>
    <path class="fil1" d="M3.4 1.21l-0.22 -0.03 0.09 -0.1 0.01 0 0.01 0 0.01 0 0.02 0 0.01 0 0.01 0 0.01 -0.01 0.01 0 0.01 0 0.01 0 0.01 0 0.02 0 0.01 0 0.01 0 0.01 -0.01 0.01 0 0.01 0 0.01 0 0.02 0 0.01 0 0.01 0 0.01 0 0.01 0 0.01 0 0.01 0 0.02 0 0.01 0 0.01 0 0.01 0 0.01 0 0.01 0 0.02 0 0 0.22 -0.02 0 -0.01 0 -0.01 0 -0.01 0 -0.01 0 -0.01 0 -0.01 0 -0.01 0 -0.01 0 -0.01 0 -0.01 0 -0.01 0 -0.01 0 -0.01 0 -0.01 0 -0.01 0 -0.01 0 -0.01 0.01 -0.01 0 -0.01 0 -0.01 0 -0.01 0 -0.01 0 -0.01 0 -0.01 0 -0.01 0 -0.01 0.01 -0.01 0 -0.01 0 -0.01 0 -0.02 0 -0.01 0 0.1 -0.09zm-0.1 0.09c-0.06,0.01 -0.11,-0.03 -0.12,-0.09 -0.01,-0.06 0.03,-0.12 0.09,-0.13l0.03 0.22zm-0.19 0.37l0.07 -0.49 0.22 0.03 -0.07 0.49 -0.09 0.09 -0.13 -0.12zm0.22 0.03c-0.01,0.06 -0.07,0.1 -0.13,0.09 -0.06,-0.01 -0.1,-0.06 -0.09,-0.12l0.22 0.03zm-0.7 0.29l0.14 -0.18 -0.13 -0.01 0.02 -0.01 0.01 -0.01 0.02 -0.01 0.02 0 0.01 -0.01 0.02 -0.01 0.02 -0.01 0.01 -0.01 0.02 -0.01 0.02 -0.01 0.01 0 0.02 -0.01 0.02 -0.01 0.01 -0.01 0.02 -0.01 0.02 0 0.01 -0.01 0.02 -0.01 0.02 0 0.02 -0.01 0.01 -0.01 0.02 0 0.02 -0.01 0.02 0 0.02 -0.01 0.01 -0.01 0.02 0 0.02 -0.01 0.02 0 0.02 -0.01 0.01 0 0.02 -0.01 0.05 0.22 -0.01 0 -0.02 0.01 -0.01 0 -0.02 0.01 -0.02 0 -0.01 0.01 -0.02 0 -0.01 0.01 -0.02 0 -0.02 0.01 -0.01 0 -0.02 0.01 -0.01 0 -0.02 0.01 -0.01 0.01 -0.02 0 -0.01 0.01 -0.02 0 -0.01 0.01 -0.02 0.01 -0.01 0.01 -0.02 0 -0.01 0.01 -0.02 0.01 -0.01 0 -0.02 0.01 -0.01 0.01 -0.02 0.01 -0.01 0.01 -0.01 0 -0.02 0.01 -0.01 0.01 -0.13 0zm0.13 0c-0.05,0.03 -0.12,0.02 -0.15,-0.04 -0.04,-0.05 -0.02,-0.12 0.03,-0.15l0.12 0.19zm-0.39 -0.48l0.4 0.3 -0.14 0.18 -0.39 -0.3 0 -0.18 0.13 0zm-0.13 0.18c-0.05,-0.04 -0.06,-0.11 -0.02,-0.16 0.03,-0.04 0.1,-0.05 0.15,-0.02l-0.13 0.18zm-0.34 0.34l-0.17 0.13 0 -0.13 0.01 -0.02 0.01 -0.02 0.02 -0.02 0.01 -0.02 0.02 -0.01 0.01 -0.02 0.01 -0.02 0.02 -0.02 0.01 -0.01 0.02 -0.02 0.01 -0.02 0.02 -0.02 0.02 -0.01 0.01 -0.02 0.02 -0.01 0.01 -0.02 0.02 -0.02 0.02 -0.01 0.01 -0.02 0.02 -0.01 0.02 -0.02 0.01 -0.02 0.02 -0.01 0.02 -0.02 0.01 -0.01 0.02 -0.01 0.02 -0.02 0.02 -0.01 0.02 -0.02 0.01 -0.01 0.02 -0.02 0.02 -0.01 0.13 0.18 -0.02 0.01 -0.01 0.01 -0.02 0.02 -0.01 0.01 -0.02 0.01 -0.02 0.02 -0.01 0.01 -0.02 0.01 -0.01 0.02 -0.02 0.01 -0.02 0.01 -0.01 0.02 -0.02 0.01 -0.01 0.02 -0.02 0.01 -0.01 0.02 -0.01 0.01 -0.02 0.01 -0.01 0.02 -0.02 0.02 -0.01 0.01 -0.02 0.02 -0.01 0.01 -0.01 0.02 -0.02 0.01 -0.01 0.02 -0.01 0.01 -0.02 0.02 -0.01 0.02 -0.01 0.01 -0.01 0.02 -0.02 0.02 0 -0.13zm0 0.13c-0.03,0.05 -0.1,0.06 -0.15,0.02 -0.05,-0.04 -0.06,-0.1 -0.02,-0.15l0.17 0.13zm0.12 0.39l-0.29 -0.39 0.17 -0.13 0.3 0.39 0.01 0.12 -0.19 0.01zm0.18 -0.13c0.04,0.05 0.03,0.12 -0.02,0.15 -0.05,0.04 -0.12,0.03 -0.16,-0.02l0.18 -0.13zm-0.29 0.69l-0.03 -0.22 -0.09 0.09 0 -0.02 0.01 -0.02 0 -0.02 0.01 -0.02 0 -0.01 0.01 -0.02 0 -0.02 0.01 -0.02 0.01 -0.02 0 -0.01 0.01 -0.02 0 -0.02 0.01 -0.02 0.01 -0.01 0.01 -0.02 0 -0.02 0.01 -0.01 0.01 -0.02 0 -0.02 0.01 -0.02 0.01 -0.01 0.01 -0.02 0.01 -0.02 0 -0.01 0.01 -0.02 0.01 -0.02 0.01 -0.01 0.01 -0.02 0.01 -0.01 0.01 -0.02 0.01 -0.02 0.01 -0.01 0.19 0.11 -0.01 0.02 -0.01 0.01 -0.01 0.02 -0.01 0.01 -0.01 0.01 0 0.02 -0.01 0.01 -0.01 0.02 -0.01 0.01 0 0.02 -0.01 0.01 -0.01 0.02 0 0.01 -0.01 0.02 -0.01 0.01 0 0.02 -0.01 0.01 -0.01 0.02 0 0.01 -0.01 0.02 0 0.01 -0.01 0.02 0 0.02 -0.01 0.01 0 0.02 -0.01 0.01 0 0.02 -0.01 0.01 0 0.02 -0.01 0.02 0 0.01 -0.01 0.02 -0.09 0.08zm0.09 -0.08c-0.01,0.06 -0.07,0.1 -0.13,0.08 -0.06,-0.01 -0.09,-0.07 -0.08,-0.13l0.21 0.05zm-0.61 -0.07l0.49 -0.07 0.03 0.22 -0.49 0.07 -0.12 -0.12 0.09 -0.1zm0.03 0.22c-0.06,0.01 -0.11,-0.03 -0.12,-0.09 -0.01,-0.06 0.03,-0.12 0.09,-0.13l0.03 0.22zm0.07 0.24l-0.22 0 0 0 0 -0.01 0 -0.01 0 -0.01 0 -0.02 0 -0.01 0 -0.01 0 -0.01 0 -0.01 0 -0.01 0 -0.01 0 -0.02 0.01 -0.01 0 -0.01 0 -0.01 0 -0.01 0 -0.01 0 -0.01 0 -0.02 0 -0.01 0 -0.01 0 -0.01 0 -0.01 0.01 -0.01 0 -0.01 0 -0.02 0 -0.01 0 -0.01 0 -0.01 0 -0.01 0.01 -0.01 0 -0.01 0 -0.01 0.22 0.03 0 0.01 -0.01 0.01 0 0.01 0 0.01 0 0.01 0 0.01 0 0.01 0 0.01 0 0.01 -0.01 0.01 0 0.01 0 0.01 0 0.01 0 0.01 0 0.01 0 0.01 0 0.01 0 0.01 0 0.01 0 0.02 0 0.01 -0.01 0.01 0 0.01 0 0.01 0 0.01 0 0.01 0 0.01 0 0.01 0 0.01 0 0.01 0 0.01 0 0.01 0 0zm-0.07 0.24l-0.03 0.22 -0.09 -0.1 0 -0.01 0 -0.01 -0.01 -0.01 0 -0.01 0 -0.01 0 -0.01 0 -0.01 0 -0.01 0 -0.02 -0.01 -0.01 0 -0.01 0 -0.01 0 -0.01 0 -0.01 0 -0.01 0 -0.02 0 -0.01 0 -0.01 0 -0.01 0 -0.01 -0.01 -0.01 0 -0.01 0 -0.02 0 -0.01 0 -0.01 0 -0.01 0 -0.01 0 -0.01 0 -0.01 0 -0.02 0 -0.01 0 -0.01 0.22 0 0 0.01 0 0.01 0 0.01 0 0.01 0 0.01 0 0.01 0 0.01 0 0.01 0 0.01 0 0.02 0.01 0.01 0 0.01 0 0.01 0 0.01 0 0.01 0 0.01 0 0.01 0 0.01 0 0.01 0 0.01 0 0.01 0 0.01 0.01 0.01 0 0.01 0 0.01 0 0.01 0 0.01 0 0.01 0 0.01 0 0.01 0.01 0.01 0 0.01 -0.1 -0.09zm0.1 0.09c0.01,0.06 -0.03,0.12 -0.09,0.13 -0.07,0.01 -0.12,-0.04 -0.13,-0.1l0.22 -0.03zm0.36 0.2l-0.49 -0.07 0.03 -0.22 0.49 0.07 0.09 0.08 -0.12 0.14zm0.03 -0.22c0.06,0.01 0.1,0.06 0.1,0.12 -0.01,0.06 -0.07,0.11 -0.13,0.1l0.03 -0.22zm0.29 0.69l-0.18 -0.13 0 0.12 -0.01 -0.01 -0.01 -0.02 -0.01 -0.01 -0.01 -0.02 -0.01 -0.02 -0.01 -0.01 -0.01 -0.02 -0.01 -0.02 0 -0.01 -0.01 -0.02 -0.01 -0.02 -0.01 -0.01 -0.01 -0.02 0 -0.02 -0.01 -0.01 -0.01 -0.02 0 -0.02 -0.01 -0.02 -0.01 -0.01 -0.01 -0.02 0 -0.02 -0.01 -0.02 0 -0.01 -0.01 -0.02 -0.01 -0.02 0 -0.02 -0.01 -0.02 0 -0.01 -0.01 -0.02 0 -0.02 -0.01 -0.02 0 -0.02 0.21 -0.05 0.01 0.02 0 0.01 0.01 0.02 0 0.02 0.01 0.01 0 0.02 0.01 0.01 0 0.02 0.01 0.02 0 0.01 0.01 0.02 0 0.01 0.01 0.02 0 0.01 0.01 0.02 0.01 0.01 0 0.02 0.01 0.01 0.01 0.02 0 0.01 0.01 0.02 0.01 0.01 0 0.02 0.01 0.01 0.01 0.02 0.01 0.01 0 0.02 0.01 0.01 0.01 0.01 0.01 0.02 0.01 0.01 0.01 0.02 -0.01 0.12zm0.01 -0.12c0.03,0.05 0.01,0.12 -0.04,0.15 -0.05,0.03 -0.12,0.01 -0.15,-0.04l0.19 -0.11zm-0.48 0.38l0.29 -0.39 0.18 0.13 -0.3 0.4 -0.17 -0.01 0 -0.13zm0.17 0.14c-0.03,0.04 -0.1,0.05 -0.15,0.02 -0.05,-0.04 -0.06,-0.11 -0.02,-0.16l0.17 0.14zm0.34 0.33l0.13 0.18 -0.13 0 -0.02 -0.01 -0.02 -0.02 -0.01 -0.01 -0.02 -0.02 -0.02 -0.01 -0.02 -0.01 -0.01 -0.02 -0.02 -0.01 -0.02 -0.02 -0.02 -0.01 -0.01 -0.02 -0.02 -0.01 -0.02 -0.02 -0.01 -0.02 -0.02 -0.01 -0.02 -0.02 -0.01 -0.01 -0.02 -0.02 -0.01 -0.02 -0.02 -0.01 -0.02 -0.02 -0.01 -0.02 -0.02 -0.01 -0.01 -0.02 -0.02 -0.02 -0.01 -0.02 -0.01 -0.01 -0.02 -0.02 -0.01 -0.02 -0.02 -0.02 -0.01 -0.02 -0.01 -0.02 0.17 -0.13 0.02 0.02 0.01 0.02 0.01 0.01 0.01 0.02 0.02 0.02 0.01 0.01 0.01 0.02 0.02 0.01 0.01 0.02 0.01 0.02 0.02 0.01 0.01 0.02 0.02 0.01 0.01 0.02 0.02 0.01 0.01 0.02 0.01 0.01 0.02 0.01 0.01 0.02 0.02 0.01 0.01 0.02 0.02 0.01 0.02 0.01 0.01 0.02 0.02 0.01 0.01 0.02 0.02 0.01 0.02 0.01 0.01 0.01 0.02 0.02 0.01 0.01 0.02 0.01 -0.13 0zm0.13 0c0.05,0.04 0.06,0.11 0.03,0.16 -0.04,0.05 -0.11,0.06 -0.16,0.02l0.13 -0.18zm0.4 -0.12l-0.4 0.3 -0.13 -0.18 0.39 -0.29 0.13 -0.01 0.01 0.18zm-0.14 -0.17c0.05,-0.04 0.12,-0.03 0.16,0.02 0.04,0.05 0.03,0.12 -0.02,0.15l-0.14 -0.17zm0.7 0.28l-0.22 0.03 0.08 0.1 -0.02 -0.01 -0.01 0 -0.02 -0.01 -0.02 0 -0.02 -0.01 -0.02 0 -0.01 -0.01 -0.02 0 -0.02 -0.01 -0.02 -0.01 -0.02 0 -0.01 -0.01 -0.02 -0.01 -0.02 0 -0.02 -0.01 -0.01 -0.01 -0.02 0 -0.02 -0.01 -0.01 -0.01 -0.02 -0.01 -0.02 0 -0.01 -0.01 -0.02 -0.01 -0.02 -0.01 -0.01 -0.01 -0.02 -0.01 -0.02 0 -0.01 -0.01 -0.02 -0.01 -0.02 -0.01 -0.01 -0.01 -0.02 -0.01 0.12 -0.19 0.01 0.01 0.02 0.01 0.01 0.01 0.01 0 0.02 0.01 0.01 0.01 0.02 0.01 0.01 0 0.02 0.01 0.01 0.01 0.02 0.01 0.01 0 0.02 0.01 0.01 0.01 0.02 0 0.01 0.01 0.02 0.01 0.01 0 0.02 0.01 0.01 0 0.02 0.01 0.01 0 0.02 0.01 0.02 0.01 0.01 0 0.02 0.01 0.01 0 0.02 0 0.02 0.01 0.01 0 0.02 0.01 0.01 0 0.09 0.09zm-0.09 -0.09c0.06,0.02 0.1,0.08 0.09,0.13 -0.02,0.06 -0.08,0.1 -0.14,0.09l0.05 -0.22zm-0.06 0.61l-0.07 -0.49 0.22 -0.03 0.07 0.49 -0.13 0.13 -0.09 -0.1zm0.22 -0.03c0.01,0.06 -0.04,0.12 -0.1,0.13 -0.06,0.01 -0.11,-0.04 -0.12,-0.1l0.22 -0.03zm0.24 -0.07l0 0.22 0 0 -0.02 0 -0.01 0 -0.01 0 -0.01 0 -0.01 0 -0.01 0 -0.02 0 -0.01 0 -0.01 0 -0.01 0 -0.01 0 -0.01 0 -0.01 0 -0.02 0 -0.01 0 -0.01 0 -0.01 0 -0.01 0 -0.01 -0.01 -0.01 0 -0.02 0 -0.01 0 -0.01 0 -0.01 0 -0.01 0 -0.01 0 -0.01 -0.01 -0.01 0 -0.02 0 -0.01 0 -0.01 0 -0.01 0 0.03 -0.22 0.01 0 0.01 0 0.02 0 0.01 0 0.01 0.01 0.01 0 0.01 0 0.01 0 0.01 0 0.01 0 0.01 0 0.01 0 0.01 0 0.01 0.01 0.01 0 0.01 0 0.01 0 0.01 0 0.01 0 0.01 0 0.01 0 0.01 0 0.01 0 0.01 0 0.01 0 0.01 0 0.01 0 0.01 0 0.01 0 0.01 0 0.01 0 0.02 0 0 0zm0.23 0.13l0.2 -0.08 -0.08 0.15 -0.01 0 -0.02 0 -0.01 0 -0.01 0 -0.01 0.01 -0.01 0 -0.01 0 -0.01 0 -0.01 0 -0.01 0 -0.01 0 -0.01 0 -0.01 0.01 -0.02 0 -0.01 0 -0.01 0 -0.01 0 -0.01 0 -0.01 0 -0.01 0 -0.01 0 -0.01 0 -0.01 0 -0.02 0 -0.01 0 -0.01 0 -0.01 0 -0.01 0 -0.01 0 -0.01 0 -0.01 0 -0.01 0 0 -0.22 0.01 0 0.01 0 0.01 0 0.01 0 0.01 0 0.01 0 0.01 0 0.01 0 0.01 0 0.01 0 0.01 0 0.01 0 0.01 0 0.01 0 0.01 0 0.01 0 0.01 0 0.01 0 0.01 0 0.01 -0.01 0.01 0 0.01 0 0.01 0 0.01 0 0.01 0 0.01 0 0 0 0.01 0 0.01 -0.01 0.01 0 0.01 0 0.01 0 -0.08 0.15zm0.08 -0.15c0.06,-0.01 0.12,0.03 0.13,0.09 0.01,0.06 -0.03,0.12 -0.09,0.13l-0.04 -0.22zm0.11 -0.94l-0.07 -0.21 0.14 0.15 -0.02 0.04 -0.01 0.03 -0.02 0.03 -0.01 0.03 -0.01 0.03 -0.01 0.04 -0.01 0.03 -0.01 0.03 -0.01 0.04 0 0.03 -0.01 0.03 0 0.04 -0.01 0.03 0 0.04 -0.01 0.03 0 0.03 0 0.04 0 0.03 0 0.04 0 0.03 0 0.03 0.01 0.04 0 0.03 0.01 0.04 0 0.03 0.01 0.03 0 0.04 0.01 0.03 0.01 0.03 0.01 0.04 0.01 0.03 0.01 0.03 -0.2 0.08 -0.02 -0.04 -0.01 -0.04 -0.01 -0.04 -0.01 -0.04 -0.01 -0.03 -0.01 -0.04 -0.01 -0.04 0 -0.04 -0.01 -0.04 0 -0.04 -0.01 -0.04 0 -0.04 0 -0.04 0 -0.04 0 -0.04 0 -0.04 0 -0.04 0.01 -0.04 0 -0.04 0.01 -0.04 0 -0.03 0.01 -0.04 0.01 -0.04 0.01 -0.04 0.01 -0.04 0.01 -0.04 0.01 -0.04 0.01 -0.03 0.02 -0.04 0.01 -0.04 0.02 -0.04 0.02 -0.03 0.13 0.15zm-0.13 -0.15c0.02,-0.06 0.09,-0.08 0.15,-0.05 0.05,0.02 0.07,0.09 0.05,0.14l-0.2 -0.09zm-0.29 0.23l0 -0.23 0 0 0.01 0 0.01 0 0.01 0 0.01 0 0.01 0 0.01 0 0.02 0 0.01 0 0.01 0 0.01 0 0.01 0 0.01 0 0.01 -0.01 0.02 0 0.01 0 0.01 0 0.01 0 0.01 -0.01 0.01 0 0.01 0 0.01 0 0.01 -0.01 0.01 0 0.01 0 0.02 0 0.01 -0.01 0.01 0 0.01 0 0.01 -0.01 0.01 0 0.01 0 0.01 -0.01 0.07 0.21 -0.01 0 -0.01 0.01 -0.01 0 -0.02 0.01 -0.01 0 -0.01 0.01 -0.01 0 -0.02 0 -0.01 0.01 -0.01 0 -0.02 0 -0.01 0.01 -0.01 0 -0.02 0 -0.01 0 -0.01 0.01 -0.02 0 -0.01 0 -0.01 0 -0.02 0 -0.01 0.01 -0.02 0 -0.01 0 -0.01 0 -0.02 0 -0.01 0 -0.01 0 -0.02 0 -0.01 0 -0.02 0.01 -0.01 0 -0.01 0 0 0zm-1.26 -1.26l0.22 0 0 0 0 0.05 0.01 0.06 0 0.05 0.01 0.05 0.01 0.05 0.02 0.05 0.01 0.05 0.02 0.04 0.02 0.05 0.03 0.04 0.02 0.05 0.03 0.04 0.03 0.04 0.03 0.04 0.03 0.04 0.03 0.03 0.04 0.04 0.04 0.03 0.04 0.03 0.04 0.03 0.04 0.02 0.04 0.03 0.05 0.02 0.04 0.02 0.05 0.02 0.05 0.02 0.05 0.01 0.05 0.01 0.05 0.01 0.05 0.01 0.05 0 0.06 0 0 0.23 -0.07 -0.01 -0.06 0 -0.07 -0.01 -0.06 -0.01 -0.06 -0.01 -0.06 -0.02 -0.06 -0.02 -0.05 -0.02 -0.06 -0.03 -0.05 -0.03 -0.06 -0.03 -0.05 -0.03 -0.05 -0.03 -0.04 -0.04 -0.05 -0.04 -0.04 -0.04 -0.04 -0.05 -0.04 -0.04 -0.04 -0.05 -0.04 -0.05 -0.03 -0.05 -0.03 -0.05 -0.03 -0.06 -0.02 -0.05 -0.02 -0.06 -0.02 -0.06 -0.02 -0.06 -0.01 -0.06 -0.02 -0.06 0 -0.06 -0.01 -0.07 0 -0.06 0 0zm1.26 -1.25l0 0.22 0 0 -0.06 0 -0.05 0 -0.05 0.01 -0.05 0.01 -0.05 0.01 -0.05 0.01 -0.05 0.02 -0.05 0.02 -0.04 0.02 -0.05 0.02 -0.04 0.03 -0.04 0.02 -0.04 0.03 -0.04 0.03 -0.04 0.04 -0.04 0.03 -0.03 0.04 -0.03 0.03 -0.03 0.04 -0.03 0.04 -0.03 0.04 -0.02 0.05 -0.03 0.04 -0.02 0.05 -0.02 0.04 -0.01 0.05 -0.02 0.05 -0.01 0.05 -0.01 0.05 0 0.05 -0.01 0.06 0 0.05 -0.22 0 0 -0.06 0.01 -0.07 0 -0.06 0.02 -0.06 0.01 -0.06 0.02 -0.06 0.02 -0.06 0.02 -0.06 0.02 -0.05 0.03 -0.06 0.03 -0.05 0.03 -0.05 0.04 -0.05 0.04 -0.05 0.04 -0.04 0.04 -0.05 0.04 -0.04 0.05 -0.04 0.04 -0.04 0.05 -0.03 0.05 -0.03 0.06 -0.03 0.05 -0.03 0.06 -0.03 0.05 -0.02 0.06 -0.02 0.06 -0.02 0.06 -0.01 0.06 -0.01 0.07 -0.01 0.06 0 0.07 0 0 0zm1.25 1.25l-0.22 0 0 0 0 -0.05 -0.01 -0.06 0 -0.05 -0.01 -0.05 -0.01 -0.05 -0.02 -0.05 -0.01 -0.05 -0.02 -0.04 -0.02 -0.05 -0.03 -0.04 -0.02 -0.05 -0.03 -0.04 -0.03 -0.04 -0.03 -0.04 -0.03 -0.03 -0.03 -0.04 -0.04 -0.03 -0.04 -0.04 -0.04 -0.03 -0.04 -0.03 -0.04 -0.02 -0.04 -0.03 -0.05 -0.02 -0.04 -0.02 -0.05 -0.02 -0.05 -0.02 -0.05 -0.01 -0.05 -0.01 -0.05 -0.01 -0.05 -0.01 -0.05 0 -0.05 0 0 -0.22 0.06 0 0.06 0 0.07 0.01 0.06 0.01 0.06 0.01 0.06 0.02 0.06 0.02 0.05 0.02 0.06 0.03 0.05 0.03 0.06 0.03 0.05 0.03 0.05 0.03 0.04 0.04 0.05 0.04 0.04 0.04 0.04 0.05 0.04 0.04 0.04 0.05 0.04 0.05 0.03 0.05 0.03 0.05 0.03 0.06 0.02 0.05 0.02 0.06 0.02 0.06 0.02 0.06 0.01 0.06 0.02 0.06 0 0.06 0.01 0.07 0 0.06 0 0zm-0.23 0.3l0.1 0.2 -0.15 -0.14 0 -0.01 0 -0.01 0.01 -0.01 0 -0.01 0 -0.01 0.01 -0.01 0 -0.02 0 -0.01 0.01 -0.01 0 -0.01 0 -0.01 0 -0.01 0.01 -0.01 0 -0.01 0 -0.01 0 -0.01 0 -0.02 0.01 -0.01 0 -0.01 0 -0.01 0 -0.01 0 -0.01 0 -0.01 0 -0.02 0.01 -0.01 0 -0.01 0 -0.01 0 -0.01 0 -0.01 0 -0.02 0 -0.01 0 -0.01 0.22 0 0 0.01 0 0.02 0 0.01 0 0.02 0 0.01 0 0.02 0 0.01 0 0.01 -0.01 0.02 0 0.01 0 0.02 0 0.01 0 0.01 -0.01 0.02 0 0.01 0 0.01 0 0.02 -0.01 0.01 0 0.02 0 0.01 0 0.01 -0.01 0.02 0 0.01 0 0.01 -0.01 0.02 0 0.01 -0.01 0.01 0 0.01 0 0.02 -0.01 0.01 0 0.01 -0.01 0.02 -0.15 -0.14zm0.15 0.14c-0.02,0.05 -0.08,0.08 -0.14,0.06 -0.06,-0.02 -0.09,-0.08 -0.06,-0.14l0.2 0.08zm0.94 -0.11l0.22 0.03 -0.15 0.09 -0.03 -0.01 -0.03 -0.01 -0.03 -0.01 -0.04 -0.01 -0.03 -0.01 -0.03 -0.01 -0.04 0 -0.03 -0.01 -0.04 0 -0.03 -0.01 -0.03 0 -0.04 0 -0.03 0 -0.04 -0.01 -0.03 0 -0.03 0.01 -0.04 0 -0.03 0 -0.04 0 -0.03 0.01 -0.03 0 -0.04 0.01 -0.03 0.01 -0.03 0 -0.04 0.01 -0.03 0.01 -0.03 0.01 -0.04 0.01 -0.03 0.02 -0.03 0.01 -0.03 0.01 -0.03 0.02 -0.1 -0.2 0.04 -0.02 0.03 -0.01 0.04 -0.02 0.04 -0.01 0.04 -0.02 0.04 -0.01 0.03 -0.01 0.04 -0.01 0.04 -0.01 0.04 -0.01 0.04 0 0.04 -0.01 0.04 -0.01 0.04 0 0.04 0 0.04 -0.01 0.04 0 0.04 0 0.04 0 0.03 0.01 0.04 0 0.04 0 0.04 0.01 0.04 0 0.04 0.01 0.04 0.01 0.04 0.01 0.04 0.01 0.04 0.01 0.04 0.01 0.03 0.01 0.04 0.01 -0.15 0.09zm0.15 -0.09c0.06,0.03 0.09,0.09 0.07,0.15 -0.03,0.05 -0.09,0.08 -0.15,0.06l0.08 -0.21zm-0.12 -0.24l0.22 0 0 0 0 0.01 0 0.01 0 0.02 0 0.01 0 0.01 0 0.01 0 0.01 0 0.01 0 0.01 0 0.02 0 0.01 0 0.01 -0.01 0.01 0 0.01 0 0.01 0 0.01 0 0.02 0 0.01 0 0.01 0 0.01 0 0.01 0 0.01 -0.01 0.01 0 0.01 0 0.02 0 0.01 0 0.01 0 0.01 0 0.01 -0.01 0.01 0 0.01 0 0.01 -0.22 -0.03 0 -0.01 0.01 -0.01 0 -0.01 0 -0.01 0 -0.01 0 -0.01 0 -0.01 0 -0.01 0 -0.01 0.01 -0.01 0 -0.01 0 -0.01 0 -0.01 0 -0.01 0 -0.01 0 -0.01 0 -0.01 0 -0.01 0 -0.01 0 -0.01 0.01 -0.01 0 -0.01 0 -0.02 0 -0.01 0 -0.01 0 -0.01 0 -0.01 0 -0.01 0 -0.01 0 -0.01 0 -0.01 0 -0.01 0 0zm0.07 -0.24l0.03 -0.22 0.09 0.1 0 0.01 0 0.01 0.01 0.01 0 0.01 0 0.01 0 0.01 0 0.01 0 0.02 0 0.01 0.01 0.01 0 0.01 0 0.01 0 0.01 0 0.01 0 0.02 0 0.01 0 0.01 0 0.01 0 0.01 0.01 0.01 0 0.01 0 0.02 0 0.01 0 0.01 0 0.01 0 0.01 0 0.01 0 0.01 0 0.02 0 0.01 0 0.01 0 0.01 -0.22 0 0 -0.01 0 -0.01 0 -0.01 0 -0.01 0 -0.01 0 -0.01 0 -0.01 0 -0.01 0 -0.01 0 -0.01 0 -0.01 -0.01 -0.02 0 -0.01 0 -0.01 0 -0.01 0 -0.01 0 -0.01 0 -0.01 0 -0.01 0 -0.01 0 -0.01 0 -0.01 -0.01 -0.01 0 -0.01 0 -0.01 0 -0.01 0 -0.01 0 -0.01 0 -0.01 0 -0.01 -0.01 -0.01 0 -0.01 0.1 0.09zm-0.1 -0.09c-0.01,-0.06 0.03,-0.12 0.1,-0.13 0.06,-0.01 0.11,0.04 0.12,0.1l-0.22 0.03zm-0.36 -0.2l0.49 0.07 -0.03 0.22 -0.49 -0.07 -0.09 -0.08 0.12 -0.14zm-0.03 0.22c-0.06,-0.01 -0.1,-0.06 -0.1,-0.12 0.01,-0.06 0.07,-0.1 0.13,-0.1l-0.03 0.22zm-0.29 -0.69l0.18 0.13 0 -0.12 0.01 0.01 0.01 0.02 0.01 0.02 0.01 0.01 0.01 0.02 0.01 0.01 0.01 0.02 0.01 0.02 0 0.01 0.01 0.02 0.01 0.02 0.01 0.01 0.01 0.02 0 0.02 0.01 0.02 0.01 0.01 0.01 0.02 0 0.02 0.01 0.01 0.01 0.02 0 0.02 0.01 0.02 0 0.01 0.01 0.02 0.01 0.02 0 0.02 0.01 0.02 0 0.01 0.01 0.02 0 0.02 0.01 0.02 0 0.02 -0.21 0.05 -0.01 -0.02 0 -0.01 -0.01 -0.02 0 -0.02 -0.01 -0.01 0 -0.02 -0.01 -0.01 0 -0.02 -0.01 -0.01 0 -0.02 -0.01 -0.02 0 -0.01 -0.01 -0.02 0 -0.01 -0.01 -0.02 -0.01 -0.01 0 -0.02 -0.01 -0.01 -0.01 -0.02 0 -0.01 -0.01 -0.02 -0.01 -0.01 0 -0.02 -0.01 -0.01 -0.01 -0.02 -0.01 -0.01 0 -0.02 -0.01 -0.01 -0.01 -0.01 -0.01 -0.02 -0.01 -0.01 -0.01 -0.02 0.01 -0.12zm-0.01 0.12c-0.03,-0.05 -0.01,-0.12 0.04,-0.15 0.05,-0.03 0.12,-0.01 0.15,0.04l-0.19 0.11zm0.48 -0.38l-0.29 0.39 -0.18 -0.13 0.3 -0.39 0.17 0 0 0.13zm-0.17 -0.13c0.03,-0.05 0.1,-0.06 0.15,-0.03 0.05,0.04 0.06,0.11 0.02,0.16l-0.17 -0.13zm-0.34 -0.34l-0.13 -0.18 0.13 0 0.02 0.01 0.02 0.02 0.01 0.01 0.02 0.02 0.02 0.01 0.02 0.02 0.02 0.01 0.01 0.01 0.02 0.02 0.02 0.01 0.01 0.02 0.02 0.02 0.02 0.01 0.01 0.02 0.02 0.01 0.02 0.02 0.01 0.02 0.02 0.01 0.01 0.02 0.02 0.01 0.02 0.02 0.01 0.02 0.02 0.02 0.01 0.01 0.02 0.02 0.01 0.02 0.01 0.02 0.02 0.01 0.01 0.02 0.02 0.02 0.01 0.02 0.01 0.02 -0.17 0.13 -0.02 -0.02 -0.01 -0.02 -0.01 -0.01 -0.01 -0.02 -0.02 -0.02 -0.01 -0.01 -0.01 -0.02 -0.02 -0.01 -0.01 -0.02 -0.01 -0.01 -0.02 -0.02 -0.01 -0.02 -0.02 -0.01 -0.01 -0.02 -0.02 -0.01 -0.01 -0.01 -0.01 -0.02 -0.02 -0.01 -0.01 -0.02 -0.02 -0.01 -0.01 -0.02 -0.02 -0.01 -0.02 -0.01 -0.01 -0.02 -0.02 -0.01 -0.01 -0.01 -0.02 -0.02 -0.02 -0.01 -0.01 -0.01 -0.02 -0.02 -0.01 -0.01 -0.02 -0.01 0.13 0zm-0.13 0c-0.05,-0.04 -0.06,-0.11 -0.03,-0.15 0.04,-0.05 0.11,-0.06 0.16,-0.03l-0.13 0.18zm-0.4 0.12l0.4 -0.3 0.13 0.18 -0.39 0.3 -0.13 0 -0.01 -0.18zm0.14 0.18c-0.05,0.03 -0.12,0.02 -0.16,-0.03 -0.04,-0.05 -0.03,-0.12 0.02,-0.15l0.14 0.18zm-0.7 -0.29l0.22 -0.03 -0.08 -0.1 0.02 0.01 0.01 0 0.02 0.01 0.02 0 0.02 0.01 0.02 0 0.02 0.01 0.01 0.01 0.02 0 0.02 0.01 0.02 0 0.01 0.01 0.02 0.01 0.02 0 0.02 0.01 0.01 0.01 0.02 0 0.02 0.01 0.01 0.01 0.02 0.01 0.02 0.01 0.02 0 0.01 0.01 0.02 0.01 0.01 0.01 0.02 0.01 0.02 0.01 0.01 0.01 0.02 0 0.02 0.01 0.01 0.01 0.02 0.01 -0.12 0.19 -0.01 -0.01 -0.02 -0.01 -0.01 0 -0.01 -0.01 -0.02 -0.01 -0.01 -0.01 -0.02 -0.01 -0.01 0 -0.02 -0.01 -0.01 -0.01 -0.02 0 -0.01 -0.01 -0.02 -0.01 -0.01 -0.01 -0.02 0 -0.01 -0.01 -0.02 0 -0.01 -0.01 -0.02 -0.01 -0.01 0 -0.02 -0.01 -0.01 0 -0.02 -0.01 -0.02 0 -0.01 -0.01 -0.02 0 -0.01 -0.01 -0.02 0 -0.02 -0.01 -0.01 0 -0.02 -0.01 -0.01 0 -0.09 -0.09zm0.09 0.09c-0.06,-0.01 -0.1,-0.07 -0.09,-0.13 0.02,-0.06 0.08,-0.1 0.14,-0.09l-0.05 0.22zm0.06 -0.61l0.07 0.49 -0.22 0.03 -0.07 -0.49 0.13 -0.13 0.09 0.1zm-0.22 0.03c-0.01,-0.06 0.04,-0.12 0.1,-0.13 0.06,0 0.11,0.04 0.12,0.1l-0.22 0.03zm-0.23 0.07l0 -0.22 0 0 0.01 0 0.01 0 0.01 0 0.01 0 0.01 0 0.01 0 0.02 0 0.01 0 0.01 0 0.01 0 0.01 0 0.01 0 0.01 0 0.02 0 0.01 0 0.01 0 0.01 0 0.01 0.01 0.01 0 0.01 0 0.02 0 0.01 0 0.01 0 0.01 0 0.01 0 0.01 0 0.01 0.01 0.01 0 0.02 0 0.01 0 0.01 0 0.01 0 -0.03 0.22 -0.01 0 -0.01 0 -0.01 0 -0.02 0 -0.01 0 -0.01 -0.01 -0.01 0 -0.01 0 -0.01 0 -0.01 0 -0.01 0 -0.01 0 -0.01 0 -0.01 0 -0.01 -0.01 -0.01 0 -0.01 0 -0.01 0 -0.01 0 -0.01 0 -0.01 0 -0.01 0 -0.01 0 -0.01 0 -0.01 0 -0.01 0 -0.01 0 -0.01 0 -0.01 0 -0.01 0 -0.01 0 -0.01 0 0 0z"/>
   </g>
   <g>
    <path class="fil1" d="M4.63 4.31l0 0 0 0.22 0 0 -0.08 -0.18 0.08 -0.04zm0.08 1.47l-0.16 0.15 0 0 -0.04 -0.04 -0.04 -0.04 -0.03 -0.05 -0.03 -0.04 -0.03 -0.05 -0.03 -0.05 -0.02 -0.05 -0.02 -0.05 -0.02 -0.05 -0.02 -0.05 -0.01 -0.05 -0.02 -0.06 0 -0.05 -0.01 -0.05 0 -0.06 -0.01 -0.05 0.01 -0.05 0 -0.06 0.01 -0.05 0 -0.05 0.02 -0.06 0.01 -0.05 0.02 -0.05 0.02 -0.05 0.02 -0.05 0.02 -0.05 0.03 -0.05 0.03 -0.05 0.03 -0.04 0.03 -0.05 0.04 -0.04 0.04 -0.04 0.16 0.15 -0.03 0.04 -0.03 0.03 -0.03 0.04 -0.03 0.03 -0.02 0.04 -0.02 0.04 -0.02 0.04 -0.02 0.04 -0.01 0.04 -0.02 0.04 -0.01 0.04 -0.01 0.05 -0.01 0.04 0 0.04 0 0.05 0 0.04 0 0.04 0 0.05 0 0.04 0.01 0.04 0.01 0.04 0.01 0.05 0.02 0.04 0.01 0.04 0.02 0.04 0.02 0.04 0.02 0.04 0.02 0.04 0.03 0.03 0.03 0.04 0.03 0.03 0.03 0.04 0 0zm0.56 0.87l-0.72 -0.72 0.16 -0.15 0.71 0.71 0 0.16 -0.15 0zm0.15 -0.16c0.05,0.04 0.05,0.11 0,0.16 -0.04,0.04 -0.11,0.04 -0.15,0l0.15 -0.16zm0.72 -0.56l-0.72 0.72 -0.15 -0.16 0.71 -0.71 0 0 0.16 0.15zm-0.08 -1.4l0 -0.22 0.08 0.04 0.04 0.04 0.03 0.04 0.04 0.05 0.03 0.04 0.03 0.05 0.03 0.05 0.02 0.05 0.02 0.05 0.02 0.05 0.02 0.05 0.01 0.05 0.02 0.06 0 0.05 0.01 0.05 0 0.06 0.01 0.05 -0.01 0.05 0 0.06 -0.01 0.05 0 0.05 -0.02 0.06 -0.01 0.05 -0.02 0.05 -0.02 0.05 -0.02 0.05 -0.02 0.05 -0.03 0.05 -0.03 0.05 -0.03 0.04 -0.04 0.05 -0.03 0.04 -0.04 0.04 -0.16 -0.15 0.03 -0.04 0.03 -0.03 0.03 -0.04 0.03 -0.03 0.02 -0.04 0.02 -0.04 0.02 -0.04 0.02 -0.04 0.01 -0.04 0.02 -0.04 0.01 -0.05 0.01 -0.04 0.01 -0.04 0 -0.04 0 -0.05 0 -0.04 0 -0.04 0 -0.05 0 -0.04 -0.01 -0.04 -0.01 -0.05 -0.01 -0.04 -0.02 -0.04 -0.01 -0.04 -0.02 -0.04 -0.02 -0.04 -0.02 -0.04 -0.02 -0.04 -0.03 -0.03 -0.03 -0.04 -0.03 -0.03 -0.03 -0.04 0.08 0.03zm0 -0.22l0 0 0 0.22 0 0 -0.08 -0.03 0.08 -0.19zm-1.43 0.22l0 -0.22 -0.08 0.04 0.04 -0.04 0.05 -0.04 0.04 -0.04 0.05 -0.03 0.04 -0.03 0.05 -0.02 0.05 -0.03 0.05 -0.02 0.05 -0.02 0.06 -0.02 0.05 -0.01 0.05 -0.01 0.05 -0.01 0.06 -0.01 0.05 0 0.05 0 0.06 0 0.05 0 0.06 0.01 0.05 0.01 0.05 0.01 0.05 0.01 0.06 0.02 0.05 0.02 0.05 0.02 0.05 0.03 0.05 0.02 0.04 0.03 0.05 0.03 0.04 0.04 0.05 0.04 0.04 0.04 -0.16 0.15 -0.03 -0.03 -0.04 -0.03 -0.03 -0.03 -0.04 -0.02 -0.04 -0.03 -0.04 -0.02 -0.04 -0.02 -0.04 -0.01 -0.04 -0.02 -0.04 -0.01 -0.04 -0.01 -0.04 -0.01 -0.05 -0.01 -0.04 -0.01 -0.04 0 -0.05 0 -0.04 0 -0.04 0 -0.04 0.01 -0.05 0.01 -0.04 0.01 -0.04 0.01 -0.04 0.01 -0.04 0.02 -0.05 0.01 -0.03 0.02 -0.04 0.02 -0.04 0.03 -0.04 0.02 -0.03 0.03 -0.04 0.03 -0.03 0.03 -0.08 0.03z"/>
   </g>
   <g>
    <path class="fil1" d="M4.98 5.14l-0.23 0 0 0 0.01 -0.03 0 -0.03 0 -0.03 0.01 -0.03 0 -0.03 0.01 -0.03 0.01 -0.02 0.01 -0.03 0.01 -0.03 0.02 -0.02 0.01 -0.03 0.02 -0.02 0.01 -0.02 0.02 -0.03 0.02 -0.02 0.02 -0.02 0.02 -0.02 0.02 -0.02 0.02 -0.01 0.02 -0.02 0.03 -0.02 0.02 -0.01 0.03 -0.01 0.03 -0.01 0.02 -0.02 0.03 0 0.03 -0.01 0.03 -0.01 0.03 0 0.02 -0.01 0.03 0 0.03 0 0 0.22 -0.01 0 -0.02 0 -0.02 0 -0.02 0.01 -0.02 0 -0.02 0.01 -0.01 0 -0.02 0.01 -0.02 0.01 -0.01 0 -0.02 0.01 -0.01 0.01 -0.02 0.01 -0.01 0.01 -0.01 0.02 -0.02 0.01 -0.01 0.01 -0.01 0.01 -0.01 0.02 -0.01 0.01 -0.01 0.02 -0.01 0.01 -0.01 0.02 -0.01 0.02 0 0.01 -0.01 0.02 0 0.02 -0.01 0.01 0 0.02 0 0.02 0 0.02 0 0.02 0 0zm0.36 0.37l0 0.22 0 0 -0.03 0 -0.03 0 -0.02 -0.01 -0.03 0 -0.03 -0.01 -0.03 -0.01 -0.03 -0.01 -0.02 -0.01 -0.03 -0.01 -0.03 -0.01 -0.02 -0.02 -0.03 -0.01 -0.02 -0.02 -0.02 -0.02 -0.02 -0.01 -0.02 -0.02 -0.02 -0.02 -0.02 -0.03 -0.02 -0.02 -0.01 -0.02 -0.02 -0.02 -0.01 -0.03 -0.02 -0.02 -0.01 -0.03 -0.01 -0.03 -0.01 -0.03 -0.01 -0.02 0 -0.03 -0.01 -0.03 0 -0.03 0 -0.03 -0.01 -0.03 0.23 0 0 0.02 0 0.02 0 0.02 0 0.01 0.01 0.02 0 0.02 0.01 0.02 0 0.01 0.01 0.02 0.01 0.02 0.01 0.01 0.01 0.02 0.01 0.01 0.01 0.01 0.01 0.02 0.01 0.01 0.02 0.01 0.01 0.01 0.01 0.02 0.02 0.01 0.01 0.01 0.02 0 0.01 0.01 0.02 0.01 0.02 0.01 0.01 0 0.02 0.01 0.02 0 0.02 0 0.02 0.01 0.02 0 0.01 0 0 0zm0.37 -0.37l0.23 0 0 0 -0.01 0.03 0 0.03 0 0.03 -0.01 0.03 0 0.03 -0.01 0.02 -0.01 0.03 -0.01 0.03 -0.01 0.03 -0.02 0.02 -0.01 0.03 -0.02 0.02 -0.01 0.02 -0.02 0.02 -0.02 0.03 -0.02 0.02 -0.02 0.02 -0.02 0.01 -0.02 0.02 -0.02 0.02 -0.03 0.01 -0.02 0.02 -0.03 0.01 -0.03 0.01 -0.02 0.01 -0.03 0.01 -0.03 0.01 -0.03 0.01 -0.03 0 -0.02 0.01 -0.03 0 -0.04 0 0 -0.22 0.02 0 0.02 0 0.02 -0.01 0.02 0 0.02 0 0.01 -0.01 0.02 0 0.02 -0.01 0.02 -0.01 0.01 -0.01 0.02 0 0.01 -0.01 0.02 -0.01 0.01 -0.02 0.01 -0.01 0.02 -0.01 0.01 -0.01 0.01 -0.02 0.01 -0.01 0.01 -0.01 0.01 -0.02 0.01 -0.01 0.01 -0.02 0.01 -0.02 0 -0.01 0.01 -0.02 0 -0.02 0.01 -0.02 0 -0.01 0 -0.02 0 -0.02 0 -0.02 0 0zm-0.37 -0.37l0 -0.22 0 0 0.04 0 0.03 0 0.02 0.01 0.03 0 0.03 0.01 0.03 0.01 0.03 0 0.02 0.02 0.03 0.01 0.03 0.01 0.02 0.01 0.03 0.02 0.02 0.02 0.02 0.01 0.02 0.02 0.02 0.02 0.02 0.02 0.02 0.02 0.02 0.03 0.01 0.02 0.02 0.02 0.01 0.03 0.02 0.02 0.01 0.03 0.01 0.03 0.01 0.02 0.01 0.03 0 0.03 0.01 0.03 0 0.03 0 0.03 0.01 0.03 -0.23 0 0 -0.02 0 -0.02 0 -0.02 0 -0.02 -0.01 -0.01 0 -0.02 -0.01 -0.02 0 -0.01 -0.01 -0.02 -0.01 -0.02 -0.01 -0.01 -0.01 -0.02 -0.01 -0.01 -0.01 -0.02 -0.01 -0.01 -0.01 -0.01 -0.02 -0.01 -0.01 -0.02 -0.01 -0.01 -0.02 -0.01 -0.01 -0.01 -0.02 -0.01 -0.01 0 -0.02 -0.01 -0.02 -0.01 -0.02 0 -0.01 -0.01 -0.02 0 -0.02 -0.01 -0.02 0 -0.02 0 -0.02 0 0 0z"/>
   </g>
  </g>
 </g>
</svg>
