<?xml version="1.0" encoding="UTF-8"?>
<!DOCTYPE svg PUBLIC "-//W3C//DTD SVG 1.1//EN" "http://www.w3.org/Graphics/SVG/1.1/DTD/svg11.dtd">
<!-- Creator: CorelDRAW 2018 (64-Bit) -->
<svg xmlns="http://www.w3.org/2000/svg" xml:space="preserve" width="100px" height="100px" version="1.1" style="shape-rendering:geometricPrecision; text-rendering:geometricPrecision; image-rendering:optimizeQuality; fill-rule:evenodd; clip-rule:evenodd"
viewBox="0 0 7.74 7.74"
 xmlns:xlink="http://www.w3.org/1999/xlink">
 <defs>
  <style type="text/css">
   <![CDATA[
    .str0 {stroke:#FEFEFE;stroke-width:0.22;stroke-linecap:round;stroke-linejoin:round;stroke-miterlimit:22.9256}
    .fil1 {fill:none}
    .fil0 {fill:#198FD9}
    .fil2 {fill:#FEFEFE;fill-rule:nonzero}
   ]]>
  </style>
 </defs>
 <g id="Слой_x0020_1">
  <metadata id="CorelCorpID_0Corel-Layer"/>
  <circle class="fil0" cx="3.87" cy="3.87" r="3.87"/>
  <g id="_3053986773120">
   <g>
    <circle class="fil1 str0" cx="3.87" cy="3.02" r="0.44"/>
    <path class="fil1 str0" d="M3.87 1.98c-0.05,0 -0.1,0.01 -0.15,0.01 -0.03,0.01 -0.06,0.03 -0.07,0.06l-0.02 0.07c-0.01,0.05 -0.05,0.08 -0.09,0.1 -0.05,0.02 -0.1,0.02 -0.14,0l-0.06 -0.04c-0.03,-0.01 -0.07,-0.01 -0.09,0.01 -0.08,0.06 -0.15,0.13 -0.21,0.21 -0.02,0.02 -0.02,0.06 -0.01,0.09l0.03 0.06c0.03,0.04 0.03,0.09 0.01,0.14 -0.02,0.05 -0.05,0.08 -0.1,0.09l-0.07 0.02c-0.03,0.01 -0.05,0.04 -0.06,0.07 0,0.05 -0.01,0.1 -0.01,0.15 0,0.05 0.01,0.1 0.01,0.14 0.01,0.04 0.03,0.06 0.06,0.07l0.07 0.02c0.05,0.02 0.08,0.05 0.1,0.1 0.02,0.04 0.02,0.09 -0.01,0.14l-0.03 0.06c-0.01,0.03 -0.01,0.06 0.01,0.09 0.06,0.08 0.12,0.15 0.2,0.21 0.03,0.02 0.06,0.02 0.09,0l0.07 -0.03c0.04,-0.03 0.09,-0.03 0.14,-0.01 0.04,0.02 0.08,0.06 0.09,0.11l0.02 0.07c0.01,0.03 0.04,0.05 0.07,0.06 0.05,0 0.1,0.01 0.15,0.01 0.05,0 0.09,-0.01 0.14,-0.01 0.03,-0.01 0.06,-0.03 0.07,-0.06l0.02 -0.07c0.01,-0.05 0.05,-0.09 0.09,-0.11 0.05,-0.02 0.1,-0.02 0.15,0.01l0.06 0.03c0.03,0.02 0.07,0.02 0.09,0 0.08,-0.06 0.15,-0.13 0.21,-0.21 0.02,-0.02 0.02,-0.06 0,-0.08l-0.03 -0.07c-0.03,-0.05 -0.03,-0.1 -0.01,-0.14 0.02,-0.05 0.06,-0.08 0.1,-0.1l0.08 -0.02c0.03,-0.01 0.05,-0.04 0.05,-0.07 0.01,-0.05 0.01,-0.09 0.01,-0.14 0,-0.05 0,-0.1 -0.01,-0.15 0,-0.03 -0.02,-0.06 -0.05,-0.06l-0.08 -0.03c-0.04,-0.01 -0.08,-0.04 -0.1,-0.09 -0.02,-0.05 -0.02,-0.1 0.01,-0.14l0.03 -0.07c0.02,-0.03 0.01,-0.06 -0.01,-0.09 -0.06,-0.07 -0.12,-0.14 -0.2,-0.2 -0.03,-0.02 -0.06,-0.02 -0.09,-0.01l-0.06 0.04c-0.05,0.02 -0.1,0.02 -0.15,0 -0.04,-0.02 -0.08,-0.05 -0.09,-0.1l-0.02 -0.07c-0.01,-0.03 -0.04,-0.05 -0.07,-0.06 -0.05,0 -0.09,-0.01 -0.14,-0.01z"/>
   </g>
   <g>
    <path class="fil2" d="M5.41 2.55c-0.06,0.01 -0.12,-0.02 -0.13,-0.08 -0.02,-0.06 0.02,-0.12 0.07,-0.13l0.06 0.21zm1.2 -0.09l-0.19 0.11 0 0 -0.01 -0.01 0 -0.01 -0.01 -0.01 -0.01 -0.01 -0.02 -0.01 -0.01 -0.01 -0.02 0 -0.01 -0.01 -0.02 -0.01 -0.02 -0.01 -0.03 0 -0.02 -0.01 -0.03 -0.01 -0.02 0 -0.03 0 -0.04 -0.01 -0.03 0 -0.03 0 -0.04 0 -0.04 0 -0.04 0.01 -0.04 0 -0.04 0 -0.05 0.01 -0.04 0 -0.05 0.01 -0.05 0.01 -0.05 0.01 -0.05 0.01 -0.05 0.01 -0.05 0.02 -0.06 0.01 -0.06 -0.21 0.06 -0.02 0.06 -0.01 0.05 -0.02 0.06 -0.01 0.05 -0.01 0.05 -0.01 0.05 0 0.05 -0.01 0.05 -0.01 0.05 0 0.05 -0.01 0.04 0 0.04 0 0.05 0 0.04 0 0.04 0 0.04 0.01 0.04 0 0.03 0.01 0.04 0 0.03 0.01 0.04 0.01 0.03 0.01 0.03 0.02 0.03 0.01 0.03 0.02 0.02 0.01 0.03 0.02 0.02 0.03 0.02 0.02 0.02 0.03 0.02 0.02 0 0zm-2.25 2.44l-0.11 -0.19 0 0 0.13 -0.08 0.14 -0.08 0.12 -0.08 0.13 -0.08 0.12 -0.08 0.12 -0.08 0.11 -0.09 0.12 -0.08 0.1 -0.08 0.11 -0.08 0.09 -0.08 0.1 -0.08 0.09 -0.08 0.08 -0.08 0.08 -0.08 0.08 -0.08 0.07 -0.07 0.07 -0.07 0.06 -0.07 0.05 -0.07 0.05 -0.07 0.04 -0.07 0.04 -0.06 0.03 -0.06 0.02 -0.05 0.02 -0.05 0.01 -0.05 0.01 -0.04 0 -0.04 0 -0.03 -0.01 -0.02 -0.01 -0.03 0.19 -0.11 0.03 0.06 0.02 0.06 0 0.07 0 0.06 -0.01 0.07 -0.02 0.07 -0.02 0.06 -0.03 0.07 -0.04 0.07 -0.04 0.07 -0.05 0.08 -0.05 0.07 -0.06 0.07 -0.07 0.08 -0.07 0.08 -0.07 0.08 -0.08 0.08 -0.08 0.08 -0.09 0.08 -0.1 0.08 -0.09 0.09 -0.11 0.08 -0.1 0.08 -0.11 0.09 -0.12 0.08 -0.11 0.09 -0.12 0.08 -0.13 0.08 -0.13 0.09 -0.13 0.08 -0.13 0.08 -0.14 0.08 0 0zm-3.23 0.73l0.19 -0.11 0 0 0.01 0.02 0.02 0.02 0.03 0.02 0.03 0.02 0.04 0.01 0.04 0.01 0.06 0.01 0.06 0.01 0.06 0 0.07 0 0.08 0 0.08 -0.01 0.09 -0.01 0.09 -0.02 0.1 -0.02 0.1 -0.02 0.1 -0.03 0.11 -0.03 0.11 -0.04 0.11 -0.04 0.12 -0.04 0.12 -0.04 0.12 -0.05 0.13 -0.05 0.12 -0.06 0.13 -0.06 0.13 -0.06 0.13 -0.06 0.14 -0.07 0.13 -0.07 0.13 -0.07 0.14 -0.08 0.11 0.19 -0.14 0.08 -0.13 0.07 -0.14 0.08 -0.14 0.07 -0.13 0.06 -0.13 0.06 -0.14 0.06 -0.13 0.06 -0.12 0.05 -0.13 0.05 -0.12 0.05 -0.12 0.04 -0.12 0.04 -0.12 0.04 -0.11 0.03 -0.11 0.03 -0.1 0.03 -0.11 0.02 -0.09 0.01 -0.1 0.02 -0.09 0.01 -0.09 0 -0.08 0 -0.08 0 -0.07 -0.01 -0.07 -0.01 -0.07 -0.02 -0.06 -0.02 -0.06 -0.03 -0.05 -0.04 -0.05 -0.05 -0.03 -0.05 0 0zm0.32 -0.94l0.16 0.14 -0.02 0.04 -0.03 0.03 -0.02 0.03 -0.02 0.03 -0.03 0.03 -0.02 0.03 -0.02 0.03 -0.02 0.02 -0.01 0.03 -0.02 0.03 -0.01 0.03 -0.02 0.02 -0.01 0.03 -0.01 0.02 -0.01 0.02 -0.01 0.03 -0.01 0.02 -0.01 0.02 0 0.02 -0.01 0.02 0 0.02 0 0.01 0 0.02 0 0.02 0 0.01 0 0.02 0 0.01 0 0.01 0 0.01 0.01 0.01 0 0.01 0.01 0.01 -0.19 0.11 -0.02 -0.02 -0.01 -0.03 -0.01 -0.02 0 -0.03 -0.01 -0.03 0 -0.02 -0.01 -0.03 0 -0.03 0.01 -0.02 0 -0.03 0 -0.03 0.01 -0.03 0 -0.03 0.01 -0.03 0.01 -0.02 0.01 -0.03 0.01 -0.03 0.02 -0.03 0.01 -0.03 0.02 -0.03 0.01 -0.03 0.02 -0.03 0.02 -0.03 0.02 -0.04 0.02 -0.03 0.02 -0.03 0.02 -0.03 0.03 -0.03 0.02 -0.04 0.03 -0.03 0.03 -0.03 0.03 -0.04zm-0.02 -0.41l0.17 0.14 0 0 0 0.01 -0.01 0.01 0 0 -0.01 0.01 0 0.01 0 0.01 -0.01 0 0 0.01 0 0.01 0 0.01 0 0 -0.01 0.01 0 0.01 0 0.01 0 0.01 0 0 0 0.01 0.01 0.01 0 0.01 0 0.01 0 0 0 0.01 0.01 0.01 0 0.01 0 0 0.01 0.01 0 0.01 0.01 0 0 0.01 0.01 0.01 0 0 0.01 0.01 -0.14 0.17 -0.02 -0.02 -0.01 -0.01 -0.01 -0.02 -0.02 -0.01 -0.01 -0.02 -0.01 -0.01 -0.01 -0.02 -0.01 -0.02 0 -0.01 -0.01 -0.02 -0.01 -0.02 0 -0.02 -0.01 -0.01 0 -0.02 0 -0.02 -0.01 -0.02 0 -0.02 0 -0.02 0 -0.01 0 -0.02 0.01 -0.02 0 -0.02 0 -0.02 0.01 -0.02 0.01 -0.01 0 -0.02 0.01 -0.02 0.01 -0.02 0.01 -0.01 0.01 -0.02 0.01 -0.01 0.01 -0.02 0 0zm0.55 -0.04l-0.14 0.16 0 0 -0.01 0 -0.01 -0.01 0 0 -0.01 0 -0.01 -0.01 -0.01 0 0 0 -0.01 -0.01 -0.01 0 -0.01 0 0 0 -0.01 0 -0.01 0 -0.01 -0.01 -0.01 0 0 0.01 -0.01 0 -0.01 0 -0.01 0 -0.01 0 0 0 -0.01 0.01 -0.01 0 -0.01 0 0 0.01 -0.01 0 -0.01 0 0 0.01 -0.01 0.01 -0.01 0 0 0.01 -0.01 0 -0.17 -0.14 0.02 -0.01 0.01 -0.02 0.02 -0.01 0.01 -0.01 0.02 -0.02 0.01 -0.01 0.02 -0.01 0.01 -0.01 0.02 0 0.02 -0.01 0.02 -0.01 0.01 0 0.02 -0.01 0.02 0 0.02 0 0.02 0 0.02 -0.01 0.01 0 0.02 0 0.02 0.01 0.02 0 0.02 0 0.02 0.01 0.02 0 0.01 0.01 0.02 0 0.02 0.01 0.02 0.01 0.01 0.01 0.02 0.01 0.01 0.01 0.02 0.02 0 0zm0.04 0.54l-0.16 -0.14 0 0 0 -0.01 0.01 -0.01 0 0 0 -0.01 0.01 -0.01 0 0 0 -0.01 0.01 -0.01 0 -0.01 0 0 0 -0.01 0 -0.01 0 -0.01 0 -0.01 0 0 0 -0.01 0 -0.01 0 -0.01 0 -0.01 0 0 0 -0.01 -0.01 -0.01 0 -0.01 0 0 -0.01 -0.01 0 -0.01 -0.01 0 0 -0.01 -0.01 -0.01 0 0 -0.01 -0.01 0 -0.01 0.14 -0.16 0.01 0.01 0.02 0.01 0.01 0.02 0.01 0.01 0.02 0.02 0.01 0.01 0.01 0.02 0 0.02 0.01 0.01 0.01 0.02 0.01 0.02 0 0.02 0.01 0.01 0 0.02 0 0.02 0 0.02 0.01 0.02 0 0.02 -0.01 0.02 0 0.01 0 0.02 0 0.02 -0.01 0.02 0 0.02 -0.01 0.01 -0.01 0.02 0 0.02 -0.01 0.02 -0.01 0.01 -0.01 0.02 -0.01 0.02 -0.02 0.01 0 0zm-0.54 0.05l0.14 -0.17 0.01 0 0 0.01 0.01 0 0.01 0.01 0.01 0 0 0 0.01 0.01 0.01 0 0.01 0 0 0 0.01 0 0.01 0.01 0.01 0 0.01 0 0 0 0.01 0 0.01 -0.01 0.01 0 0.01 0 0 0 0.01 0 0.01 -0.01 0.01 0 0 0 0.01 -0.01 0.01 0 0 0 0.01 -0.01 0.01 0 0 -0.01 0.01 -0.01 0.01 0 0.16 0.14 -0.01 0.02 -0.01 0.01 -0.02 0.01 -0.01 0.02 -0.02 0.01 -0.01 0.01 -0.02 0.01 -0.02 0.01 -0.01 0 -0.02 0.01 -0.02 0.01 -0.02 0 -0.02 0.01 -0.01 0 -0.02 0 -0.02 0.01 -0.02 0 -0.02 0 -0.02 0 -0.01 -0.01 -0.02 0 -0.02 0 -0.02 -0.01 -0.02 0 -0.02 -0.01 -0.01 0 -0.02 -0.01 -0.02 -0.01 -0.01 -0.01 -0.02 -0.01 -0.02 -0.01 -0.01 -0.01zm-0.03 -0.14c0.04,-0.05 0.11,-0.05 0.15,-0.01 0.05,0.04 0.05,0.11 0.01,0.15l-0.16 -0.14z"/>
   </g>
   <g>
    <path class="fil2" d="M2.38 2.34c0.06,0.01 0.1,0.07 0.08,0.13 -0.01,0.06 -0.08,0.09 -0.13,0.08l0.05 -0.21zm-1.06 0.23l-0.19 -0.11 0 0 0.01 -0.02 0.02 -0.03 0.02 -0.02 0.03 -0.03 0.02 -0.02 0.03 -0.01 0.03 -0.02 0.03 -0.01 0.03 -0.02 0.03 -0.01 0.03 -0.01 0.04 -0.01 0.03 0 0.04 -0.01 0.04 0 0.04 -0.01 0.04 0 0.04 0 0.04 0 0.05 0 0.04 0 0.05 0.01 0.04 0 0.05 0.01 0.05 0.01 0.05 0 0.06 0.01 0.05 0.01 0.05 0.01 0.06 0.02 0.05 0.01 0.06 0.02 -0.05 0.21 -0.06 -0.01 -0.05 -0.02 -0.05 -0.01 -0.06 -0.01 -0.04 -0.01 -0.05 -0.01 -0.05 -0.01 -0.05 0 -0.04 -0.01 -0.04 0 -0.04 0 -0.04 -0.01 -0.04 0 -0.04 0 -0.03 0 -0.04 0 -0.03 0.01 -0.03 0 -0.03 0 -0.02 0.01 -0.03 0.01 -0.02 0 -0.02 0.01 -0.02 0.01 -0.02 0.01 -0.01 0 -0.02 0.01 -0.01 0.01 -0.01 0.01 -0.01 0.01 -0.01 0.01 0 0.01 0 0zm2.17 2.14l-0.11 0.19 0 0 -0.14 -0.08 -0.14 -0.08 -0.13 -0.08 -0.12 -0.09 -0.13 -0.08 -0.12 -0.08 -0.12 -0.09 -0.11 -0.08 -0.11 -0.09 -0.11 -0.08 -0.1 -0.08 -0.1 -0.09 -0.09 -0.08 -0.09 -0.08 -0.08 -0.08 -0.08 -0.08 -0.08 -0.08 -0.07 -0.08 -0.06 -0.08 -0.06 -0.07 -0.05 -0.07 -0.05 -0.08 -0.04 -0.07 -0.04 -0.07 -0.03 -0.07 -0.03 -0.06 -0.01 -0.07 -0.01 -0.07 -0.01 -0.06 0.01 -0.07 0.02 -0.06 0.03 -0.06 0.19 0.11 -0.01 0.03 -0.01 0.02 0 0.03 0 0.04 0 0.04 0.02 0.05 0.01 0.05 0.03 0.05 0.03 0.06 0.04 0.06 0.04 0.07 0.05 0.07 0.05 0.07 0.06 0.07 0.07 0.07 0.07 0.07 0.07 0.08 0.08 0.08 0.09 0.08 0.09 0.08 0.09 0.08 0.1 0.08 0.1 0.08 0.11 0.08 0.11 0.08 0.12 0.09 0.12 0.08 0.12 0.08 0.12 0.08 0.13 0.08 0.13 0.08 0.14 0.08 0 0zm1.22 0.6l-0.08 0.2 -0.04 -0.01 -0.04 -0.02 -0.04 -0.01 -0.03 -0.02 -0.04 -0.02 -0.04 -0.01 -0.04 -0.02 -0.04 -0.02 -0.04 -0.01 -0.04 -0.02 -0.04 -0.02 -0.04 -0.02 -0.03 -0.02 -0.04 -0.02 -0.04 -0.01 -0.04 -0.02 -0.04 -0.02 -0.04 -0.02 -0.04 -0.02 -0.04 -0.02 -0.04 -0.02 -0.04 -0.02 -0.04 -0.02 -0.04 -0.03 -0.04 -0.02 -0.04 -0.02 -0.04 -0.02 -0.04 -0.02 -0.04 -0.02 -0.04 -0.03 -0.03 -0.02 -0.04 -0.02 0.11 -0.19 0.03 0.02 0.04 0.02 0.04 0.02 0.04 0.03 0.04 0.02 0.04 0.02 0.04 0.02 0.04 0.02 0.03 0.02 0.04 0.02 0.04 0.02 0.04 0.02 0.04 0.02 0.04 0.02 0.04 0.02 0.03 0.02 0.04 0.02 0.04 0.02 0.04 0.01 0.04 0.02 0.04 0.02 0.03 0.02 0.04 0.01 0.04 0.02 0.04 0.02 0.04 0.01 0.03 0.02 0.04 0.02 0.04 0.01 0.04 0.02 0.03 0.01 0.04 0.02zm0.39 -0.14l-0.08 0.2 0 0 -0.01 0 -0.01 0 -0.01 -0.01 -0.01 0 -0.01 0 0 0 -0.01 0 -0.01 0 -0.01 0 -0.01 0 0 0 -0.01 0 -0.01 0 -0.01 0.01 0 0 -0.01 0 -0.01 0.01 -0.01 0 0 0 -0.01 0.01 -0.01 0 0 0.01 -0.01 0 0 0.01 -0.01 0 -0.01 0.01 0 0.01 0 0 -0.01 0.01 0 0.01 -0.01 0.01 0 0 -0.21 -0.08 0.01 -0.02 0.01 -0.01 0.01 -0.02 0.01 -0.02 0.01 -0.01 0.01 -0.02 0.02 -0.01 0.01 -0.02 0.01 -0.01 0.02 -0.01 0.01 -0.01 0.02 -0.02 0.01 -0.01 0.02 0 0.01 -0.01 0.02 -0.01 0.02 -0.01 0.02 0 0.01 -0.01 0.02 0 0.02 -0.01 0.02 0 0.02 0 0.02 0 0.02 0 0.01 0 0.02 0 0.02 0 0.02 0.01 0.02 0 0.02 0.01 0.02 0.01 0 0zm0.21 0.5l-0.2 -0.08 0 0 0 -0.01 0 -0.01 0.01 -0.01 0 -0.01 0 0 0 -0.01 0 -0.01 0 -0.01 0 -0.01 0 0 0 -0.01 0 -0.01 -0.01 -0.01 0 -0.01 0 0 0 -0.01 -0.01 -0.01 0 -0.01 -0.01 0 0 -0.01 0 -0.01 -0.01 0 0 -0.01 -0.01 0 -0.01 -0.01 0 0 -0.01 -0.01 -0.01 0 0 -0.01 -0.01 0 -0.01 -0.01 0 0 0.08 -0.2 0.02 0 0.01 0.01 0.02 0.01 0.02 0.01 0.01 0.01 0.02 0.01 0.01 0.02 0.02 0.01 0.01 0.01 0.01 0.02 0.01 0.01 0.01 0.02 0.01 0.01 0.01 0.02 0.01 0.02 0.01 0.01 0.01 0.02 0 0.02 0.01 0.01 0 0.02 0.01 0.02 0 0.02 0 0.02 0 0.02 0 0.02 0 0.01 0 0.02 -0.01 0.02 0 0.02 0 0.02 -0.01 0.02 -0.01 0.02 0 0zm-0.5 0.21l0.08 -0.2 0 0 0.01 0 0.01 0 0.01 0.01 0 0 0.01 0 0.01 0 0.01 0 0.01 0 0 0 0.01 0 0.01 0 0.01 0 0.01 -0.01 0 0 0.01 0 0.01 0 0.01 -0.01 0 0 0.01 0 0.01 -0.01 0 0 0.01 -0.01 0.01 0 0 -0.01 0.01 0 0 -0.01 0.01 -0.01 0 0 0.01 -0.01 0 -0.01 0 -0.01 0.01 0 0.2 0.08 0 0.02 -0.01 0.01 -0.01 0.02 -0.01 0.02 -0.01 0.01 -0.02 0.02 -0.01 0.01 -0.01 0.02 -0.01 0.01 -0.02 0.01 -0.01 0.01 -0.02 0.01 -0.01 0.01 -0.02 0.01 -0.02 0.01 -0.01 0.01 -0.02 0.01 -0.02 0 -0.02 0.01 -0.01 0 -0.02 0.01 -0.02 0 -0.02 0 -0.02 0 -0.02 0 -0.02 0 -0.02 0 -0.01 0 -0.02 -0.01 -0.02 0 -0.02 -0.01 -0.02 -0.01 0 0zm-0.22 -0.5l0.21 0.08 0 0.01 -0.01 0.01 0 0.01 0 0.01 0 0 0 0.01 0 0.01 0 0.01 0 0.01 0 0 0 0.01 0 0.01 0 0.01 0.01 0.01 0 0 0 0.01 0 0.01 0.01 0 0 0.01 0.01 0.01 0 0 0.01 0.01 0 0.01 0.01 0 0 0.01 0.01 0 0.01 0.01 0 0 0.01 0.01 0.01 0 0 0.01 0.01 0 -0.08 0.2 -0.02 0 -0.02 -0.01 -0.01 -0.01 -0.02 -0.01 -0.01 -0.01 -0.02 -0.01 -0.01 -0.02 -0.02 -0.01 -0.01 -0.01 -0.01 -0.02 -0.02 -0.01 -0.01 -0.02 -0.01 -0.01 -0.01 -0.02 0 -0.02 -0.01 -0.01 -0.01 -0.02 0 -0.02 -0.01 -0.02 0 -0.01 -0.01 -0.02 0 -0.02 0 -0.02 0 -0.02 0 -0.02 0 -0.02 0 -0.01 0 -0.02 0.01 -0.02 0 -0.02 0.01 -0.02 0 -0.02zm0.12 -0.07c0.06,0.02 0.09,0.09 0.06,0.14 -0.02,0.06 -0.08,0.09 -0.14,0.06l0.08 -0.2z"/>
   </g>
   <path class="fil1 str0" d="M5.7 5.72c0.43,0.07 0.72,0.02 0.82,-0.14 0.16,-0.29 -0.26,-0.89 -1.08,-1.53"/>
  </g>
 </g>
</svg>
