<?xml version="1.0" encoding="UTF-8"?>
<!DOCTYPE svg PUBLIC "-//W3C//DTD SVG 1.1//EN" "http://www.w3.org/Graphics/SVG/1.1/DTD/svg11.dtd">
<!-- Creator: CorelDRAW 2018 (64-Bit) -->
<svg xmlns="http://www.w3.org/2000/svg" xml:space="preserve" width="100px" height="100px" version="1.1" style="shape-rendering:geometricPrecision; text-rendering:geometricPrecision; image-rendering:optimizeQuality; fill-rule:evenodd; clip-rule:evenodd"
viewBox="0 0 930.97 930.97"
 xmlns:xlink="http://www.w3.org/1999/xlink">
 <defs>
  <style type="text/css">
   <![CDATA[
    .str0 {stroke:#FEFEFE;stroke-width:26.6;stroke-linecap:round;stroke-linejoin:round;stroke-miterlimit:22.9256}
    .fil2 {fill:none}
    .fil0 {fill:#198FD9}
    .fil1 {fill:#FEFEFE;fill-rule:nonzero}
   ]]>
  </style>
 </defs>
 <g id="Слой_x0020_1">
  <metadata id="CorelCorpID_0Corel-Layer"/>
  <circle class="fil0" cx="465.49" cy="465.49" r="465.49"/>
  <g id="_3017926152352">
   <path class="fil1" d="M236.23 621.62l3.04 -3.04 68.82 0 3.04 3.04 0 19.83c0,2.43 -1.01,3.65 -3.04,3.65l-41.7 0 -1.01 1.61 0 27.74 34.21 0 2.23 2.59 0 20.72 -2.23 2.6 -33.2 0 -1.62 1.42 0 53.44c0,2.7 -1.21,4.05 -3.64,4.05l-21.86 0c-2.03,0 -3.04,-1.35 -3.04,-4.05l0 -133.6z"/>
   <path id="1" class="fil1" d="M392.51 700.97l-8.91 0 0 54.25c0,2.7 -1.21,4.05 -3.64,4.05l-21.86 0c-2.03,0 -3.04,-1.35 -3.04,-4.05l0 -133.6c0,-2.03 1.35,-3.04 4.05,-3.04l45.95 0c4.05,0 8.91,1.01 14.57,3.04 16.74,6.2 25.11,18.25 25.11,36.09 0,15.26 -6.68,27.23 -20.04,35.87 -0.68,0.67 -1.02,1.01 -1.02,1.01 0,0.41 0.34,1.48 1.02,3.24l23.07 52.12c0.68,2.03 1.02,3.85 1.02,5.47 0,2.56 -0.75,3.85 -2.23,3.85l-24.9 0c-1.62,0 -2.7,-0.68 -3.24,-2.03l-25.91 -56.27zm8.3 -56.48l-16.6 0 0 29.35 1.01 1.22 5.87 0c6.07,0 10.33,-0.41 12.76,-1.22 6.34,-2.06 9.51,-6.75 9.51,-14.07 0,-10.19 -4.18,-15.28 -12.55,-15.28z"/>
   <path id="2" class="fil1" d="M490.49 621.62l3.03 -3.04 70.85 0 3.04 3.04 0 18.82c0,2.43 -1.01,3.64 -3.04,3.64l-43.72 0 -1.01 1.42 0 26.92 34.21 0 2.22 2.64 0 20.85 -2.22 2.42 -33.2 0 -1.01 1.62 0 33.81 47.77 0 2.23 2.63 0 20.85c0,1.35 -1.08,2.03 -3.24,2.03l-72.88 0c-2.02,0 -3.03,-1.35 -3.03,-4.05l0 -133.6z"/>
   <path id="3" class="fil1" d="M615.59 621.62l3.04 -3.04 70.85 0 3.03 3.04 0 18.82c0,2.43 -1.01,3.64 -3.03,3.64l-43.73 0 -1.01 1.42 0 26.92 34.21 0 2.23 2.64 0 20.85 -2.23 2.42 -33.2 0 -1.01 1.62 0 33.81 47.77 0 2.23 2.63 0 20.85c0,1.35 -1.08,2.03 -3.24,2.03l-72.87 0c-2.03,0 -3.04,-1.35 -3.04,-4.05l0 -133.6z"/>
   <g>
    <polyline class="fil2 str0" points="512.56,527 465.49,554.18 280.75,447.52 280.75,234.2 465.49,127.54 650.23,234.2 650.23,298.77 "/>
    <polyline class="fil2 str0" points="280.75,234.2 465.49,340.86 650.23,234.2 "/>
    <line class="fil2 str0" x1="465.49" y1="554.18" x2="465.49" y2= "340.86" />
    <polyline class="fil2 str0" points="557.86,180.87 373.12,287.52 373.12,394.19 "/>
    <line class="fil2 str0" x1="557.86" y1="500.85" x2="638.05" y2= "500.85" />
    <line class="fil2 str0" x1="664.26" y1="420.85" x2="797.58" y2= "420.85" />
    <line class="fil2 str0" x1="681.97" y1="340.86" x2="752.49" y2= "340.86" />
    <line class="fil2 str0" x1="557.86" y1="420.85" x2="604.88" y2= "420.85" />
    <line class="fil2 str0" x1="751.75" y1="500.85" x2="695.62" y2= "500.85" />
    <line class="fil2 str0" x1="626.67" y1="340.86" x2="587.75" y2= "340.86" />
   </g>
  </g>
 </g>
</svg>
