<?xml version="1.0" encoding="UTF-8"?>
<!DOCTYPE svg PUBLIC "-//W3C//DTD SVG 1.1//EN" "http://www.w3.org/Graphics/SVG/1.1/DTD/svg11.dtd">
<!-- Creator: CorelDRAW 2018 (64-Bit) -->
<svg xmlns="http://www.w3.org/2000/svg" xml:space="preserve" width="100px" height="100px" version="1.1" style="shape-rendering:geometricPrecision; text-rendering:geometricPrecision; image-rendering:optimizeQuality; fill-rule:evenodd; clip-rule:evenodd"
viewBox="0 0 7.75 7.75"
 xmlns:xlink="http://www.w3.org/1999/xlink">
 <defs>
  <style type="text/css">
   <![CDATA[
    .str0 {stroke:#FEFEFE;stroke-width:0.22;stroke-linecap:round;stroke-linejoin:round;stroke-miterlimit:22.9256}
    .fil1 {fill:none}
    .fil0 {fill:#198FD9}
   ]]>
  </style>
 </defs>
 <g id="Слой_x0020_1">
  <metadata id="CorelCorpID_0Corel-Layer"/>
  <circle class="fil0" cx="3.88" cy="3.88" r="3.88"/>
  <g id="_3053921084096">
   <path class="fil1 str0" d="M5.8 2.19l-3.85 0c-0.16,0 -0.29,0.13 -0.29,0.29l0 2.73c0,0.16 0.13,0.29 0.29,0.29l0.7 0 0 0.77 0.85 -0.77 2.3 0c0.16,0 0.29,-0.13 0.29,-0.29l0 -2.73c0,-0.16 -0.13,-0.29 -0.29,-0.29z"/>
   <circle class="fil1 str0" cx="3.88" cy="3.84" r="0.46"/>
   <path class="fil1 str0" d="M3.88 2.75c-0.06,0 -0.11,0.01 -0.16,0.02 -0.03,0 -0.06,0.02 -0.07,0.06l-0.02 0.07c-0.02,0.05 -0.05,0.08 -0.1,0.11 -0.05,0.02 -0.1,0.01 -0.15,-0.01l-0.06 -0.04c-0.03,-0.01 -0.07,-0.01 -0.1,0.01 -0.08,0.06 -0.15,0.14 -0.21,0.22 -0.03,0.03 -0.03,0.06 -0.01,0.09l0.03 0.07c0.03,0.04 0.03,0.09 0.01,0.14 -0.02,0.05 -0.06,0.09 -0.11,0.1l-0.07 0.03c-0.03,0.01 -0.06,0.03 -0.06,0.07 -0.01,0.05 -0.01,0.1 -0.01,0.15 0,0.05 0,0.1 0.01,0.15 0,0.04 0.03,0.06 0.06,0.07l0.07 0.03c0.05,0.01 0.09,0.05 0.11,0.1 0.02,0.05 0.02,0.1 -0.01,0.14l-0.03 0.07c-0.02,0.03 -0.02,0.07 0,0.09 0.06,0.09 0.14,0.16 0.22,0.22 0.03,0.02 0.06,0.02 0.09,0.01l0.07 -0.04c0.05,-0.02 0.1,-0.03 0.15,0 0.05,0.02 0.08,0.05 0.1,0.1l0.02 0.08c0.01,0.03 0.04,0.06 0.07,0.06 0.05,0.01 0.1,0.01 0.16,0.01 0.05,0 0.1,0 0.14,-0.01 0.04,0 0.07,-0.03 0.08,-0.06l0.02 -0.08c0.02,-0.05 0.05,-0.08 0.1,-0.1 0.05,-0.03 0.1,-0.02 0.15,0l0.07 0.04c0.03,0.02 0.07,0.01 0.09,-0.01 0.08,-0.06 0.16,-0.13 0.22,-0.21 0.02,-0.03 0.02,-0.06 0,-0.09l-0.03 -0.08c-0.03,-0.04 -0.03,-0.09 -0.01,-0.14 0.02,-0.05 0.06,-0.09 0.11,-0.1l0.08 -0.03c0.03,-0.01 0.05,-0.03 0.06,-0.07 0,-0.05 0.01,-0.1 0.01,-0.15 0,-0.05 -0.01,-0.1 -0.02,-0.15 0,-0.04 -0.02,-0.06 -0.06,-0.07l-0.07 -0.03c-0.05,-0.01 -0.09,-0.05 -0.11,-0.1 -0.02,-0.05 -0.02,-0.1 0.01,-0.14l0.03 -0.07c0.02,-0.03 0.01,-0.07 -0.01,-0.1 -0.06,-0.08 -0.13,-0.15 -0.21,-0.21 -0.03,-0.02 -0.06,-0.02 -0.1,-0.01l-0.06 0.04c-0.05,0.02 -0.1,0.03 -0.15,0.01 -0.05,-0.03 -0.08,-0.06 -0.1,-0.11l-0.02 -0.07c-0.01,-0.04 -0.04,-0.06 -0.07,-0.07 -0.05,0 -0.1,-0.01 -0.15,-0.01z"/>
  </g>
 </g>
</svg>
