<?xml version="1.0" encoding="utf-8"?><!DOCTYPE svg PUBLIC "-//W3C//DTD SVG 1.1//EN" "http://www.w3.org/Graphics/SVG/1.1/DTD/svg11.dtd"><svg viewBox="0 0 1920 954" xmlns="http://www.w3.org/2000/svg" xmlns:xlink="http://www.w3.org/1999/xlink"><style>:root>svg{display:none}:root>svg:target{display:block}</style><svg viewBox="0 0 24 24" fill="none" id="arrow-down-svgrepo-com" xmlns="http://www.w3.org/2000/svg"><path d="M5.707 9.71a1 1 0 0 0 0 1.415l4.892 4.887a2 2 0 0 0 2.828 0l4.89-4.89a1 1 0 1 0-1.414-1.415l-4.185 4.186a1 1 0 0 1-1.415 0L7.121 9.71a1 1 0 0 0-1.414 0Z" fill="currentColor"/></svg><svg fill="none" viewBox="0 0 1920 954" id="bg" xmlns="http://www.w3.org/2000/svg"><g clip-path="url(#ba)" fill="rgba(25,143,217,1)"><path d="M1321.57 538C1357.08 287.516 1273.7 89.91 1127-.418L1374.18-6c65.77 100.68-15.89 431.512-52.61 544zM312 955c432.242 0 746.77-180.667 850-271-90.34 157.09-176.766 246.121-208.688 271H312z" fill-opacity=".25"/><path d="M1344.5 427c0-252.4-212.67-390.833-319-428.5H1373c70 82.4 10.17 320-28.5 428.5z" fill-opacity=".1"/><path fill-rule="evenodd" clip-rule="evenodd" d="M839.644 954C1138.37 793.549 1337 508.902 1337 184.5c0-63.218-7.54-124.926-21.9-184.5H1920v954H839.644zm0 0C676.842 1041.44 484.311 1092 278 1092c-584.87 0-1059-406.302-1059-907.5S-306.87-723 278-723c511.098 0 937.63 310.269 1037.1 723H0v954h839.644z" fill-opacity=".5"/><path fill-rule="evenodd" clip-rule="evenodd" d="M1011.55 954C1221.42 793.95 1353 564.007 1353 308.5c0-108.584-23.76-212.552-67.2-308.5H1920v954h-908.45zm0 0c-187.291 142.83-436.933 230-711.05 230C-280.78 1184-752 792.025-752 308.5S-280.78-567 300.5-567c450.743 0 835.31 235.692 985.3 567H0v954h1011.55z"/></g><defs><clipPath id="ba"><path fill="#fff" d="M0 0h1920v954H0z"/></clipPath></defs></svg><svg viewBox="0 0 512 512" xml:space="preserve" id="email-8-svgrepo-com" xmlns="http://www.w3.org/2000/svg"><path class="cst0" d="M510.678 112.275a70.823 70.823 0 0 0-14.662-31.054c-1.518-1.915-3.104-3.63-4.823-5.345-12.755-12.818-30.657-20.814-50.214-20.814H71.021c-19.557 0-37.395 7.996-50.21 20.814-1.715 1.715-3.301 3.43-4.823 5.345-7.203 8.788-12.358 19.428-14.602 31.054A68.69 68.69 0 0 0 0 126.087V385.92c0 9.968 2.114 19.55 5.884 28.203 3.497 8.26 8.653 15.734 14.926 22.001a77.4 77.4 0 0 0 4.892 4.494 70.957 70.957 0 0 0 45.319 16.32h369.958c17.18 0 33.108-6.145 45.323-16.384 1.718-1.386 3.305-2.844 4.891-4.43 6.27-6.267 11.425-13.741 14.994-22.001v-.064c3.769-8.653 5.812-18.171 5.812-28.138V126.087a72.986 72.986 0 0 0-1.321-13.812zM46.509 101.571c6.345-6.338 14.866-10.175 24.512-10.175h369.958c9.646 0 18.242 3.837 24.512 10.175a34.402 34.402 0 0 1 3.112 3.637L274.696 274.203c-5.348 4.687-11.954 7.002-18.696 7.002-6.674 0-13.276-2.315-18.695-7.002L43.472 105.136c.858-1.25 1.915-2.436 3.037-3.565zM36.334 385.92V142.735L176.658 265.15 36.405 387.435c-.071-.464-.071-.986-.071-1.515zm404.645 34.677H71.021c-6.281 0-12.158-1.651-17.174-4.552l147.978-128.959 13.815 12.018c11.561 10.046 26.028 15.134 40.36 15.134a61.64 61.64 0 0 0 40.432-15.134l13.808-12.018 147.92 128.959c-5.023 2.901-10.9 4.552-17.181 4.552zm34.687-34.677c0 .529 0 1.051-.068 1.515L335.346 265.221 475.666 142.8v243.12z" fill="currentColor"/></svg><svg viewBox="0 0 24 24" fill="none" id="email-svgrepo-com" xmlns="http://www.w3.org/2000/svg"><path d="M16 12a4 4 0 1 1-8 0 4 4 0 0 1 8 0Zm0 0v1.5a2.5 2.5 0 0 0 2.5 2.5v0a2.5 2.5 0 0 0 2.5-2.5V12a9 9 0 1 0-9 9h4" stroke="#000" stroke-width="2" stroke-linecap="round" stroke-linejoin="round"/></svg><svg viewBox="0 0 24 24" id="faq-svgrepo-com" xmlns="http://www.w3.org/2000/svg"><path d="M12 22A10 10 0 1 0 2 12a10 10 0 0 0 10 10Zm0-2a1.5 1.5 0 1 1 1.5-1.5A1.5 1.5 0 0 1 12 20ZM8 8.994a3.907 3.907 0 0 1 2.319-3.645 4.061 4.061 0 0 1 3.889.316 4 4 0 0 1 .294 6.456 3.972 3.972 0 0 0-1.411 2.114 1 1 0 0 1-1.944-.47 5.908 5.908 0 0 1 2.1-3.2 2 2 0 0 0-.146-3.23 2.06 2.06 0 0 0-2.006-.14 1.937 1.937 0 0 0-1.1 1.8A1 1 0 0 1 8 9Z"/></svg><svg xml:space="preserve" style="shape-rendering:geometricPrecision;text-rendering:geometricPrecision;image-rendering:optimizeQuality;fill-rule:evenodd;clip-rule:evenodd" viewBox="0 0 892.52 892.52" id="icon_1-year-warranty" xmlns="http://www.w3.org/2000/svg"><defs><style>.ffil2{fill:#fefefe;fill-rule:nonzero}</style></defs><g id="fСлой_x0020_1"><circle cx="446.26" cy="446.26" r="446.26" style="fill:#198fd9"/><g id="f_3053986772480"><path d="M446.26 749.08c150.3-47.37 229.33-168.42 237.07-363.16V244.64c-82.86-23.68-161.89-57.41-237.07-101.2-75.19 43.79-154.21 77.52-237.08 101.2v141.28c7.75 194.74 86.77 315.79 237.08 363.16z" style="fill:none;stroke:#fefefe;stroke-width:25.5;stroke-linecap:round;stroke-linejoin:round;stroke-miterlimit:22.9256"/><path class="ffil2" d="m440.12 328.94-2.73-2.38h-36.83c-3.41 0-5.12-2.16-5.12-6.48v-26.26c0-3.19 1.71-4.89 5.12-5.12 4.32-.22 8.07-.45 11.25-.68 3.19-.23 5.91-.57 8.19-1.02 9.55-1.59 18.3-6.93 26.25-16.03 5.01-5.68 7.96-8.53 8.87-8.53h27.97l5.11 5.12v225.07c0 4.55-1.7 6.82-5.11 6.82h-36.84l-6.13-5.11v-165.4z"/><path id="f1" class="ffil2" d="M311.55 536.91c0-1.09.46-1.64 1.37-1.64h18.28c.72 0 1.64 1.41 2.73 4.23 2 5.37 3.77 10.03 5.32 13.98 1.54 3.96 2.81 7.26 3.81 9.89.37.91.82 1.82 1.37 2.73l14.05-30.83h18.96c1 0 1.5.55 1.5 1.64 0 .82-.27 1.68-.82 2.59l-24.14 49.17v38.68c0 1.82-.82 2.72-2.46 2.72h-14.73c-1.64 0-2.46-.9-2.46-2.72v-39.22l-22.09-48.63c-.46-1.18-.69-2.04-.69-2.59z"/><path id="f2" class="ffil2" d="m384.53 537.32 2.05-2.05h47.74l2.05 2.05v12.69c0 1.63-.69 2.45-2.05 2.45h-29.46l-.68.95v18.15h23.05l1.5 1.77v14.05l-1.5 1.64h-22.37l-.68 1.09v22.78h32.19l1.5 1.77v14.05c0 .91-.73 1.36-2.19 1.36h-49.1c-1.36 0-2.05-.9-2.05-2.72v-90.03z"/><path id="f3" class="ffil2" d="M444.14 628.03v-.68l20.33-87.85c.63-2.82 1.54-4.23 2.72-4.23h19.65c1.36 0 2.32 1.14 2.86 3.41l21.83 89.35c.27 1.36-.23 2.04-1.51 2.04h-15.41c-1.27 0-2.18-.9-2.73-2.72-.63-2.37-1.18-4.42-1.63-6.14-.46-1.73-.87-3.18-1.23-4.37-.36-1.45-.82-2.18-1.37-2.18h-20.46l-1.36 1.5c-.46 1.73-.93 3.48-1.43 5.25-.5 1.78-.98 3.53-1.44 5.25-.63 2.28-1.54 3.41-2.72 3.41h-14.73c-.91 0-1.37-.68-1.37-2.04zm32.19-59.06-5.73 26.73h13.24l-6.01-26.05c-.18-.55-.59-.82-1.22-.82-.19 0-.28.04-.28.14z"/><path id="f4" class="ffil2" d="M543.04 590.79h-6.01v36.56c0 1.82-.81 2.72-2.45 2.72h-14.73c-1.37 0-2.05-.9-2.05-2.72v-90.03c0-1.36.91-2.05 2.73-2.05h30.96c2.73 0 6 .69 9.83 2.05 11.27 4.18 16.91 12.3 16.91 24.32 0 10.28-4.5 18.35-13.51 24.17l-.68.68c0 .28.23 1 .68 2.18l15.56 35.13c.45 1.36.68 2.59.68 3.68 0 1.73-.5 2.59-1.5 2.59h-16.78c-1.09 0-1.82-.45-2.18-1.36l-17.46-37.92zm5.59-38.06h-11.19v19.78l.69.82h3.95c4.09 0 6.96-.27 8.6-.82 4.27-1.39 6.41-4.54 6.41-9.48 0-6.87-2.82-10.3-8.46-10.3z"/></g></g></svg><svg xml:space="preserve" style="shape-rendering:geometricPrecision;text-rendering:geometricPrecision;image-rendering:optimizeQuality;fill-rule:evenodd;clip-rule:evenodd" viewBox="0 0 877.41 877.41" id="icon_30-days" xmlns="http://www.w3.org/2000/svg"><defs><style>.gfil1{fill:#fefefe;fill-rule:nonzero}</style></defs><g id="gСлой_x0020_1"><circle cx="438.71" cy="438.71" r="438.71" style="fill:#198fd9"/><g id="g_3017921063232"><path class="gfil1" d="M135.44 373.32c1.46-6.77 8.13-11.07 14.9-9.61 6.76 1.46 11.07 8.13 9.61 14.89l-24.51-5.28zm18.11 65.38h-25.07v-2.05l.02-2.07.04-2.05.04-2.06.07-2.06.07-2.07.09-2.05.1-2.04.12-2.07.13-2.06.15-2.04.15-2.05.17-2.06.19-2.05.19-2.04.22-2.05.22-2.05.24-2.04.25-2.04.26-2.04.28-2.04.3-2.05.31-2.03.31-2.02.33-2.04.35-2.04.36-2.01.37-2.03.39-2.02.4-2.02.42-2.03.42-2.01 24.51 5.28-.4 1.86-.37 1.84-.37 1.87-.36 1.86-.34 1.86-.33 1.87-.32 1.86-.3 1.86-.3 1.88-.28 1.87-.27 1.87-.26 1.87-.24 1.87-.23 1.89-.22 1.88-.21 1.88-.19 1.88-.18 1.88-.17 1.89-.16 1.87-.14 1.9-.14 1.89-.12 1.88-.1 1.88-.09 1.9-.09 1.9-.07 1.88-.05 1.89-.05 1.89-.03 1.9-.02 1.88v1.9zm285.16 285.16v25.07l-15.96-.4-15.74-1.2-15.53-1.97-15.28-2.73-15.01-3.47-14.73-4.18-14.42-4.88-14.09-5.55-13.74-6.22-13.39-6.85-12.99-7.47-12.58-8.07-12.16-8.64-11.72-9.21-11.26-9.75-10.77-10.27-10.27-10.77-9.75-11.26-9.21-11.72-8.64-12.16-8.07-12.58-7.47-13-6.86-13.38-6.21-13.74-5.55-14.09-4.88-14.42-4.18-14.73-3.47-15.01-2.73-15.28-1.97-15.53-1.2-15.74-.4-15.96h25.07l.37 14.69 1.1 14.49 1.81 14.27 2.51 14.04 3.19 13.79 3.84 13.53 4.48 13.24 5.1 12.95 5.71 12.62 6.3 12.3 6.86 11.94 7.42 11.57 7.95 11.18 8.47 10.78 8.96 10.34 9.45 9.91 9.91 9.45 10.34 8.96 10.78 8.47 11.18 7.95 11.57 7.42 11.94 6.86 12.3 6.3 12.62 5.71 12.95 5.1 13.24 4.48 13.53 3.84 13.79 3.19 14.04 2.51 14.27 1.81 14.49 1.1 14.69.37zM723.87 438.7h25.06l-.4 15.96-1.19 15.74-1.98 15.53-2.73 15.28-3.46 15.01-4.18 14.73-4.89 14.42-5.55 14.09-6.21 13.74-6.86 13.38-7.47 13-8.06 12.58-8.65 12.16-9.21 11.72-9.75 11.26-10.27 10.77-10.77 10.27-11.26 9.75-11.71 9.21-12.17 8.64-12.58 8.07-13 7.47-13.37 6.85-13.75 6.22-14.09 5.55-14.42 4.88-14.72 4.18-15.02 3.47-15.28 2.73-15.52 1.97-15.75 1.2-15.95.4v-25.07l14.68-.37 14.49-1.1 14.27-1.81 14.04-2.51 13.79-3.19 13.53-3.84 13.24-4.48 12.95-5.1 12.63-5.71 12.29-6.3 11.94-6.86 11.57-7.42 11.19-7.95 10.77-8.47 10.35-8.96 9.91-9.45 9.44-9.9 8.96-10.35 8.47-10.78 7.95-11.18 7.42-11.57 6.87-11.94 6.29-12.3 5.71-12.62 5.1-12.95 4.49-13.24 3.84-13.53 3.18-13.79 2.51-14.04 1.81-14.27 1.1-14.49.38-14.69zM438.71 153.54v-25.06l15.95.4 15.75 1.19 15.52 1.98 15.28 2.73 15.02 3.46 14.72 4.18 14.42 4.89 14.09 5.55 13.75 6.21 13.37 6.86 13 7.47 12.58 8.06 12.17 8.65 11.71 9.21 11.26 9.75 10.77 10.27 10.27 10.77 9.75 11.26 9.21 11.71 8.65 12.17 8.06 12.58 7.47 12.99 6.86 13.38 6.21 13.75 5.55 14.09 4.89 14.42 4.18 14.72 3.46 15.02 2.73 15.28 1.98 15.52 1.19 15.75.4 15.95h-25.06l-.38-14.68-1.1-14.49-1.81-14.27-2.51-14.04-3.18-13.79-3.84-13.53-4.49-13.24-5.1-12.95-5.71-12.63-6.29-12.29-6.87-11.94-7.42-11.57-7.95-11.18-8.47-10.78-8.96-10.35-9.44-9.91-9.91-9.44-10.35-8.96-10.78-8.47-11.18-7.95-11.57-7.42-11.94-6.87-12.29-6.29-12.63-5.71-12.95-5.11-13.24-4.48-13.53-3.84-13.79-3.18-14.04-2.51-14.27-1.81-14.49-1.1-14.68-.38zM224.6 250.36l-18.82-16.56 5.6-6.19 5.74-6.03 5.89-5.85 6.03-5.68 6.17-5.5 6.29-5.33 6.43-5.15 6.55-4.97 6.68-4.79 6.78-4.6 6.9-4.42 7.01-4.24 7.11-4.04 7.22-3.86 7.3-3.65 7.41-3.47 7.49-3.27 7.58-3.07 7.65-2.87 7.74-2.67 7.8-2.47 7.88-2.26 7.94-2.05 8.01-1.85 8.06-1.64 8.11-1.42 8.16-1.21 8.2-.99 8.25-.78 8.28-.56 8.32-.34 8.35-.1v25.06l-7.68.11-7.64.3-7.62.52-7.58.71-7.54.91-7.5 1.12-7.46 1.3-7.41 1.51-7.35 1.69-7.3 1.89-7.24 2.08-7.17 2.27-7.11 2.45-7.04 2.64-6.96 2.83-6.89 3-6.81 3.19-6.71 3.36-6.63 3.54-6.54 3.72-6.45 3.89-6.34 4.06-6.24 4.24-6.13 4.4-6.02 4.56-5.91 4.74-5.79 4.9-5.66 5.06-5.55 5.22-5.41 5.38-5.28 5.53-5.15 5.7zm-51.73 39.83 26.8-101.63 70.58 62.09-97.38 39.54zm51.73-39.83c-4.57 5.19-12.49 5.7-17.69 1.13-5.19-4.57-5.7-12.5-1.13-17.69l18.82 16.56zM308.46 303.93c0-22.35 10.39-37.21 31.18-44.59 6.93-2.46 14.75-3.69 23.47-3.69 40.67 0 61.01 20.23 61.01 60.68 0 17.44-7.49 33.53-22.46 48.28v1.68c0 2.46 1.68 5.25 5.03 8.38 3.8 2.68 6.15 4.47 7.04 5.36 1.79 1.57 3.41 3.07 4.86 4.53 1.45 1.45 2.74 2.85 3.86 4.19 2.68 2.9 4.35 9.16 5.03 18.77.22.67.33 4.69.33 12.07 0 13.18-1.23 24.14-3.69 32.85-8.49 28.61-29.28 42.92-62.35 42.92-7.6 0-13.86-.56-18.78-1.68-21.45-5.81-34.64-18.44-39.56-37.88-1.11-4.92-1.67-12.07-1.67-21.46v-13.08c.44-3.35 2.12-5.02 5.02-5.02h31.18c3.13 0 4.81 1.67 5.03 5.02.23 3.81.45 7.6.67 11.4.23 3.8.56 7.49 1.01 11.07.89 8.27 6.03 12.4 15.42 12.4 12.52 0 18.89-5.81 19.11-17.43.22-.67.33-5.59.33-14.75 0-9.84-.67-16.99-2.01-21.46-2.9-10.95-7.48-16.43-13.74-16.43h-24.14c-3.58 0-5.36-2.56-5.36-7.71v-22.46c0-5.14 1.78-7.71 5.36-7.71h24.14c.44 0 1.56-.89 3.35-2.68 2.46-2.23 4.41-4.25 5.87-6.04 1.45-1.78 2.4-3.24 2.85-4.35 1.11-4.02 1.67-9.5 1.67-16.43 0-15.64-5.36-23.47-16.09-23.47-7.6 0-12.07 2.91-13.41 8.72-.45 6.26-1.01 10.28-1.68 12.07-.67 2.46-1.78 3.69-3.35 3.69h-31.18c-.89 0-2.01-1.79-3.35-5.37v-10.39z"/><path id="g1" class="gfil1" d="M511.95 495.36c-9.6 0-18.77-1.68-27.48-5.03-24.14-9.61-36.21-27.38-36.21-53.31v-122.7c0-25.92 12.07-43.69 36.21-53.3 8.49-3.58 17.65-5.37 27.48-5.37 9.84 0 19 1.79 27.5 5.37 24.13 9.61 36.2 27.38 36.2 53.3v122.7c0 25.93-12.07 43.7-36.2 53.31-8.72 3.35-17.88 5.03-27.5 5.03zm0-40.9c10.29 0 15.43-4.14 15.43-12.41V309.29c0-8.27-5.14-12.4-15.43-12.4-10.27 0-15.42 4.69-15.42 14.08v129.4c0 9.39 5.15 14.09 15.42 14.09z"/><path id="g2" class="gfil1" d="M312.55 527.22h28.97c8.76 0 15.2 3.66 19.31 11.02 3.75 6.43 5.63 12.2 5.63 17.32v35.17c0 4.56-.94 8.97-2.82 13.17-4.92 11.02-12.51 16.52-22.79 16.52h-28.97c-1.34 0-2.01-.9-2.01-2.69v-88.5c0-1.34.89-2.01 2.68-2.01zm26.35 17.16h-9.72v58.07l.67.67c.27.09 1.5.13 3.64.13 9.1 0 13.66-4.2 13.66-12.6v-33.8c0-1.6-.45-3.44-1.34-5.49-.92-2.42-2.31-4.25-4.2-5.5-1.26-.99-2.17-1.48-2.71-1.48z"/><path id="g3" class="gfil1" d="M371.96 618.4v-.67l19.98-86.36c.62-2.77 1.52-4.15 2.68-4.15h19.31c1.34 0 2.28 1.11 2.82 3.35l21.45 87.83c.27 1.34-.22 2.02-1.47 2.02h-15.16c-1.25 0-2.14-.9-2.68-2.69-.62-2.32-1.16-4.33-1.61-6.03-.45-1.7-.85-3.13-1.2-4.29-.36-1.43-.81-2.15-1.35-2.15h-20.11l-1.34 1.48c-.45 1.7-.92 3.42-1.41 5.16-.49 1.74-.96 3.46-1.41 5.16-.62 2.24-1.52 3.36-2.68 3.36H373.3c-.89 0-1.34-.68-1.34-2.02zm31.64-58.06-5.63 26.28h13.01l-5.9-25.61c-.18-.53-.58-.8-1.21-.8-.18 0-.27.04-.27.13z"/><path id="g4" class="gfil1" d="M440.21 528.83c0-1.08.45-1.61 1.34-1.61h17.97c.72 0 1.61 1.38 2.69 4.15 1.96 5.28 3.71 9.86 5.23 13.75 1.52 3.89 2.77 7.13 3.75 9.72.36.9.8 1.79 1.34 2.68l13.81-30.3h18.64c.99 0 1.48.53 1.48 1.61 0 .8-.27 1.65-.81 2.54l-23.73 48.35v38.01c0 1.79-.81 2.69-2.42 2.69h-14.48c-1.61 0-2.41-.9-2.41-2.69v-38.55l-21.73-47.81c-.44-1.16-.67-2-.67-2.54z"/><path id="g5" class="gfil1" d="M513.3 550.82c0-12.25 5.72-20.07 17.16-23.47 3.49-.98 7.6-1.47 12.34-1.47 6.53 0 12.34.71 17.43 2.12 2.24.63 3.35 1.52 3.35 2.66v13.05c0 .98-.76 1.48-2.28 1.48-.62 0-.98-.05-1.07-.14-5.01-1-8.72-1.63-11.13-1.88-.27-.08-1.56-.13-3.89-.13-2.59 0-4.07.05-4.42.13-4.11.27-6.17 2.24-6.17 5.91 0 1.69.71 3.39 2.14 5.09.63.98 2.24 2.37 4.83 4.16 2.68 1.7 4.98 3.26 6.91 4.69 1.92 1.43 3.51 2.64 4.76 3.62 6.97 5.81 11.35 11.8 13.14 17.97.98 3.49 1.47 7.02 1.47 10.6 0 11.17-5.81 19.35-17.43 24.53-2.59 1.17-5.81 1.84-9.65 2.02h-5.37c-7.33 0-13.58-.67-18.77-2.02-1.79-.44-2.68-1.11-2.68-2.01v-15.82c0-.54.8-.8 2.41-.8h.94c.9.35 1.7.67 2.42.93.71.27 1.29.45 1.74.54.36.09.83.18 1.4.27.59.09 1.28.22 2.08.4 1.52.18 3 .33 4.43.47 1.43.13 2.86.2 4.29.2 2.77 0 4.92-.22 6.44-.67 4.2-1.61 6.3-4.43 6.3-8.45 0-4.11-2.32-7.95-6.97-11.53-6.53-4.38-11.36-7.87-14.49-10.46-7.78-6.35-11.66-13.68-11.66-21.99z"/></g></g></svg><svg xml:space="preserve" style="shape-rendering:geometricPrecision;text-rendering:geometricPrecision;image-rendering:optimizeQuality;fill-rule:evenodd;clip-rule:evenodd" viewBox="0 0 7.75 7.75" id="icon_customer" xmlns="http://www.w3.org/2000/svg"><defs><style>.hstr0{stroke:#fefefe;stroke-width:.22;stroke-linecap:round;stroke-linejoin:round;stroke-miterlimit:22.9256}.hfil1{fill:none}</style></defs><g id="hСлой_x0020_1"><circle cx="3.88" cy="3.88" r="3.88" style="fill:#198fd9"/><g id="h_3053921084096"><path class="hfil1 hstr0" d="M5.8 2.19H1.95a.29.29 0 0 0-.29.29v2.73c0 .16.13.29.29.29h.7v.77l.85-.77h2.3c.16 0 .29-.13.29-.29V2.48a.29.29 0 0 0-.29-.29z"/><circle class="hfil1 hstr0" cx="3.88" cy="3.84" r=".46"/><path class="hfil1 hstr0" d="M3.88 2.75c-.06 0-.11.01-.16.02-.03 0-.06.02-.07.06l-.02.07c-.02.05-.05.08-.1.11-.05.02-.1.01-.15-.01l-.06-.04a.118.118 0 0 0-.1.01c-.08.06-.15.14-.21.22-.03.03-.03.06-.01.09l.03.07c.03.04.03.09.01.14-.02.05-.06.09-.11.1l-.07.03c-.03.01-.06.03-.06.07-.01.05-.01.1-.01.15 0 .05 0 .1.01.15 0 .04.03.06.06.07l.07.03c.05.01.09.05.11.1.02.05.02.1-.01.14L3 4.4c-.02.03-.02.07 0 .09.06.09.14.16.22.22.03.02.06.02.09.01l.07-.04c.05-.02.1-.03.15 0 .05.02.08.05.1.1l.02.08c.01.03.04.06.07.06.05.01.1.01.16.01.05 0 .1 0 .14-.01.04 0 .07-.03.08-.06l.02-.08c.02-.05.05-.08.1-.1.05-.03.1-.02.15 0l.07.04c.03.02.07.01.09-.01.08-.06.16-.13.22-.21.02-.03.02-.06 0-.09l-.03-.08c-.03-.04-.03-.09-.01-.14.02-.05.06-.09.11-.1l.08-.03c.03-.01.05-.03.06-.07 0-.05.01-.1.01-.15 0-.05-.01-.1-.02-.15 0-.04-.02-.06-.06-.07l-.07-.03a.157.157 0 0 1-.11-.1c-.02-.05-.02-.1.01-.14l.03-.07c.02-.03.01-.07-.01-.1-.06-.08-.13-.15-.21-.21-.03-.02-.06-.02-.1-.01L4.37 3c-.05.02-.1.03-.15.01a.213.213 0 0 1-.1-.11l-.02-.07c-.01-.04-.04-.06-.07-.07-.05 0-.1-.01-.15-.01z"/></g></g></svg><svg xml:space="preserve" style="shape-rendering:geometricPrecision;text-rendering:geometricPrecision;image-rendering:optimizeQuality;fill-rule:evenodd;clip-rule:evenodd" viewBox="0 0 930.97 930.97" id="icon_free-pre-orders" xmlns="http://www.w3.org/2000/svg"><defs><style>.istr0{stroke:#fefefe;stroke-width:26.6;stroke-linecap:round;stroke-linejoin:round;stroke-miterlimit:22.9256}.ifil2{fill:none}.ifil1{fill:#fefefe;fill-rule:nonzero}</style></defs><g id="iСлой_x0020_1"><circle cx="465.49" cy="465.49" r="465.49" style="fill:#198fd9"/><g id="i_3017926152352"><path class="ifil1" d="m236.23 621.62 3.04-3.04h68.82l3.04 3.04v19.83c0 2.43-1.01 3.65-3.04 3.65h-41.7l-1.01 1.61v27.74h34.21l2.23 2.59v20.72l-2.23 2.6h-33.2l-1.62 1.42v53.44c0 2.7-1.21 4.05-3.64 4.05h-21.86c-2.03 0-3.04-1.35-3.04-4.05v-133.6z"/><path id="i1" class="ifil1" d="M392.51 700.97h-8.91v54.25c0 2.7-1.21 4.05-3.64 4.05H358.1c-2.03 0-3.04-1.35-3.04-4.05v-133.6c0-2.03 1.35-3.04 4.05-3.04h45.95c4.05 0 8.91 1.01 14.57 3.04 16.74 6.2 25.11 18.25 25.11 36.09 0 15.26-6.68 27.23-20.04 35.87-.68.67-1.02 1.01-1.02 1.01 0 .41.34 1.48 1.02 3.24l23.07 52.12c.68 2.03 1.02 3.85 1.02 5.47 0 2.56-.75 3.85-2.23 3.85h-24.9c-1.62 0-2.7-.68-3.24-2.03l-25.91-56.27zm8.3-56.48h-16.6v29.35l1.01 1.22h5.87c6.07 0 10.33-.41 12.76-1.22 6.34-2.06 9.51-6.75 9.51-14.07 0-10.19-4.18-15.28-12.55-15.28z"/><path id="i2" class="ifil1" d="m490.49 621.62 3.03-3.04h70.85l3.04 3.04v18.82c0 2.43-1.01 3.64-3.04 3.64h-43.72l-1.01 1.42v26.92h34.21l2.22 2.64v20.85l-2.22 2.42h-33.2l-1.01 1.62v33.81h47.77l2.23 2.63v20.85c0 1.35-1.08 2.03-3.24 2.03h-72.88c-2.02 0-3.03-1.35-3.03-4.05v-133.6z"/><path id="i3" class="ifil1" d="m615.59 621.62 3.04-3.04h70.85l3.03 3.04v18.82c0 2.43-1.01 3.64-3.03 3.64h-43.73l-1.01 1.42v26.92h34.21l2.23 2.64v20.85l-2.23 2.42h-33.2l-1.01 1.62v33.81h47.77l2.23 2.63v20.85c0 1.35-1.08 2.03-3.24 2.03h-72.87c-2.03 0-3.04-1.35-3.04-4.05v-133.6z"/><path class="ifil2 istr0" d="m512.56 527-47.07 27.18-184.74-106.66V234.2l184.74-106.66L650.23 234.2v64.57"/><path class="ifil2 istr0" d="m280.75 234.2 184.74 106.66L650.23 234.2M465.49 554.18V340.86"/><path class="ifil2 istr0" d="M557.86 180.87 373.12 287.52v106.67M557.86 500.85h80.19M664.26 420.85h133.32M681.97 340.86h70.52M557.86 420.85h47.02M751.75 500.85h-56.13M626.67 340.86h-38.92"/></g></g></svg><svg xml:space="preserve" style="shape-rendering:geometricPrecision;text-rendering:geometricPrecision;image-rendering:optimizeQuality;fill-rule:evenodd;clip-rule:evenodd" viewBox="0 0 7.74 7.74" id="icon_installation" xmlns="http://www.w3.org/2000/svg"><defs><style>.jfil1{fill:#fefefe;fill-rule:nonzero}</style></defs><g id="jСлой_x0020_1"><circle cx="3.87" cy="3.87" r="3.87" style="fill:#198fd9"/><g id="j_3054077518192"><path class="jfil1" d="m3.4 1.21-.22-.03.09-.1h.07l.01-.01H3.43l.01-.01h.2v.22H3.46l-.01.01h-.08l-.01.01H3.3l.1-.09zm-.1.09c-.06.01-.11-.03-.12-.09-.01-.06.03-.12.09-.13l.03.22zm-.19.37.07-.49.22.03-.07.49-.09.09-.13-.12zm.22.03c-.01.06-.07.1-.13.09-.06-.01-.1-.06-.09-.12l.22.03zm-.7.29.14-.18-.13-.01.02-.01.01-.01.02-.01h.02l.01-.01.02-.01.02-.01.01-.01.02-.01.02-.01h.01l.02-.01.02-.01.01-.01.02-.01h.02l.01-.01.02-.01h.02l.02-.01.01-.01h.02l.02-.01h.02l.02-.01.01-.01h.02l.02-.01h.02l.02-.01h.01l.02-.01.05.22h-.01l-.02.01H3.2l-.02.01h-.02l-.01.01h-.02l-.01.01H3.1l-.02.01h-.01l-.02.01h-.01l-.02.01-.01.01h-.02l-.01.01h-.02l-.01.01-.02.01-.01.01H2.9l-.01.01-.02.01h-.01l-.02.01-.01.01-.02.01-.01.01h-.01l-.02.01-.01.01h-.13zm.13 0c-.05.03-.12.02-.15-.04-.04-.05-.02-.12.03-.15l.12.19zm-.39-.48.4.3-.14.18-.39-.3v-.18h.13zm-.13.18a.113.113 0 0 1-.02-.16c.03-.04.1-.05.15-.02l-.13.18zm-.34.34-.17.13v-.13l.01-.02.01-.02.02-.02.01-.02.02-.01.01-.02.01-.02.02-.02.01-.01.02-.02.01-.02.02-.02.02-.01.01-.02.02-.01.01-.02.02-.02.02-.01.01-.02.02-.01.02-.02.01-.02.02-.01.02-.02.01-.01.02-.01.02-.02.02-.01.02-.02.01-.01.02-.02.02-.01.13.18-.02.01-.01.01-.02.02-.01.01-.02.01-.02.02-.01.01-.02.01-.01.02-.02.01-.02.01-.01.02-.02.01-.01.02-.02.01-.01.02-.01.01-.02.01-.01.02-.02.02-.01.01-.02.02-.01.01-.01.02-.02.01-.01.02-.01.01-.02.02-.01.02-.01.01-.01.02-.02.02v-.13zm0 .13c-.03.05-.1.06-.15.02-.05-.04-.06-.1-.02-.15l.17.13zm.12.39-.29-.39.17-.13.3.39.01.12-.19.01zm.18-.13c.04.05.03.12-.02.15-.05.04-.12.03-.16-.02l.18-.13zm-.29.69-.03-.22-.09.09v-.02l.01-.02v-.02l.01-.02v-.01l.01-.02v-.02l.01-.02.01-.02V2.8l.01-.02v-.02l.01-.02.01-.01.01-.02v-.02l.01-.01.01-.02v-.02l.01-.02.01-.01.01-.02.01-.02v-.01l.01-.02.01-.02.01-.01.01-.02.01-.01.01-.02.01-.02.01-.01.19.11-.01.02-.01.01-.01.02-.01.01-.01.01v.02l-.01.01-.01.02-.01.01v.02l-.01.01-.01.02v.01l-.01.02-.01.01v.02l-.01.01-.01.02v.01l-.01.02v.01l-.01.02v.02l-.01.01v.02l-.01.01v.02l-.01.01v.02L2.01 3v.01L2 3.03l-.09.08zM2 3.03a.1.1 0 0 1-.13.08c-.06-.01-.09-.07-.08-.13l.21.05zm-.61-.07.49-.07.03.22-.49.07-.12-.12.09-.1zm.03.22c-.06.01-.11-.03-.12-.09-.01-.06.03-.12.09-.13l.03.22zm.07.24h-.22V3.29l.01-.01V3.17l.01-.01v-.07l.01-.01v-.02l.22.03v.01l-.01.01v.07l-.01.01v.12l-.01.01V3.42zm-.07.24-.03.22-.09-.1v-.02l-.01-.01v-.07l-.01-.01V3.56l-.01-.01v-.13h.22v.11l.01.01V3.65l.01.01v.07l.01.01v.01l-.1-.09zm.1.09c.01.06-.03.12-.09.13-.07.01-.12-.04-.13-.1l.22-.03zm.36.2-.49-.07.03-.22.49.07.09.08-.12.14zm.03-.22c.06.01.1.06.1.12-.01.06-.07.11-.13.1l.03-.22zm.29.69-.18-.13v.12l-.01-.01L2 4.38l-.01-.01-.01-.02-.01-.02-.01-.01-.01-.02-.01-.02v-.01l-.01-.02-.01-.02-.01-.01-.01-.02v-.02l-.01-.01-.01-.02v-.02l-.01-.02-.01-.01-.01-.02v-.02l-.01-.02v-.01l-.01-.02-.01-.02v-.02l-.01-.02v-.01l-.01-.02V3.9l-.01-.02v-.02L2 3.81l.01.02v.01l.01.02v.02l.01.01v.02l.01.01v.02l.01.02v.01l.01.02V4l.01.02v.01l.01.02.01.01v.02l.01.01.01.02v.01l.01.02.01.01v.02l.01.01.01.02.01.01v.02l.01.01.01.01.01.02.01.01.01.02-.01.12zm.01-.12c.03.05.01.12-.04.15s-.12.01-.15-.04l.19-.11zm-.48.38.29-.39.18.13-.3.4-.17-.01v-.13zm.17.14c-.03.04-.1.05-.15.02a.113.113 0 0 1-.02-.16l.17.14zm.34.33.13.18h-.13l-.02-.01-.02-.02-.01-.01-.02-.02-.02-.01-.02-.01-.01-.02-.02-.01-.02-.02-.02-.01-.01-.02-.02-.01-.02-.02L2 5.12l-.02-.01-.02-.02-.01-.01-.02-.02-.01-.02-.02-.01-.02-.02-.01-.02-.02-.01-.01-.02-.02-.02-.01-.02-.01-.01-.02-.02-.01-.02-.02-.02-.01-.02-.01-.02.17-.13.02.02.01.02.01.01.01.02.02.02.01.01.01.02.02.01.01.02.01.02.02.01.01.02.02.01.01.02.02.01.01.02.01.01.02.01.01.02.02.01.01.02.02.01.02.01.01.02.02.01.01.02.02.01.02.01.01.01.02.02.01.01.02.01h-.13zm.13 0c.05.04.06.11.03.16-.04.05-.11.06-.16.02l.13-.18zm.4-.12-.4.3-.13-.18.39-.29.13-.01.01.18zm-.14-.17c.05-.04.12-.03.16.02.04.05.03.12-.02.15l-.14-.17zm.7.28-.22.03.08.1-.02-.01h-.01l-.02-.01h-.02l-.02-.01h-.02l-.01-.01h-.02l-.02-.01-.02-.01h-.02l-.01-.01-.02-.01h-.02l-.02-.01-.01-.01h-.02l-.02-.01-.01-.01-.02-.01h-.02l-.01-.01-.02-.01-.02-.01-.01-.01-.02-.01h-.02l-.01-.01-.02-.01-.02-.01-.01-.01-.02-.01.12-.19.01.01.02.01.01.01h.01l.02.01.01.01.02.01h.01l.02.01.01.01.02.01h.01l.02.01.01.01h.02l.01.01.02.01h.01l.02.01h.01l.02.01h.01l.02.01.02.01h.01l.02.01h.03l.02.01h.01l.02.01h.01l.09.09zm-.09-.09c.06.02.1.08.09.13-.02.06-.08.1-.14.09l.05-.22zm-.06.61-.07-.49.22-.03.07.49-.13.13-.09-.1zm.22-.03c.01.06-.04.12-.1.13-.06.01-.11-.04-.12-.1l.22-.03zm.24-.07v.22H3.43l-.01-.01h-.08l-.01-.01H3.27l.03-.22h.05l.01.01h.08l.01.01h.19zm.23.13.2-.08-.08.15h-.05l-.01.01h-.07l-.01.01H3.64v-.22H3.83l.01-.01h.07l.01-.01h.03l-.08.15zm.08-.15c.06-.01.12.03.13.09.01.06-.03.12-.09.13l-.04-.22zm.11-.94-.07-.21.14.15-.02.04-.01.03-.02.03-.01.03-.01.03-.01.04-.01.03-.01.03-.01.04v.03l-.01.03v.04L4 4.97v.04l-.01.03v.2l.01.04v.03l.01.04v.03l.01.03v.04l.01.03.01.03.01.04.01.03.01.03-.2.08-.02-.04-.01-.04-.01-.04-.01-.04-.01-.03-.01-.04-.01-.04v-.04l-.01-.04V5.3l-.01-.04V5.02l.01-.04v-.04l.01-.04v-.03l.01-.04.01-.04.01-.04.01-.04.01-.04.01-.04.01-.03.02-.04.01-.04.02-.04.02-.03.13.15zm-.13-.15c.02-.06.09-.08.15-.05.05.02.07.09.05.14l-.2-.09zm-.29.23v-.23H3.77l.01-.01h.05l.01-.01h.03l.01-.01h.04l.01-.01h.02l.01-.01h.02l.01-.01.07.21h-.01l-.01.01h-.01l-.02.01H4l-.01.01h-.03l-.01.01h-.03l-.01.01h-.04l-.01.01H3.8l-.01.01H3.68l-.02.01h-.02zM2.38 3.42h.22v.05l.01.06v.05l.01.05.01.05.02.05.01.05.02.04.02.05.03.04.02.05.03.04.03.04.03.04.03.04.03.03.04.04.04.03.04.03.04.03.04.02.04.03.05.02.04.02.05.02.05.02.05.01.05.01.05.01.05.01h.11v.23l-.07-.01h-.06l-.07-.01-.06-.01-.06-.01-.06-.02-.06-.02-.05-.02-.06-.03-.05-.03-.06-.03-.05-.03-.05-.03-.04-.04-.05-.04-.04-.04-.04-.05-.04-.04-.04-.05-.04-.05-.03-.05-.03-.05-.03-.06-.02-.05-.02-.06-.02-.06-.02-.06-.01-.06-.02-.06v-.06l-.01-.07v-.06zm1.26-1.25v.22h-.11l-.05.01-.05.01-.05.01-.05.01-.05.02-.05.02-.04.02-.05.02-.04.03-.04.02-.04.03-.04.03-.04.04-.04.03-.03.04-.03.03-.03.04-.03.04-.03.04-.02.05-.03.04-.02.05-.02.04-.01.05-.02.05-.01.05-.01.05v.05l-.01.06v.05h-.22v-.06l.01-.07v-.06l.02-.06.01-.06.02-.06.02-.06.02-.06.02-.05.03-.06.03-.05.03-.05.04-.05.04-.05.04-.04.04-.05.04-.04.05-.04.04-.04.05-.03.05-.03.06-.03.05-.03.06-.03.05-.02.06-.02.06-.02.06-.01.06-.01.07-.01h.13zm1.25 1.25h-.22v-.05l-.01-.06v-.05l-.01-.05-.01-.05-.02-.05-.01-.05-.02-.04-.02-.05-.03-.04-.02-.05-.03-.04-.03-.04-.03-.04-.03-.03-.03-.04-.04-.03-.04-.04-.04-.03-.04-.03-.04-.02-.04-.03-.05-.02-.04-.02-.05-.02-.05-.02-.05-.01-.05-.01-.05-.01-.05-.01h-.1v-.22h.12l.07.01.06.01.06.01.06.02.06.02.05.02.06.03.05.03.06.03.05.03.05.03.04.04.05.04.04.04.04.05.04.04.04.05.04.05.03.05.03.05.03.06.02.05.02.06.02.06.02.06.01.06.02.06v.06l.01.07v.06zm-.23.3.1.2-.15-.14v-.02l.01-.01v-.02l.01-.01v-.03l.01-.01v-.03l.01-.01v-.05l.01-.01v-.07l.01-.01V3.42h.22V3.53l-.01.02v.05l-.01.02v.04l-.01.01v.04l-.01.02v.02l-.01.02v.01l-.01.01v.03l-.01.01v.01l-.01.02-.15-.14zm.15.14c-.02.05-.08.08-.14.06-.06-.02-.09-.08-.06-.14l.2.08zm.94-.11.22.03-.15.09-.03-.01-.03-.01-.03-.01-.04-.01-.03-.01-.03-.01h-.04l-.03-.01h-.04l-.03-.01h-.1l-.04-.01h-.03l-.03.01H5.18l-.03.01h-.03l-.04.01-.03.01h-.03l-.04.01-.03.01-.03.01-.04.01-.03.02-.03.01-.03.01-.03.02-.1-.2.04-.02.03-.01.04-.02.04-.01.04-.02.04-.01.03-.01.04-.01L5 3.6l.04-.01h.04l.04-.01.04-.01h.08l.04-.01h.12l.03.01h.08l.04.01h.04l.04.01.04.01.04.01.04.01.04.01.04.01.03.01.04.01-.15.09zm.15-.09c.06.03.09.09.07.15-.03.05-.09.08-.15.06l.08-.21zm-.12-.24H6v.14l-.01.01V3.67l-.01.01v.07l-.01.01v.02l-.22-.03v-.01l.01-.01v-.07l.01-.01V3.55l.01-.01V3.42zm.07-.24.03-.22.09.1v.02l.01.01V3.16l.01.01V3.27l.01.01v.14h-.22V3.31l-.01-.02V3.19l-.01-.01v-.07l-.01-.01v-.01l.1.09zm-.1-.09c-.01-.06.03-.12.1-.13.06-.01.11.04.12.1l-.22.03zm-.36-.2.49.07-.03.22-.49-.07-.09-.08.12-.14zm-.03.22a.119.119 0 0 1-.1-.12c.01-.06.07-.1.13-.1l-.03.22zm-.29-.69.18.13v-.12l.01.01.01.02.01.02.01.01.01.02.01.01.01.02.01.02v.01l.01.02.01.02.01.01.01.02v.02l.01.02.01.01.01.02v.02l.01.01.01.02v.02l.01.02v.01l.01.02.01.02v.02l.01.02v.01l.01.02v.02l.01.02v.02l-.21.05-.01-.02V3l-.01-.02v-.02l-.01-.01v-.02l-.01-.01V2.9l-.01-.01v-.02l-.01-.02v-.01l-.01-.02v-.01l-.01-.02-.01-.01v-.02l-.01-.01-.01-.02v-.01l-.01-.02-.01-.01v-.02l-.01-.01-.01-.02-.01-.01v-.02L5.1 2.6l-.01-.01-.01-.02-.01-.01-.01-.02.01-.12zm-.01.12a.113.113 0 0 1 .04-.15c.05-.03.12-.01.15.04l-.19.11zm.48-.38-.29.39-.18-.13.3-.39h.17v.13zm-.17-.13c.03-.05.1-.06.15-.03.05.04.06.11.02.16l-.17-.13zm-.34-.34-.13-.18h.13l.02.01.02.02.01.01.02.02.02.01.02.02.02.01.01.01.02.02.02.01.01.02.02.02.02.01.01.02.02.01.02.02.01.02.02.01.01.02.02.01.02.02.01.02.02.02.01.01.02.02.01.02.01.02.02.01.01.02.02.02.01.02.01.02-.17.13-.02-.02-.01-.02-.01-.01-.01-.02-.02-.02-.01-.01-.01-.02-.02-.01-.01-.02L5.24 2l-.02-.02-.01-.02-.02-.01-.01-.02-.02-.01-.01-.01-.01-.02-.02-.01-.01-.02-.02-.01-.01-.02-.02-.01-.02-.01-.01-.02-.02-.01L5 1.77l-.02-.02-.02-.01-.01-.01-.02-.02-.01-.01-.02-.01h.13zm-.13 0c-.05-.04-.06-.11-.03-.15.04-.05.11-.06.16-.03l-.13.18zm-.4.12.4-.3.13.18-.39.3h-.13l-.01-.18zm.14.18c-.05.03-.12.02-.16-.03-.04-.05-.03-.12.02-.15l.14.18zm-.7-.29.22-.03-.08-.1.02.01h.01l.02.01h.02l.02.01h.02l.02.01.01.01h.02l.02.01h.02l.01.01.02.01h.02l.02.01.01.01h.02l.02.01.01.01.02.01.02.01h.02l.01.01.02.01.01.01.02.01.02.01.01.01h.02l.02.01.01.01.02.01-.12.19-.01-.01-.02-.01h-.01l-.01-.01-.02-.01-.01-.01-.02-.01H4.4l-.02-.01-.01-.01h-.02l-.01-.01-.02-.01-.01-.01h-.02l-.01-.01h-.02l-.01-.01-.02-.01h-.01l-.02-.01h-.01l-.02-.01h-.02l-.01-.01h-.02l-.01-.01h-.02l-.02-.01h-.01l-.02-.01h-.01l-.09-.09zm.09.09a.113.113 0 0 1-.09-.13c.02-.06.08-.1.14-.09l-.05.22zm.06-.61.07.49-.22.03-.07-.49.13-.13.09.1zm-.22.03c-.01-.06.04-.12.1-.13.06 0 .11.04.12.1l-.22.03zm-.23.07v-.22h.19l.01.01h.09l.01.01H4l-.03.22H3.91l-.01-.01h-.08l-.01-.01h-.17zM4.63 4.31v.22l-.08-.18.08-.04zm.08 1.47-.16.15-.04-.04-.04-.04-.03-.05-.03-.04-.03-.05-.03-.05-.02-.05-.02-.05-.02-.05-.02-.05-.01-.05-.02-.06V5.3l-.01-.05v-.06l-.01-.05.01-.05v-.06l.01-.05v-.05l.02-.06.01-.05.02-.05.02-.05.02-.05.02-.05.03-.05.03-.05.03-.04.03-.05.04-.04.04-.04.16.15-.03.04-.03.03-.03.04-.03.03-.02.04-.02.04-.02.04-.02.04-.01.04-.02.04-.01.04-.01.05-.01.04v.26l.01.04.01.04.01.05.02.04.01.04.02.04.02.04.02.04.02.04.03.03.03.04.03.03.03.04zm.56.87-.72-.72.16-.15.71.71v.16h-.15zm.15-.16c.05.04.05.11 0 .16-.04.04-.11.04-.15 0l.15-.16zm.72-.56-.72.72-.15-.16.71-.71.16.15zm-.08-1.4v-.22l.08.04.04.04.03.04.04.05.03.04.03.05.03.05.02.05.02.05.02.05.02.05.01.05.02.06v.05l.01.05v.06l.01.05-.01.05v.06l-.01.05v.05l-.02.06-.01.05-.02.05-.02.05-.02.05-.02.05-.03.05-.03.05-.03.04-.04.05-.03.04-.04.04-.16-.15.03-.04.03-.03.03-.04.03-.03.02-.04.02-.04.02-.04.02-.04.01-.04.02-.04.01-.05.01-.04.01-.04v-.26l-.01-.04-.01-.05-.01-.04-.02-.04-.01-.04-.02-.04-.02-.04-.02-.04-.02-.04-.03-.03-.03-.04-.03-.03-.03-.04.08.03zm0-.22v.22l-.08-.03.08-.19zm-1.43.22v-.22l-.08.04.04-.04.05-.04.04-.04.05-.03.04-.03.05-.02.05-.03.05-.02.05-.02.06-.02.05-.01.05-.01.05-.01.06-.01H5.45l.06.01.05.01.05.01.05.01.06.02.05.02.05.02.05.03.05.02.04.03.05.03.04.04.05.04.04.04-.16.15-.03-.03-.04-.03-.03-.03-.04-.02-.04-.03-.04-.02-.04-.02-.04-.01-.04-.02-.04-.01-.04-.01-.04-.01-.05-.01-.04-.01h-.17l-.04.01-.05.01-.04.01-.04.01-.04.01-.04.02-.05.01-.03.02-.04.02-.04.03-.04.02-.03.03-.04.03-.03.03-.08.03zM4.98 5.14h-.23l.01-.03v-.06l.01-.03v-.03l.01-.03.01-.02.01-.03.01-.03.02-.02.01-.03.02-.02.01-.02.02-.03.02-.02.02-.02.02-.02.02-.02.02-.01.02-.02.03-.02.02-.01.03-.01.03-.01.02-.02h.03l.03-.01.03-.01h.03l.02-.01h.06v.22h-.05l-.02.01h-.02l-.02.01h-.01l-.02.01-.02.01h-.01l-.02.01-.01.01-.02.01-.01.01-.01.02-.02.01-.01.01-.01.01-.01.02-.01.01-.01.02-.01.01-.01.02L5 5v.01l-.01.02v.02l-.01.01v.08zm.36.37v.22h-.06l-.02-.01h-.03l-.03-.01-.03-.01-.03-.01-.02-.01-.03-.01-.03-.01-.02-.02-.03-.01-.02-.02-.02-.02-.02-.01-.02-.02-.02-.02-.02-.03-.02-.02-.01-.02-.02-.02-.01-.03-.02-.02-.01-.03-.01-.03-.01-.03-.01-.02v-.03l-.01-.03v-.06l-.01-.03h.23V5.21l.01.02v.02l.01.02v.01l.01.02.01.02.01.01.01.02.01.01.01.01.01.02.01.01.02.01.01.01.01.02.02.01.01.01h.02l.01.01.02.01.02.01h.01l.02.01h.04l.02.01h.03zm.37-.37h.23l-.01.03v.06l-.01.03v.03l-.01.02-.01.03-.01.03-.01.03-.02.02-.01.03-.02.02-.01.02-.02.02-.02.03-.02.02-.02.02-.02.01-.02.02-.02.02-.03.01-.02.02-.03.01-.03.01-.02.01-.03.01-.03.01-.03.01h-.03l-.02.01h-.07v-.22h.04l.02-.01h.04l.01-.01h.02l.02-.01.02-.01.01-.01h.02l.01-.01.02-.01.01-.02.01-.01.02-.01.01-.01.01-.02.01-.01.01-.01.01-.02.01-.01.01-.02.01-.02v-.01l.01-.02v-.02l.01-.02v-.07zm-.37-.37v-.22h.07l.02.01h.03l.03.01.03.01h.03l.02.02.03.01.03.01.02.01.03.02.02.02.02.01.02.02.02.02.02.02.02.02.02.03.01.02.02.02.01.03.02.02.01.03.01.03.01.02.01.03v.03l.01.03v.06l.01.03h-.23v-.08l-.01-.01v-.02l-.01-.02V5l-.01-.02-.01-.02-.01-.01-.01-.02-.01-.01-.01-.02-.01-.01-.01-.01-.02-.01-.01-.02-.01-.01-.02-.01-.01-.01-.02-.01h-.01l-.02-.01-.02-.01h-.02l-.01-.01h-.02l-.02-.01h-.06z"/></g></g></svg><svg xml:space="preserve" style="shape-rendering:geometricPrecision;text-rendering:geometricPrecision;image-rendering:optimizeQuality;fill-rule:evenodd;clip-rule:evenodd" viewBox="0 0 7.75 7.75" id="icon_life-time-warranty" xmlns="http://www.w3.org/2000/svg"><defs><style>.kstr0{stroke:#fefefe;stroke-width:.22;stroke-linecap:round;stroke-linejoin:round;stroke-miterlimit:22.9256}.kfil1{fill:none}</style></defs><g id="kСлой_x0020_1"><circle cx="3.88" cy="3.88" r="3.88" style="fill:#198fd9"/><g id="k_3053988800752"><path class="kfil1 kstr0" d="M3.88 6.51c1.3-.41 1.99-1.47 2.06-3.16V2.13c-.72-.21-1.41-.5-2.06-.88-.66.38-1.34.67-2.06.88v1.22c.06 1.69.75 2.75 2.06 3.16z"/><path class="kfil1 kstr0" d="M3.88 6.04c1.17-.44 1.56-1.48 1.61-2.7v-.88c-.56-.19-1.1-.42-1.61-.7-.52.28-1.06.51-1.62.7v.88c.05 1.22.44 2.26 1.62 2.7z"/><path class="kfil1 kstr0" d="m3.51 4.79 1.47-1.48-.25-.25-1.22 1.22-.48-.48-.26.25z"/></g></g></svg><svg xml:space="preserve" style="shape-rendering:geometricPrecision;text-rendering:geometricPrecision;image-rendering:optimizeQuality;fill-rule:evenodd;clip-rule:evenodd" viewBox="0 0 7.74 7.74" id="icon_modern_solutions" xmlns="http://www.w3.org/2000/svg"><defs><style>.lstr0{stroke:#fefefe;stroke-width:.22;stroke-linecap:round;stroke-linejoin:round;stroke-miterlimit:22.9256}.lfil1{fill:none}.lfil2{fill:#fefefe;fill-rule:nonzero}</style></defs><g id="lСлой_x0020_1"><circle cx="3.87" cy="3.87" r="3.87" style="fill:#198fd9"/><g id="l_3053986773120"><circle class="lfil1 lstr0" cx="3.87" cy="3.02" r=".44"/><path class="lfil1 lstr0" d="M3.87 1.98c-.05 0-.1.01-.15.01-.03.01-.06.03-.07.06l-.02.07c-.01.05-.05.08-.09.1a.17.17 0 0 1-.14 0l-.06-.04c-.03-.01-.07-.01-.09.01-.08.06-.15.13-.21.21-.02.02-.02.06-.01.09l.03.06c.03.04.03.09.01.14-.02.05-.05.08-.1.09l-.07.02c-.03.01-.05.04-.06.07 0 .05-.01.1-.01.15 0 .05.01.1.01.14.01.04.03.06.06.07l.07.02c.05.02.08.05.1.1.02.04.02.09-.01.14l-.03.06c-.01.03-.01.06.01.09.06.08.12.15.2.21.03.02.06.02.09 0l.07-.03c.04-.03.09-.03.14-.01.04.02.08.06.09.11l.02.07c.01.03.04.05.07.06.05 0 .1.01.15.01.05 0 .09-.01.14-.01.03-.01.06-.03.07-.06l.02-.07c.01-.05.05-.09.09-.11.05-.02.1-.02.15.01l.06.03c.03.02.07.02.09 0 .08-.06.15-.13.21-.21a.06.06 0 0 0 0-.08l-.03-.07a.142.142 0 0 1-.01-.14c.02-.05.06-.08.1-.1l.08-.02c.03-.01.05-.04.05-.07.01-.05.01-.09.01-.14 0-.05 0-.1-.01-.15 0-.03-.02-.06-.05-.06l-.08-.03a.147.147 0 0 1-.1-.09c-.02-.05-.02-.1.01-.14l.03-.07c.02-.03.01-.06-.01-.09-.06-.07-.12-.14-.2-.2a.097.097 0 0 0-.09-.01l-.06.04c-.05.02-.1.02-.15 0-.04-.02-.08-.05-.09-.1l-.02-.07c-.01-.03-.04-.05-.07-.06-.05 0-.09-.01-.14-.01z"/><path class="lfil2" d="M5.41 2.55c-.06.01-.12-.02-.13-.08-.02-.06.02-.12.07-.13l.06.21zm1.2-.09-.19.11-.01-.01v-.01l-.01-.01-.01-.01-.02-.01-.01-.01h-.02l-.01-.01-.02-.01-.02-.01h-.03l-.02-.01-.03-.01h-.05l-.04-.01h-.14l-.04.01h-.08l-.05.01h-.04l-.05.01-.05.01-.05.01-.05.01-.05.01-.05.02-.06.01-.06-.21.06-.02.06-.01.05-.02.06-.01.05-.01.05-.01h.05l.05-.01.05-.01h.05l.05-.01H6.14l.04.01h.04l.03.01h.04l.03.01.04.01.03.01.03.02.03.01.03.02.02.01.03.02.02.03.02.02.02.03.02.02zM4.36 4.9l-.11-.19.13-.08.14-.08.12-.08.13-.08.12-.08.12-.08.11-.09.12-.08.1-.08.11-.08.09-.08.1-.08.09-.08.08-.08.08-.08.08-.08.07-.07.07-.07.06-.07.05-.07.05-.07.04-.07.04-.06.03-.06.02-.05.02-.05.01-.05.01-.04v-.07l-.01-.02-.01-.03.19-.11.03.06.02.06v.13l-.01.07-.02.07-.02.06-.03.07-.04.07-.04.07-.05.08-.05.07-.06.07-.07.08-.07.08-.07.08-.08.08-.08.08-.09.08-.1.08-.09.09-.11.08-.1.08-.11.09-.12.08-.11.09-.12.08-.13.08-.13.09-.13.08-.13.08-.14.08zm-3.23.73.19-.11.01.02.02.02.03.02.03.02.04.01.04.01.06.01.06.01H1.82l.08-.01.09-.01.09-.02.1-.02.1-.02.1-.03.11-.03.11-.04.11-.04.12-.04.12-.04.12-.05.13-.05.12-.06.13-.06.13-.06.13-.06.14-.07.13-.07.13-.07.14-.08.11.19-.14.08-.13.07-.14.08-.14.07-.13.06-.13.06-.14.06-.13.06-.12.05-.13.05-.12.05-.12.04-.12.04-.12.04-.11.03-.11.03-.1.03-.11.02-.09.01-.1.02-.09.01h-.25l-.07-.01-.07-.01-.07-.02-.06-.02-.06-.03-.05-.04-.05-.05-.03-.05zm.32-.94.16.14-.02.04-.03.03-.02.03-.02.03-.03.03-.02.03-.02.03-.02.02-.01.03-.02.03-.01.03-.02.02-.01.03-.01.02-.01.02-.01.03-.01.02-.01.02v.02l-.01.02v.13l.01.01v.01l.01.01-.19.11-.02-.02-.01-.03-.01-.02v-.03l-.01-.03v-.02l-.01-.03v-.03l.01-.02v-.06l.01-.03v-.03l.01-.03.01-.02.01-.03.01-.03.02-.03.01-.03.02-.03.01-.03.02-.03.02-.03.02-.04.02-.03.02-.03.02-.03.03-.03.02-.04.03-.03.03-.03.03-.04zm-.02-.41.17.14v.01l-.01.01-.01.01v.02h-.01v.03l-.01.01v.04l.01.01v.03l.01.01v.01l.01.01v.01h.01v.01l.01.01.01.01-.14.17-.02-.02-.01-.01-.01-.02-.02-.01-.01-.02-.01-.01-.01-.02-.01-.02v-.01l-.01-.02-.01-.02v-.02l-.01-.01v-.04l-.01-.02v-.07l.01-.02v-.04l.01-.02.01-.01v-.02l.01-.02.01-.02.01-.01.01-.02.01-.01.01-.02zm.55-.04-.14.16h-.01l-.01-.01h-.01l-.01-.01h-.01l-.01-.01h-.04l-.01-.01h-.01v.01h-.04l-.01.01h-.02v.01h-.02v.01l-.01.01h-.01v.01H1.6l-.17-.14.02-.01.01-.02.02-.01.01-.01.02-.02.01-.01.02-.01.01-.01h.02l.02-.01.02-.01h.01l.02-.01h.06l.02-.01h.03l.02.01h.04l.02.01h.02l.01.01h.02l.02.01.02.01.01.01.02.01.01.01.02.02zm.04.54-.16-.14v-.01l.01-.01v-.01l.01-.01v-.01l.01-.01V4.48l-.01-.01v-.01l-.01-.01v-.01h-.01v-.01l-.01-.01-.01-.01V4.4l.14-.16.01.01.02.01.01.02.01.01.02.02.01.01.01.02v.02l.01.01.01.02.01.02v.02l.01.01v.06l.01.02v.02l-.01.02v.05l-.01.02v.02l-.01.01-.01.02v.02l-.01.02-.01.01-.01.02-.01.02-.02.01zm-.54.05.14-.17h.01v.01h.01l.01.01h.01l.01.01h.03l.01.01h.03l.01-.01h.03l.01-.01h.01l.01-.01h.01l.01-.01h.01v-.01l.01-.01h.01l.16.14-.01.02-.01.01-.02.01-.01.02-.02.01-.01.01-.02.01-.02.01h-.01l-.02.01-.02.01h-.02l-.02.01h-.03l-.02.01H1.7l-.01-.01h-.04l-.02-.01h-.02l-.02-.01h-.01l-.02-.01-.02-.01-.01-.01-.02-.01-.02-.01-.01-.01zm-.03-.14a.1.1 0 0 1 .15-.01.1.1 0 0 1 .01.15l-.16-.14z"/><path class="lfil2" d="M2.38 2.34c.06.01.1.07.08.13-.01.06-.08.09-.13.08l.05-.21zm-1.06.23-.19-.11.01-.02.02-.03.02-.02.03-.03.02-.02.03-.01.03-.02.03-.01.03-.02.03-.01.03-.01.04-.01h.03l.04-.01h.04l.04-.01h.21l.05.01h.04l.05.01.05.01h.05l.06.01.05.01.05.01.06.02.05.01.06.02-.05.21-.06-.01-.05-.02-.05-.01-.06-.01-.04-.01-.05-.01-.05-.01h-.05l-.04-.01H1.8l-.04-.01h-.15l-.03.01h-.06l-.02.01-.03.01h-.02l-.02.01-.02.01-.02.01h-.01l-.02.01-.01.01-.01.01-.01.01-.01.01v.01zm2.17 2.14-.11.19-.14-.08-.14-.08-.13-.08-.12-.09-.13-.08-.12-.08-.12-.09-.11-.08-.11-.09-.11-.08-.1-.08-.1-.09-.09-.08-.09-.08-.08-.08-.08-.08-.08-.08-.07-.08-.06-.08-.06-.07-.05-.07-.05-.08-.04-.07-.04-.07-.03-.07-.03-.06-.01-.07-.01-.07-.01-.06.01-.07.02-.06.03-.06.19.11-.01.03-.01.02V2.73l.02.05.01.05.03.05.03.06.04.06.04.07.05.07.05.07.06.07.07.07.07.07.07.08.08.08.09.08.09.08.09.08.1.08.1.08.11.08.11.08.12.09.12.08.12.08.12.08.13.08.13.08.14.08zm1.22.6-.08.2-.04-.01-.04-.02-.04-.01-.03-.02-.04-.02-.04-.01-.04-.02-.04-.02-.04-.01-.04-.02-.04-.02-.04-.02-.03-.02-.04-.02-.04-.01-.04-.02-.04-.02-.04-.02-.04-.02-.04-.02-.04-.02-.04-.02-.04-.02-.04-.03-.04-.02-.04-.02-.04-.02-.04-.02-.04-.02-.04-.03-.03-.02-.04-.02.11-.19.03.02.04.02.04.02.04.03.04.02.04.02.04.02.04.02.03.02.04.02.04.02.04.02.04.02.04.02.04.02.03.02.04.02.04.02.04.01.04.02.04.02.03.02.04.01.04.02.04.02.04.01.03.02.04.02.04.01.04.02.03.01.04.02zm.39-.14-.08.2H5l-.01-.01h-.08l-.01.01h-.01l-.01.01h-.01l-.01.01h-.01v.01h-.01v.01h-.01l-.01.01v.01l-.01.01v.01l-.01.01-.21-.08.01-.02.01-.01.01-.02.01-.02.01-.01.01-.02.02-.01.01-.02.01-.01.02-.01.01-.01.02-.02.01-.01h.02l.01-.01.02-.01.02-.01h.02l.01-.01h.02l.02-.01h.13l.02.01h.02l.02.01.02.01zm.21.5-.2-.08v-.02l.01-.01v-.07l-.01-.01v-.02l-.01-.01v-.01h-.01v-.02h-.01v-.01h-.01l-.01-.01-.01-.01h-.01v-.01h-.01l-.01-.01.08-.2h.02l.01.01.02.01.02.01.01.01.02.01.01.02.02.01.01.01.01.02.01.01.01.02.01.01.01.02.01.02.01.01.01.02v.02l.01.01v.02l.01.02v.11l-.01.02v.04l-.01.02-.01.02zm-.5.21.08-.2h.02l.01.01h.07L5 5.68h.02l.01-.01h.01l.01-.01.01-.01h.01v-.01h.01v-.01l.01-.01.01-.01v-.02h.01l.2.08v.02l-.01.01-.01.02-.01.02-.01.01-.02.02-.01.01-.01.02-.01.01-.02.01-.01.01-.02.01-.01.01-.02.01-.02.01-.01.01-.02.01h-.02l-.02.01h-.01l-.02.01h-.13l-.02-.01h-.02l-.02-.01-.02-.01zm-.22-.5.21.08v.01l-.01.01v.09l.01.01v.02h.01v.01l.01.01.01.01v.01h.01v.01h.01l.01.01.01.01h.01v.01h.01l-.08.2h-.02l-.02-.01-.01-.01-.02-.01-.01-.01-.02-.01-.01-.02-.02-.01-.01-.01-.01-.02-.02-.01-.01-.02-.01-.01-.01-.02v-.02l-.01-.01-.01-.02v-.02l-.01-.02v-.01l-.01-.02v-.13l.01-.02v-.02l.01-.02v-.02zm.12-.07c.06.02.09.09.06.14-.02.06-.08.09-.14.06l.08-.2z"/><path class="lfil1 lstr0" d="M5.7 5.72c.43.07.72.02.82-.14.16-.29-.26-.89-1.08-1.53"/></g></g></svg><svg xml:space="preserve" style="shape-rendering:geometricPrecision;text-rendering:geometricPrecision;image-rendering:optimizeQuality;fill-rule:evenodd;clip-rule:evenodd" viewBox="0 0 7.74 7.74" id="icon_quick-response" xmlns="http://www.w3.org/2000/svg"><defs><style>.mstr0{stroke:#fefefe;stroke-width:.22;stroke-linecap:round;stroke-linejoin:round;stroke-miterlimit:22.9256}.mfil1{fill:none}</style></defs><g id="mСлой_x0020_1"><circle cx="3.87" cy="3.87" r="3.87" style="fill:#198fd9"/><g id="m_3053924959792"><path class="mfil1 mstr0" d="m3.87 1.06 1.25.72v1.44l-1.25.72-1.24-.72V1.78z"/><path class="mfil1 mstr0" d="m2.63 1.78 1.24.72 1.25-.72M3.87 3.94V2.5M2.63 3.22l1.24.72v1.43l-1.24.72-1.25-.72V3.94z"/><path class="mfil1 mstr0" d="m1.38 3.94 1.25.71 1.24-.71M2.63 6.09V4.65M5.12 3.22l1.24.72v1.43l-1.24.72-1.25-.72V3.94z"/><path class="mfil1 mstr0" d="m3.87 3.94 1.25.71 1.24-.71M5.12 6.09V4.65"/><circle class="mstr0" cx="5.12" cy="3.22" r=".71" style="fill:#198fd9"/><path class="mfil1 mstr0" d="m5.42 3-.43.43-.17-.17"/></g></g></svg><svg xml:space="preserve" style="shape-rendering:geometricPrecision;text-rendering:geometricPrecision;image-rendering:optimizeQuality;fill-rule:evenodd;clip-rule:evenodd" viewBox="0 0 892.63 892.63" id="icon_support" xmlns="http://www.w3.org/2000/svg"><defs><style>.nfil1{fill:#fefefe;fill-rule:nonzero}</style></defs><g id="nСлой_x0020_1"><circle cx="446.32" cy="446.32" r="446.31" style="fill:#198fd9"/><g id="n_3017932495472"><path class="nfil1" d="m389.48 731.64 25.25-3.6-10.67-10.8 1.29.2 1.29.19 1.31.18 1.28.18 1.3.17 1.32.17 1.28.16 1.31.15 1.33.16 1.29.14 1.31.13 1.33.13 1.3.13 1.32.11 1.32.11 1.31.11 1.33.1 1.33.09 1.31.09 1.33.08 1.33.07 1.34.07 1.33.06 1.34.05 1.34.05 1.34.04 1.32.04 1.33.03 1.36.02 1.35.02 1.33.01h1.35v25.5h-1.46l-1.48-.01-1.46-.02-1.45-.02-1.48-.03-1.47-.04-1.46-.05-1.45-.05-1.46-.06-1.45-.07-1.45-.07-1.45-.08-1.45-.09-1.46-.09-1.44-.1-1.43-.11-1.46-.11-1.44-.13-1.43-.13-1.45-.13-1.42-.14-1.44-.15-1.44-.16-1.41-.16-1.43-.17-1.44-.18-1.41-.17-1.42-.19-1.43-.2-1.4-.2-1.42-.21-1.41-.22-10.68-10.8zm10.68 10.8c-6.96-1.07-11.73-7.59-10.65-14.55 1.07-6.96 7.59-11.72 14.55-10.65l-3.9 25.2zm5.7-76.61 8.87 62.21-25.25 3.6-8.87-62.21 15.59-14.2 9.66 10.6zm-25.25 3.6c-.99-6.97 3.86-13.43 10.83-14.42 6.97-1 13.43 3.85 14.42 10.82l-25.25 3.6zm-45.59-18.9-15.31-20.39 14.33-.67 1.78 1.08 1.8 1.07 1.81 1.06 1.81 1.03 1.83 1.01 1.84 1 1.85.98 1.87.97 1.87.94 1.88.93 1.9.91 1.9.89 1.91.88 1.91.85 1.95.84 1.94.82 1.94.8 1.96.78 1.98.76 1.98.75 1.99.72 2 .71 2.01.68 2.01.67 2.03.65 2.04.63 2.03.61 2.06.58 2.06.58 2.06.54 2.08.53 2.08.51-5.92 24.81-2.34-.57-2.32-.6-2.32-.61-2.3-.64-2.3-.66-2.29-.68-2.27-.7-2.27-.73-2.26-.75-2.24-.76-2.24-.79-2.23-.82-2.21-.83-2.21-.85-2.19-.87-2.2-.91-2.17-.91-2.16-.94-2.15-.96-2.15-.97-2.13-1-2.11-1.02-2.11-1.04-2.1-1.06-2.08-1.07-2.07-1.1-2.06-1.12-2.05-1.14-2.03-1.16-2.03-1.18-2-1.19-2-1.21 14.33-.67zm-14.33.67c-6-3.69-7.88-11.54-4.19-17.54 3.68-6 11.54-7.88 17.54-4.19l-13.35 21.73zm-51.22 16.64 50.24-37.7 15.31 20.39-50.24 37.71-15.19.09-.12-20.49zm15.31 20.4c-5.63 4.23-13.63 3.09-17.86-2.54-4.22-5.63-3.08-13.63 2.55-17.86l15.31 20.4zm-80.39-80.38 20.4 15.3.09-15.18 1.58 2.14 1.6 2.12 1.61 2.1 1.64 2.08 1.66 2.08 1.68 2.05 1.7 2.04 1.7 2.02 1.75 2.01 1.75 1.99 1.77 1.96 1.8 1.96 1.8 1.94 1.83 1.91 1.85 1.9 1.86 1.89 1.89 1.86 1.9 1.85 1.91 1.83 1.94 1.8 1.95 1.8 1.97 1.77 1.99 1.75 2.01 1.74 2.02 1.71 2.04 1.7 2.05 1.68 2.07 1.65 2.09 1.64 2.11 1.62 2.12 1.6 2.13 1.58-15.06 20.58-2.33-1.72-2.32-1.75-2.29-1.77-2.28-1.78-2.27-1.81-2.24-1.84-2.23-1.85-2.21-1.88-2.19-1.89-2.17-1.92-2.15-1.93-2.13-1.96-2.12-1.98-2.1-2-2.07-2.01-2.06-2.04-2.04-2.06-2.02-2.07-1.99-2.1-1.98-2.12-1.95-2.12-1.95-2.16-1.91-2.17-1.89-2.19-1.88-2.21-1.86-2.23-1.83-2.24-1.81-2.26-1.78-2.28-1.78-2.3-1.74-2.32-1.72-2.33.09-15.18zm-.09 15.18c-4.16-5.68-2.92-13.66 2.76-17.82s13.66-2.92 17.82 2.76l-20.58 15.06zm58.19-50.12-37.7 50.24-20.4-15.3 37.71-50.25 21.06.98-.67 14.33zm-20.39-15.31c4.22-5.63 12.22-6.77 17.85-2.54 5.63 4.22 6.77 12.22 2.54 17.85l-20.39-15.31zm-18.9-45.59 3.6-25.25 10.6 9.66.51 2.08.53 2.08.55 2.08.57 2.04.59 2.06.6 2.04.63 2.04.65 2.02.67 2.01.68 2.01.71 2 .73 1.99.74 1.99.76 1.96.78 1.96.8 1.95.82 1.94.84 1.94.85 1.92.88 1.91.89 1.9.91 1.9.93 1.89.94 1.86.97 1.86.98 1.85.99 1.84 1.02 1.83 1.03 1.82 1.06 1.81 1.07 1.8 1.08 1.78-21.73 13.35-1.22-2-1.19-2.01-1.17-2.02-1.16-2.04-1.13-2.04-1.12-2.06-1.1-2.07-1.08-2.08-1.07-2.11-1.03-2.1-1.02-2.11-1-2.13-.98-2.15-.95-2.15-.94-2.16-.92-2.17-.89-2.19-.88-2.2-.85-2.21-.84-2.22-.8-2.21-.8-2.25-.76-2.25-.75-2.25-.73-2.27-.7-2.28-.68-2.28-.66-2.3-.64-2.31-.61-2.31-.59-2.32-.57-2.33 10.6 9.66zm-10.6-9.66c-1.64-6.85 2.59-13.73 9.44-15.37 6.85-1.64 13.73 2.59 15.36 9.44l-24.8 5.93zm-48.01-24.46 62.21 8.87-3.6 25.25-62.21-8.87-10.81-10.68 14.41-14.57zm-3.6 25.25c-6.98-.99-11.82-7.45-10.83-14.43 1-6.97 7.46-11.81 14.43-10.82l-3.6 25.25zm-1.59-69.58v25.5l12.75-12.75.01 1.35.01 1.33.02 1.35.01 1.35.04 1.34.03 1.34.04 1.33.05 1.34.05 1.33.07 1.34.06 1.33.08 1.33.08 1.32.08 1.32.1 1.34.09 1.31.11 1.32.11 1.32.12 1.32.12 1.32.13 1.31.14 1.31.14 1.3.15 1.32.15 1.31.16 1.3.17 1.3.17 1.29.18 1.31.18 1.29.19 1.3.2 1.29-25.21 3.89-.21-1.41-.21-1.41-.2-1.42-.19-1.41-.2-1.43-.17-1.42-.18-1.43-.17-1.43-.16-1.41-.16-1.44-.14-1.44-.15-1.43-.13-1.44-.13-1.43-.12-1.44-.11-1.44-.11-1.46-.1-1.43-.1-1.44-.08-1.47-.08-1.45-.08-1.45-.06-1.45-.06-1.45-.06-1.46-.04-1.47-.04-1.46-.03-1.46-.03-1.46-.02-1.47-.01-1.48v-1.46l12.75-12.75zm-12.75 12.75c0-7.04 5.71-12.75 12.75-12.75s12.75 5.71 12.75 12.75h-25.5zm153.95 12.75H159.4v-25.5h141.2l12.75 12.75-12.75 12.75zm0-25.5c7.04 0 12.75 5.71 12.75 12.75s-5.71 12.75-12.75 12.75v-25.5zm-12.75 12.75h25.5-25.5zm158.46 132.97v25.5l-8.14-.2-8.04-.61-7.93-1.02-7.81-1.39-7.67-1.77-7.52-2.13-7.37-2.5-7.2-2.84-7.02-3.17-6.84-3.5-6.63-3.82-6.43-4.12-6.22-4.42-5.98-4.7-5.75-4.98-5.5-5.25-5.24-5.49-4.98-5.75-4.7-5.98-4.42-6.22-4.13-6.43-3.81-6.63-3.5-6.84-3.17-7.03-2.84-7.19-2.5-7.37-2.13-7.52-1.77-7.68-1.4-7.8-1.01-7.93-.61-8.05-.2-8.14h25.5l.17 6.86.52 6.75.84 6.66 1.17 6.55 1.49 6.43 1.79 6.3 2.09 6.17 2.37 6.04 2.67 5.88 2.93 5.73 3.2 5.57 3.46 5.4 3.71 5.21 3.95 5.02 4.18 4.83 4.41 4.62 4.62 4.41 4.82 4.18 5.03 3.95 5.21 3.71 5.4 3.46 5.56 3.2 5.74 2.94 5.88 2.65 6.04 2.38 6.17 2.09 6.3 1.79 6.43 1.48 6.55 1.17 6.66.85 6.75.52 6.85.17zm132.97-132.97h25.51l-.21 8.14-.61 8.05-1.01 7.93-1.39 7.8-1.77 7.68-2.14 7.52-2.49 7.37-2.84 7.19-3.17 7.03-3.51 6.84-3.81 6.63-4.12 6.43-4.42 6.22-4.7 5.98-4.98 5.75-5.25 5.49-5.5 5.25-5.75 4.98-5.98 4.7-6.21 4.42-6.43 4.12-6.64 3.82-6.83 3.5-7.03 3.18-7.2 2.83-7.36 2.5-7.53 2.13-7.67 1.77-7.81 1.39-7.93 1.02-8.04.61-8.15.2v-25.5l6.86-.17 6.76-.52 6.65-.85 6.55-1.17 6.43-1.48 6.3-1.79 6.18-2.09 6.03-2.38 5.89-2.66 5.73-2.93 5.57-3.2 5.39-3.46 5.21-3.71 5.03-3.95 4.83-4.18 4.62-4.41 4.41-4.62 4.18-4.83 3.95-5.02 3.71-5.21 3.45-5.4 3.2-5.57 2.94-5.73 2.66-5.88 2.38-6.04 2.09-6.17 1.79-6.3 1.48-6.43 1.17-6.55.85-6.66.51-6.75.17-6.86zm0 0c0-7.04 5.71-12.75 12.76-12.75 7.04 0 12.75 5.71 12.75 12.75h-25.51zm25.51 0h-25.51l12.76-12.75 12.75 12.75zm-25.51 0c0-7.04 5.71-12.75 12.76-12.75 7.04 0 12.75 5.71 12.75 12.75h-25.51zm153.95 12.75H592.04v-25.5h141.19l12.76 12.75-12.76 12.75zm0-25.5c7.05 0 12.76 5.71 12.76 12.75s-5.71 12.75-12.76 12.75v-25.5zm-1.58 69.58-3.61-25.25-10.8 10.68.2-1.29.19-1.3.19-1.29.17-1.3.18-1.31.16-1.29.16-1.3.16-1.32.15-1.3.14-1.31.14-1.33.12-1.29.13-1.32.12-1.32.1-1.32.11-1.32.1-1.31.09-1.34.09-1.32.08-1.32.07-1.33.07-1.33.06-1.34.06-1.33.04-1.34.05-1.33.03-1.34.03-1.34.02-1.35.02-1.35.01-1.33v-1.35h25.51l-.01 1.46-.01 1.48-.02 1.47-.02 1.46-.03 1.46-.04 1.46-.05 1.47-.05 1.46-.06 1.45-.07 1.45-.07 1.45-.08 1.45-.09 1.47-.09 1.44-.1 1.43-.11 1.46-.11 1.44-.13 1.44-.13 1.43-.13 1.44-.14 1.45-.15 1.42-.15 1.43-.17 1.44-.17 1.41-.17 1.43-.18 1.43-.19 1.41-.2 1.42-.2 1.42-.21 1.41-.21 1.41-10.8 10.68zm10.8-10.68c-1.08 6.96-7.59 11.73-14.55 10.66-6.96-1.08-11.73-7.59-10.66-14.55l25.21 3.89zm-76.62-5.7 62.21-8.87 3.61 25.25-62.21 8.87-14.21-15.59 10.6-9.66zm3.61 25.25c-6.98.99-13.43-3.85-14.43-10.82-.99-6.98 3.85-13.44 10.82-14.43l3.61 25.25zm-18.91 45.59-20.39 15.31-.67-14.33 1.08-1.78 1.07-1.8 1.06-1.81 1.03-1.81 1.01-1.83 1-1.84.98-1.85.97-1.87.94-1.87.93-1.88.91-1.89.89-1.91.88-1.91.85-1.92.84-1.93.82-1.95.8-1.95.78-1.95.76-1.98.75-1.99.72-1.97.71-2.01.69-2.01.66-2.01.65-2.02.63-2.04.61-2.04.59-2.05.56-2.06.56-2.07.52-2.07.51-2.09 24.81 5.93-.57 2.33-.59 2.33-.62 2.31-.64 2.31-.66 2.29-.68 2.28-.7 2.28-.72 2.27-.76 2.27-.76 2.23-.79 2.24-.81 2.24-.84 2.21-.85 2.2-.88 2.21-.89 2.18-.92 2.17-.94 2.16-.96 2.16-.97 2.14-1 2.13-1.02 2.12-1.04 2.11-1.06 2.09-1.08 2.08-1.09 2.07-1.12 2.06-1.14 2.05-1.16 2.03-1.18 2.03-1.19 2-1.21 2-.67-14.33zm.67 14.33c-3.69 6-11.54 7.88-17.54 4.19-6-3.68-7.88-11.54-4.19-17.54l21.73 13.35zm16.64 51.23-37.7-50.25 20.39-15.31 37.71 50.25.09 15.18-20.49.13zm20.4-15.31c4.22 5.63 3.08 13.62-2.55 17.85-5.63 4.23-13.62 3.09-17.85-2.54l20.4-15.31zm-80.38 80.38 15.3-20.4-15.18-.09 2.14-1.58 2.12-1.6 2.1-1.61 2.08-1.64 2.08-1.66 2.05-1.68 2.04-1.7 2.02-1.71 2.01-1.74 1.99-1.75 1.96-1.77 1.96-1.8 1.94-1.8 1.91-1.83 1.9-1.85 1.89-1.86 1.86-1.89 1.85-1.9 1.82-1.91 1.81-1.94 1.8-1.95 1.77-1.98 1.75-1.98 1.74-2.01 1.71-2.02 1.7-2.03 1.68-2.06 1.65-2.07 1.64-2.09 1.62-2.1 1.6-2.12 1.58-2.14 20.58 15.06-1.72 2.34-1.75 2.31-1.77 2.3-1.79 2.28-1.81 2.26-1.83 2.25-1.85 2.22-1.88 2.21-1.89 2.19-1.92 2.18-1.94 2.15-1.95 2.13-1.97 2.11-2.01 2.1-2.01 2.08-2.04 2.05-2.06 2.04-2.07 2.01-2.1 2-2.12 1.98-2.12 1.95-2.16 1.95-2.17 1.91-2.19 1.89-2.21 1.88-2.23 1.86-2.24 1.83-2.26 1.81-2.28 1.78-2.3 1.78-2.32 1.74-2.33 1.72-15.18-.09zm15.18.09c-5.68 4.16-13.66 2.92-17.82-2.76s-2.92-13.66 2.76-17.82l15.06 20.58zm-50.12-58.19 50.24 37.7-15.3 20.4-50.25-37.71.98-21.06 14.33.67zm-15.31 20.39c-5.63-4.22-6.77-12.22-2.54-17.85 4.23-5.63 12.22-6.77 17.85-2.54l-15.31 20.39zm-45.59 18.9-25.25-3.6 9.66-10.6 2.08-.51 2.08-.53 2.06-.54 2.06-.58 2.05-.58 2.05-.62 2.03-.62 2.03-.65 2.01-.66 2.01-.69 2.01-.71 1.98-.72 1.98-.75 1.97-.76 1.96-.78 1.95-.8 1.95-.82 1.93-.83 1.92-.86 1.91-.88 1.9-.89 1.9-.91 1.88-.93 1.88-.94 1.85-.96 1.85-.99 1.85-1 1.83-1.01 1.81-1.03 1.81-1.06 1.79-1.06 1.79-1.09 13.36 21.73-2 1.21-2.01 1.2-2.03 1.17-2.03 1.16-2.06 1.14-2.04 1.11-2.08 1.11-2.09 1.08-2.09 1.05-2.11 1.04-2.11 1.02-2.13 1-2.15.97-2.15.96-2.17.94-2.16.92-2.19.89-2.19.88-2.22.86-2.21.83-2.23.81-2.24.79-2.24.77-2.26.74-2.27.73-2.28.7-2.28.68-2.3.66-2.3.64-2.32.61-2.32.6-2.34.57 9.67-10.61zm-9.67 10.61c-6.85 1.63-13.73-2.6-15.36-9.45-1.64-6.84 2.59-13.73 9.44-15.36l5.92 24.81zm-24.45 48 8.87-62.21 25.25 3.6-8.87 62.22-10.68 10.8-14.57-14.41zm25.25 3.61c-1 6.97-7.46 11.81-14.43 10.82-6.97-.99-11.82-7.45-10.82-14.43l25.25 3.61zm-56.84 14.33v-25.5h1.36l1.33-.01 1.35-.02 1.36-.02 1.33-.03 1.33-.04 1.33-.04 1.35-.05 1.33-.05 1.33-.06 1.34-.07 1.33-.07 1.33-.08 1.31-.09 1.33-.09 1.33-.1 1.31-.11 1.32-.11 1.32-.11 1.31-.13 1.32-.13 1.29-.13 1.33-.15 1.31-.14 1.31-.16 1.3-.16 1.28-.16 1.32-.18 1.29-.17 1.3-.19 1.29-.19 1.29-.2 3.9 25.21-1.41.21-1.42.21-1.41.2-1.42.2-1.41.19-1.44.18-1.42.17-1.43.17-1.43.16-1.42.16-1.44.15-1.43.14-1.44.13-1.43.13-1.44.13-1.46.11-1.43.11-1.44.1-1.46.09-1.45.09-1.45.08-1.45.07-1.45.07-1.46.06-1.45.05-1.46.05-1.48.04-1.47.03-1.45.02-1.46.02-1.48.01h-1.47zM372.46 446.32h25.5-25.5zm73.85 48.36v25.5l-3.78-.1-3.75-.28-3.69-.47-3.64-.65-3.59-.82-3.5-1.01-3.43-1.15-3.36-1.33-3.28-1.48-3.19-1.63-3.09-1.78-3-1.92-2.89-2.06-2.79-2.19-2.67-2.32-2.57-2.44-2.44-2.57-2.32-2.67-2.19-2.79-2.06-2.9-1.92-2.98-1.78-3.1-1.63-3.2-1.48-3.27-1.33-3.36-1.16-3.43-1-3.51-.82-3.58-.65-3.64-.47-3.69-.29-3.75-.09-3.79h25.5l.07 2.5.18 2.46.31 2.42.42 2.39.54 2.33.65 2.29.77 2.24.86 2.19.97 2.14 1.06 2.08 1.16 2.02 1.26 1.97 1.36 1.9 1.43 1.83 1.52 1.75 1.6 1.69 1.69 1.6 1.75 1.52 1.83 1.44 1.9 1.35 1.96 1.25 2.03 1.17 2.08 1.06 2.14.97 2.19.86 2.24.77 2.3.65 2.32.53 2.38.43 2.42.3 2.47.19 2.49.07zm48.37-48.36h25.5l-.1 3.79-.28 3.75-.47 3.69-.65 3.64-.82 3.58-1.01 3.51-1.15 3.43-1.33 3.36-1.48 3.28-1.63 3.19-1.78 3.09-1.92 2.99-2.06 2.9-2.19 2.79-2.32 2.67-2.44 2.56-2.57 2.45-2.68 2.32-2.78 2.19-2.9 2.06-2.99 1.92-3.1 1.78-3.19 1.63-3.27 1.48-3.36 1.33-3.43 1.16-3.51 1-3.59.82-3.64.65-3.69.47-3.74.28-3.8.1v-25.5l2.51-.07 2.46-.19 2.42-.3 2.38-.43 2.33-.53 2.29-.66 2.25-.76 2.19-.86 2.14-.97 2.08-1.06 2.02-1.17 1.97-1.25 1.89-1.35 1.84-1.44 1.76-1.52 1.67-1.6 1.61-1.69 1.52-1.76 1.43-1.82 1.36-1.9 1.25-1.96 1.17-2.03 1.07-2.08.96-2.14.86-2.19.77-2.24.65-2.29.53-2.33.43-2.39.3-2.42.19-2.46.07-2.5zm0 0c0-7.04 5.71-12.75 12.75-12.75s12.75 5.71 12.75 12.75h-25.5zm25.5 0h-25.5l12.75-12.75 12.75 12.75zm-25.5 0c0-7.04 5.71-12.75 12.75-12.75s12.75 5.71 12.75 12.75h-25.5zm-109.47-12.75h122.22v25.5H385.21l-12.75-12.75 12.75-12.75zm0 25.5c-7.04 0-12.75-5.71-12.75-12.75s5.71-12.75 12.75-12.75v25.5z"/><path class="nfil1" d="M159.4 433.57v25.5l-12.75-12.75.2-8.14.62-8.05 1.01-7.93 1.39-7.8 1.77-7.68 2.13-7.52 2.5-7.37 2.84-7.2 3.17-7.02 3.5-6.84 3.82-6.63 4.12-6.43 4.42-6.21 4.7-5.99 4.98-5.75 5.25-5.5 5.5-5.24 5.74-4.98 5.99-4.71 6.21-4.41 6.43-4.12 6.63-3.82 6.84-3.51 7.03-3.17 7.19-2.83 7.37-2.5 7.53-2.14 7.67-1.77 7.81-1.39 7.92-1.01 8.05-.61 8.14-.21v25.51l-6.85.17-6.76.52-6.65.84-6.55 1.17-6.43 1.48-6.3 1.8-6.18 2.08-6.03 2.38-5.89 2.66-5.73 2.94-5.57 3.2-5.39 3.46-5.22 3.71-5.02 3.95-4.83 4.18-4.62 4.4-4.41 4.62-4.18 4.83-3.94 5.03-3.71 5.21-3.46 5.4-3.21 5.57-2.93 5.73-2.66 5.88-2.38 6.04-2.09 6.17-1.79 6.3-1.48 6.43-1.17 6.55-.85 6.66-.51 6.75-.18 6.86-12.75-12.75zm12.75 12.75c0 7.04-5.71 12.75-12.75 12.75s-12.75-5.71-12.75-12.75h25.5zm128.45 12.75H159.4v-25.5h141.2l12.75 12.75-12.75 12.75zm0-25.5c7.04 0 12.75 5.71 12.75 12.75s-5.71 12.75-12.75 12.75v-25.5zm68.93-103.6 12.38-22.3v22.3l-3.8 2.19-3.71 2.31-3.63 2.42-3.54 2.54-3.46 2.65-3.37 2.77-3.28 2.86-3.18 2.98-3.07 3.07-2.99 3.17-2.87 3.27-2.77 3.36-2.66 3.46-2.55 3.54-2.43 3.62-2.31 3.71-2.2 3.79-2.07 3.86-1.95 3.94-1.81 4.01-1.69 4.08-1.55 4.15-1.43 4.21-1.28 4.27-1.14 4.34-1 4.38-.85 4.44-.7 4.5-.55 4.55-.4 4.59-.24 4.63-.08 4.69h-25.5l.09-5.56.29-5.52.47-5.47.66-5.41.84-5.36 1.01-5.3 1.19-5.24 1.36-5.17 1.53-5.09 1.69-5.03 1.86-4.95 2.02-4.87 2.17-4.78 2.32-4.7 2.47-4.61 2.61-4.52 2.76-4.41 2.9-4.32 3.03-4.22 3.17-4.11 3.3-4.01 3.42-3.89 3.55-3.78 3.66-3.66 3.79-3.53 3.9-3.42 4.01-3.29 4.11-3.16 4.23-3.03 4.33-2.88 4.42-2.75 4.52-2.61v22.3zm0-22.3c6.16-3.41 13.93-1.19 17.34 4.96 3.42 6.16 1.19 13.93-4.96 17.34l-12.38-22.3zm-64.41 5.68v-25.51l2.6.03 2.6.06 2.58.1 2.58.15 2.55.18 2.56.23 2.54.27 2.52.3 2.52.35 2.51.39 2.5.42 2.46.47 2.47.5 2.45.54 2.44.57 2.43.62 2.39.65 2.39.69 2.39.73 2.35.76 2.35.79 2.33.84 2.31.86 2.29.9 2.27.94 2.27.97 2.23 1.01 2.21 1.03 2.21 1.08 2.19 1.1 2.16 1.13 2.14 1.17-12.38 22.3-1.8-.98-1.81-.95-1.83-.93-1.84-.89-1.87-.87-1.88-.85-1.88-.81-1.91-.78-1.92-.76-1.94-.73-1.94-.7-1.97-.66-1.98-.64-1.98-.6-2.01-.58-2.03-.55-2.02-.52-2.04-.48-2.05-.45-2.07-.42-2.08-.39-2.09-.36-2.1-.32-2.11-.29-2.12-.26-2.14-.23-2.13-.19-2.16-.15-2.16-.13-2.17-.08-2.18-.06-2.2-.01zM733.23 459.07v-25.5l-12.75 12.75-.17-6.86-.52-6.75-.84-6.66-1.17-6.55-1.48-6.43-1.79-6.3-2.09-6.17-2.38-6.04-2.67-5.88-2.93-5.74-3.2-5.56-3.46-5.4-3.71-5.21-3.95-5.03-4.18-4.82-4.4-4.63-4.62-4.4-4.83-4.18-5.03-3.95-5.21-3.71-5.4-3.46-5.57-3.2-5.73-2.94-5.88-2.66-6.04-2.38-6.17-2.08-6.31-1.8-6.43-1.48-6.54-1.17-6.66-.84-6.76-.52-6.85-.17v-25.51l8.14.21 8.05.61 7.93 1.01 7.8 1.39 7.67 1.77 7.53 2.14 7.37 2.5 7.2 2.83 7.02 3.18 6.83 3.5 6.65 3.82 6.42 4.12 6.21 4.41 5.99 4.71 5.75 4.98 5.5 5.24 5.24 5.5 4.98 5.75 4.71 5.99 4.41 6.21 4.12 6.43 3.82 6.63 3.5 6.84 3.18 7.02 2.84 7.2 2.49 7.37 2.14 7.52 1.77 7.68 1.39 7.8 1.01 7.93.61 8.05.21 8.14-12.76 12.75zm12.76-12.75c0 7.04-5.71 12.75-12.76 12.75-7.04 0-12.75-5.71-12.75-12.75h25.51zm-153.96-12.75h141.2v25.5h-141.2l-12.75-12.75 12.75-12.75zm0 25.5c-7.04 0-12.75-5.71-12.75-12.75s5.71-12.75 12.75-12.75v25.5zm-81.31-151.4 12.38 22.3v-22.3l4.52 2.61 4.42 2.75 4.33 2.88 4.23 3.03 4.11 3.16 4.01 3.29 3.9 3.42 3.79 3.53 3.67 3.66 3.54 3.78 3.43 3.89 3.29 4.01 3.17 4.11 3.03 4.22 2.9 4.31 2.76 4.42 2.62 4.52 2.46 4.61 2.33 4.7 2.17 4.78 2.01 4.87 1.86 4.95 1.69 5.03 1.53 5.09 1.36 5.17 1.19 5.24 1.02 5.3.83 5.36.66 5.41.47 5.47.29 5.52.1 5.56h-25.51l-.08-4.69-.24-4.63-.4-4.59-.55-4.55-.7-4.5-.85-4.44-1-4.38-1.14-4.34-1.28-4.27-1.42-4.21-1.55-4.15-1.69-4.08-1.82-4.01-1.95-3.94-2.07-3.86-2.2-3.79-2.31-3.71-2.43-3.62-2.55-3.54-2.66-3.46-2.77-3.36-2.87-3.27-2.98-3.17-3.08-3.07-3.18-2.98-3.27-2.86-3.37-2.77-3.47-2.65-3.54-2.54-3.63-2.42-3.71-2.31-3.8-2.19v-22.3zm0 22.3c-6.15-3.41-8.37-11.18-4.96-17.34 3.41-6.15 11.18-8.37 17.34-4.96l-12.38 22.3zm76.79-42.13v25.51l-2.19.01-2.19.06-2.17.08-2.16.13-2.16.15-2.13.19-2.13.23-2.13.26-2.11.29-2.09.32-2.09.36-2.09.39-2.06.42-2.06.45-2.03.48-2.03.52-2.03.55-2 .57-1.98.61-1.99.64-1.96.66-1.95.7-1.93.73-1.93.76-1.9.78-1.89.81-1.88.85-1.87.87-1.83.89-1.84.93-1.81.95-1.8.98-12.38-22.3 2.15-1.17 2.15-1.13 2.19-1.1 2.21-1.08 2.21-1.03 2.24-1.01 2.26-.97 2.27-.94 2.3-.9 2.31-.86 2.33-.84 2.34-.79 2.35-.76 2.39-.73 2.39-.69 2.4-.65 2.42-.61 2.44-.58 2.46-.54 2.46-.5 2.47-.47 2.49-.42 2.51-.39 2.52-.35 2.52-.3 2.54-.27 2.56-.23 2.56-.18 2.57-.15 2.59-.1 2.59-.06 2.6-.03zM388.47 230h-25.5l.11-4.28.32-4.23.53-4.17.73-4.11.93-4.04 1.13-3.95 1.31-3.87 1.49-3.8 1.68-3.7 1.84-3.59 2-3.49 2.17-3.39 2.33-3.26 2.47-3.15 2.61-3.02 2.76-2.89 2.89-2.76 3.03-2.62 3.15-2.47 3.26-2.32 3.38-2.17 3.5-2.01 3.59-1.84 3.69-1.67 3.79-1.5 3.88-1.3 3.96-1.13 4.04-.93 4.1-.74 4.18-.53 4.23-.32 4.27-.11v25.51l-2.99.07-2.94.23-2.9.36-2.84.51-2.8.65-2.74.77-2.68.92-2.62 1.03-2.56 1.15-2.5 1.29-2.42 1.39-2.34 1.5-2.27 1.61-2.19 1.72-2.1 1.82-2.01 1.92-1.92 2.02-1.82 2.09-1.72 2.19-1.62 2.27-1.5 2.35-1.39 2.42-1.28 2.5-1.16 2.55-1.03 2.62-.91 2.69-.78 2.74-.64 2.79-.51 2.85-.37 2.89-.22 2.94-.08 3zm57.85 57.84v25.51l-4.27-.11-4.23-.32-4.18-.53-4.1-.73-4.04-.94-3.96-1.12-3.88-1.31-3.79-1.5-3.69-1.67-3.59-1.84-3.5-2-3.38-2.18-3.26-2.32-3.15-2.47-3.03-2.61-2.89-2.77-2.76-2.89-2.62-3.02-2.46-3.15-2.33-3.26-2.17-3.39-2.01-3.49-1.83-3.59-1.68-3.7-1.49-3.79-1.31-3.87-1.13-3.96-.93-4.04-.73-4.11-.53-4.17-.32-4.23-.11-4.27h25.5l.08 2.99.22 2.94.37 2.89.51 2.85.64 2.8.78 2.73.91 2.69 1.03 2.62 1.16 2.56 1.28 2.5 1.39 2.42 1.5 2.34 1.62 2.27 1.72 2.19 1.82 2.1 1.91 2.01 2.01 1.92 2.11 1.82 2.19 1.72 2.27 1.61 2.34 1.51 2.42 1.39 2.5 1.28 2.56 1.15 2.62 1.03 2.68.92 2.74.77 2.8.65 2.84.51 2.9.36 2.94.23 2.99.07zM504.17 230h25.5l-.11 4.27-.32 4.23-.53 4.17-.73 4.11-.93 4.04-1.13 3.96-1.31 3.87-1.49 3.79-1.68 3.7-1.83 3.59-2.01 3.49-2.17 3.39-2.33 3.26-2.46 3.15-2.62 3.02-2.76 2.89-2.89 2.77-3.03 2.61-3.14 2.47-3.27 2.32-3.38 2.18-3.49 2-3.59 1.84-3.7 1.67-3.8 1.5-3.87 1.31-3.96 1.12-4.04.94-4.1.73-4.18.53-4.22.32-4.28.11v-25.51l2.99-.07 2.94-.23 2.9-.36 2.85-.51 2.78-.65 2.75-.77 2.69-.92 2.61-1.03 2.56-1.15 2.49-1.28 2.43-1.39 2.34-1.51 2.28-1.61 2.18-1.72 2.1-1.82 2.02-1.92 1.91-2.01 1.82-2.1 1.72-2.19 1.62-2.27 1.5-2.34 1.39-2.42 1.28-2.5 1.16-2.56 1.03-2.62.91-2.69.78-2.73.64-2.8.51-2.85.37-2.89.22-2.94.08-2.99zm-57.85-57.85v-25.51l4.28.11 4.22.32 4.18.53 4.1.74 4.04.93 3.96 1.13 3.87 1.3 3.8 1.5 3.7 1.67 3.59 1.84 3.49 2.01 3.38 2.17 3.27 2.32 3.14 2.47 3.03 2.62 2.89 2.76 2.75 2.89 2.62 3.02 2.47 3.15 2.33 3.26 2.17 3.39 2 3.49 1.84 3.59 1.68 3.7 1.49 3.8 1.31 3.87 1.13 3.95.93 4.04.73 4.11.53 4.17.32 4.23.11 4.28h-25.5l-.08-3-.22-2.94-.37-2.89-.51-2.85-.64-2.79-.78-2.74-.91-2.69-1.03-2.62-1.16-2.55-1.28-2.5-1.39-2.42-1.5-2.35-1.62-2.27-1.72-2.19-1.82-2.09-1.92-2.02-2.01-1.92-2.1-1.82-2.18-1.72-2.28-1.61-2.34-1.5-2.43-1.4-2.49-1.28-2.56-1.15-2.61-1.03-2.69-.92-2.75-.77-2.78-.65-2.85-.51-2.9-.36-2.94-.23-2.99-.07z"/><path class="nfil1" d="M554.29 230h-25.5l.11-4.28.32-4.23.53-4.17.73-4.11.93-4.04 1.13-3.95 1.31-3.87 1.49-3.8 1.68-3.7 1.84-3.59 2-3.49 2.17-3.39 2.33-3.26 2.47-3.15 2.62-3.02 2.75-2.89 2.89-2.76 3.03-2.62 3.15-2.47 3.26-2.32 3.38-2.17 3.5-2.01 3.59-1.84 3.7-1.67 3.79-1.5 3.87-1.3 3.96-1.13 4.04-.93 4.1-.74 4.18-.53 4.23-.32 4.27-.11v25.51l-2.99.07-2.94.23-2.89.36-2.85.51-2.8.65-2.74.77-2.68.92-2.62 1.03-2.56 1.15-2.5 1.29-2.42 1.39-2.34 1.5-2.27 1.61-2.19 1.72-2.1 1.82-2.01 1.92-1.92 2.02-1.82 2.09-1.72 2.19-1.62 2.27-1.5 2.35-1.39 2.42-1.28 2.5-1.16 2.55-1.03 2.62-.91 2.69-.78 2.74-.64 2.79-.51 2.85-.37 2.89-.22 2.94-.08 3zm57.85 57.84v25.51l-4.27-.11-4.23-.32-4.18-.53-4.1-.73-4.04-.94-3.96-1.12-3.87-1.31-3.79-1.5-3.7-1.67-3.59-1.84-3.5-2-3.38-2.18-3.26-2.32-3.15-2.47-3.02-2.61-2.9-2.77-2.76-2.89-2.61-3.02-2.47-3.15-2.33-3.26-2.17-3.39-2.01-3.49-1.83-3.59-1.68-3.7-1.49-3.79-1.31-3.87-1.13-3.96-.93-4.04-.73-4.11-.53-4.17-.32-4.23-.11-4.27h25.5l.08 2.99.22 2.94.37 2.89.51 2.85.64 2.8.78 2.73.91 2.69 1.03 2.62 1.16 2.56 1.28 2.5 1.39 2.42 1.5 2.34 1.62 2.27 1.72 2.19 1.82 2.1 1.92 2.01 2.01 1.92 2.1 1.82 2.19 1.72 2.27 1.61 2.34 1.51 2.42 1.39 2.5 1.28 2.56 1.15 2.62 1.03 2.68.92 2.74.77 2.8.65 2.85.51 2.89.36 2.94.23 2.99.07zM669.99 230h25.51l-.11 4.27-.32 4.23-.53 4.17-.74 4.11-.93 4.04-1.13 3.96-1.3 3.87-1.5 3.79-1.67 3.7-1.84 3.59-2.01 3.49-2.17 3.39-2.32 3.26-2.47 3.15-2.62 3.02-2.76 2.89-2.89 2.77-3.02 2.61-3.15 2.47-3.26 2.32-3.39 2.18-3.49 2-3.59 1.84-3.7 1.67-3.79 1.5-3.87 1.31-3.97 1.12-4.04.94-4.1.73-4.17.53-4.23.32-4.28.11v-25.51l3-.07 2.94-.23 2.89-.36 2.85-.51 2.79-.65 2.74-.77 2.69-.92 2.62-1.03 2.55-1.15 2.5-1.28 2.43-1.39 2.34-1.51 2.27-1.61 2.19-1.72 2.1-1.82 2.01-1.92 1.91-2.01 1.82-2.1 1.73-2.19 1.61-2.27 1.5-2.34 1.39-2.42 1.28-2.5 1.16-2.56 1.03-2.62.91-2.69.78-2.73.65-2.8.51-2.85.36-2.89.23-2.94.07-2.99zm-57.85-57.85v-25.51l4.28.11 4.23.32 4.17.53 4.1.74 4.04.93 3.97 1.13 3.87 1.3 3.79 1.5 3.7 1.67 3.59 1.84 3.49 2.01 3.39 2.17 3.26 2.32 3.15 2.47 3.02 2.62 2.9 2.76 2.75 2.89 2.62 3.02 2.47 3.15 2.32 3.26 2.17 3.39 2.01 3.49 1.84 3.59 1.67 3.7 1.5 3.8 1.3 3.87 1.13 3.95.93 4.04.74 4.11.53 4.17.32 4.23.11 4.28h-25.51l-.07-3-.23-2.94-.36-2.89-.51-2.85-.65-2.79-.78-2.74-.91-2.69-1.03-2.62-1.16-2.55-1.27-2.5-1.4-2.42-1.5-2.35-1.61-2.27-1.72-2.19-1.82-2.09-1.92-2.02-2.01-1.92-2.1-1.82-2.19-1.72-2.27-1.61-2.34-1.5-2.43-1.39-2.5-1.29-2.55-1.15-2.62-1.03-2.69-.92-2.74-.77-2.79-.65-2.85-.51-2.89-.36-2.94-.23-3-.07zM222.65 230h-25.5l.11-4.28.31-4.23.54-4.17.73-4.11.93-4.04 1.13-3.95 1.31-3.87 1.49-3.8 1.67-3.7 1.84-3.59 2.01-3.49 2.17-3.39 2.32-3.26 2.48-3.15 2.61-3.02 2.76-2.89 2.89-2.76 3.02-2.62 3.15-2.47 3.26-2.32 3.39-2.17 3.49-2.01 3.59-1.84 3.7-1.67 3.8-1.5 3.87-1.3 3.96-1.13 4.03-.93 4.11-.74 4.17-.53 4.23-.32 4.28-.11v25.51l-3 .07-2.94.23-2.89.36-2.85.51-2.79.65-2.74.77-2.69.92-2.62 1.03-2.55 1.15-2.5 1.28-2.42 1.4-2.34 1.5-2.28 1.61-2.18 1.72-2.1 1.82-2.02 1.92-1.91 2.02-1.82 2.09-1.72 2.19-1.62 2.27-1.5 2.35-1.39 2.42-1.28 2.5-1.16 2.55-1.03 2.62-.91 2.69-.78 2.74-.64 2.79-.51 2.85-.37 2.89-.22 2.94-.08 3zm57.85 57.84v25.51l-4.28-.11-4.23-.32-4.17-.53-4.11-.73-4.03-.94-3.96-1.12-3.87-1.31-3.8-1.5-3.7-1.67-3.59-1.84-3.49-2-3.39-2.18-3.26-2.32-3.15-2.47-3.02-2.61-2.89-2.77-2.76-2.89-2.62-3.02-2.47-3.15-2.32-3.26-2.17-3.39-2.01-3.49-1.84-3.59-1.67-3.7-1.49-3.79-1.31-3.87-1.13-3.96-.93-4.04-.73-4.11-.54-4.17-.31-4.23-.11-4.27h25.5l.08 2.99.22 2.94.37 2.89.51 2.85.64 2.8.78 2.73.91 2.69 1.03 2.62 1.16 2.56 1.28 2.5 1.39 2.42 1.5 2.34 1.62 2.27 1.72 2.19 1.82 2.1 1.91 2.01 2.01 1.92 2.11 1.82 2.18 1.72 2.28 1.61 2.34 1.51 2.42 1.39 2.5 1.28 2.55 1.15 2.62 1.03 2.69.92 2.74.77 2.79.65 2.85.51 2.89.36 2.94.23 3 .07zM338.34 230h25.51l-.11 4.27-.32 4.23-.53 4.17-.73 4.11-.94 4.04-1.12 3.96-1.31 3.87-1.5 3.79-1.67 3.7-1.84 3.59-2 3.49-2.18 3.39-2.32 3.26-2.47 3.15-2.61 3.02-2.76 2.89-2.9 2.77-3.02 2.61-3.15 2.47-3.26 2.32-3.39 2.18-3.49 2-3.59 1.84-3.7 1.67-3.79 1.5-3.87 1.31-3.96 1.12-4.04.94-4.11.73-4.17.53-4.23.32-4.27.11v-25.51l2.99-.07 2.94-.23 2.89-.36 2.85-.51 2.8-.65 2.73-.77 2.69-.92 2.62-1.03 2.56-1.15 2.5-1.28 2.42-1.39 2.34-1.51 2.27-1.61 2.19-1.72 2.1-1.82 2.01-1.92 1.92-2.01 1.82-2.1 1.72-2.19 1.61-2.27 1.51-2.34 1.39-2.42 1.28-2.5 1.16-2.56 1.02-2.62.92-2.69.77-2.73.65-2.8.51-2.85.37-2.89.22-2.94.07-2.99zm-57.84-57.85v-25.51l4.27.11 4.23.32 4.17.53 4.11.74 4.04.93 3.96 1.13 3.87 1.3 3.79 1.5 3.7 1.67 3.59 1.84 3.49 2.01 3.39 2.17 3.26 2.32 3.15 2.47 3.03 2.62 2.89 2.76 2.75 2.89 2.62 3.02 2.47 3.15 2.32 3.26 2.18 3.39 2 3.49 1.84 3.59 1.67 3.7 1.5 3.8 1.31 3.87 1.12 3.95.94 4.04.73 4.11.53 4.17.32 4.23.11 4.28h-25.51l-.07-3-.22-2.94-.37-2.89-.51-2.85-.65-2.79-.77-2.74-.92-2.69-1.02-2.62-1.16-2.55-1.28-2.5-1.39-2.42-1.51-2.35-1.61-2.27-1.72-2.19-1.82-2.09-1.92-2.02-2.01-1.92-2.1-1.82-2.19-1.72-2.27-1.61-2.34-1.5-2.42-1.39-2.5-1.29-2.56-1.15-2.62-1.03-2.69-.92-2.73-.77-2.8-.65-2.85-.51-2.89-.36-2.94-.23-2.99-.07zM300.6 433.57v25.5l-12.75-12.75.2-8.14.61-8.05 1.01-7.93 1.4-7.8 1.77-7.68 2.13-7.52 2.5-7.37 2.84-7.2 3.17-7.02 3.5-6.84 3.82-6.63 4.12-6.43 4.41-6.21 4.71-5.99 4.98-5.75 5.24-5.5 5.51-5.24 5.74-4.98 5.99-4.71 6.21-4.41 6.43-4.12 6.63-3.82 6.84-3.51 7.03-3.17 7.19-2.83 7.37-2.5 7.53-2.14 7.67-1.77 7.8-1.39 7.93-1.01 8.05-.61 8.14-.21v25.51l-6.85.17-6.76.52-6.65.84-6.55 1.17-6.43 1.48-6.31 1.8-6.17 2.08-6.04 2.38-5.88 2.66-5.73 2.94-5.57 3.2-5.4 3.46-5.21 3.71-5.03 3.95-4.82 4.18-4.62 4.4-4.41 4.62-4.18 4.83-3.95 5.03-3.7 5.21-3.47 5.4-3.2 5.57-2.93 5.73-2.67 5.88-2.37 6.04-2.09 6.17-1.79 6.3-1.49 6.43-1.17 6.55-.84 6.66-.52 6.75-.17 6.86-12.75-12.75zm12.75 12.75c0 7.04-5.71 12.75-12.75 12.75s-12.75-5.71-12.75-12.75h25.5zm278.69 12.75H300.6v-25.5h291.44l12.75 12.75-12.75 12.75zm0-25.5c7.04 0 12.75 5.71 12.75 12.75s-5.71 12.75-12.75 12.75v-25.5zM446.32 313.35v-25.51l8.14.21 8.05.61 7.93 1.01 7.8 1.39 7.67 1.77 7.53 2.14 7.37 2.5 7.19 2.83 7.03 3.17 6.84 3.51 6.63 3.82 6.43 4.12 6.21 4.41 5.98 4.71 5.75 4.98 5.5 5.24 5.25 5.5 4.98 5.75 4.7 5.98 4.42 6.22 4.12 6.43 3.81 6.63 3.51 6.84 3.17 7.02 2.84 7.2 2.49 7.37 2.14 7.52 1.77 7.68 1.39 7.8 1.01 7.93.61 8.05.21 8.14h-25.51l-.17-6.86-.51-6.75-.85-6.66-1.17-6.55-1.48-6.43-1.79-6.3-2.09-6.17-2.38-6.04-2.66-5.88-2.94-5.74-3.2-5.56-3.45-5.4-3.71-5.21-3.95-5.03-4.18-4.83-4.41-4.62-4.62-4.4-4.83-4.18-5.02-3.95-5.22-3.71-5.39-3.46-5.57-3.2-5.73-2.94-5.89-2.66-6.03-2.38-6.18-2.08-6.3-1.8-6.42-1.48-6.55-1.17-6.66-.84-6.75-.52-6.86-.17z"/></g></g></svg><svg viewBox="0 0 24 24" fill="none" id="instagram-svgrepo-com" xmlns="http://www.w3.org/2000/svg"><path fill-rule="evenodd" clip-rule="evenodd" d="M12 18a6 6 0 1 0 0-12 6 6 0 0 0 0 12Zm0-2a4 4 0 1 0 0-8 4 4 0 0 0 0 8Z" fill="#fff"/><path d="M18 5a1 1 0 1 0 0 2 1 1 0 0 0 0-2Z" fill="#fff"/><path fill-rule="evenodd" clip-rule="evenodd" d="M1.654 4.276C1 5.56 1 7.24 1 10.6v2.8c0 3.36 0 5.04.654 6.324a6 6 0 0 0 2.622 2.622C5.56 23 7.24 23 10.6 23h2.8c3.36 0 5.04 0 6.324-.654a6 6 0 0 0 2.622-2.622C23 18.44 23 16.76 23 13.4v-2.8c0-3.36 0-5.04-.654-6.324a6 6 0 0 0-2.622-2.622C18.44 1 16.76 1 13.4 1h-2.8c-3.36 0-5.04 0-6.324.654a6 6 0 0 0-2.622 2.622ZM13.4 3h-2.8c-1.713 0-2.878.002-3.778.075-.877.072-1.325.202-1.638.361a4 4 0 0 0-1.748 1.748c-.16.313-.29.761-.36 1.638C3.001 7.722 3 8.887 3 10.6v2.8c0 1.713.002 2.878.075 3.778.072.877.202 1.325.361 1.638a4 4 0 0 0 1.748 1.748c.313.16.761.29 1.638.36.9.074 2.065.076 3.778.076h2.8c1.713 0 2.878-.002 3.778-.075.877-.072 1.325-.202 1.638-.361a4 4 0 0 0 1.748-1.748c.16-.313.29-.761.36-1.638.074-.9.076-2.065.076-3.778v-2.8c0-1.713-.002-2.878-.075-3.778-.072-.877-.202-1.325-.361-1.638a4 4 0 0 0-1.748-1.748c-.313-.16-.761-.29-1.638-.36C16.278 3.001 15.113 3 13.4 3Z" fill="#fff"/></svg><svg version="1.0" viewBox="0 0 64 64" xml:space="preserve" id="location-pin-svgrepo-com" xmlns="http://www.w3.org/2000/svg"><path fill="currentColor" d="M32 0C18.746 0 8 10.746 8 24c0 5.219 1.711 10.008 4.555 13.93.051.094.059.199.117.289l16 24a4.001 4.001 0 0 0 6.656 0l16-24c.059-.09.066-.195.117-.289C54.289 34.008 56 29.219 56 24 56 10.746 45.254 0 32 0zm0 32a8 8 0 1 1 0-16 8 8 0 0 1 0 16z"/></svg><svg viewBox="0 0 24 24" fill="none" id="phone-svgrepo-com" xmlns="http://www.w3.org/2000/svg"><path d="m16.556 12.906-.455.453s-1.083 1.076-4.038-1.862-1.872-4.014-1.872-4.014l.286-.286c.707-.702.774-1.83.157-2.654L9.374 2.86C8.61 1.84 7.135 1.705 6.26 2.575l-1.57 1.56c-.433.432-.723.99-.688 1.61.09 1.587.808 5 4.812 8.982 4.247 4.222 8.232 4.39 9.861 4.238.516-.048.964-.31 1.325-.67l1.42-1.412c.96-.953.69-2.588-.538-3.255l-1.91-1.039c-.806-.438-1.787-.309-2.417.317Z" fill="currentColor"/></svg><svg fill="none" viewBox="0 0 1920 954" id="sss" xmlns="http://www.w3.org/2000/svg"><g clip-path="url(#ra)" fill="rgba(25,143,217,1)"><path d="M1321.57 538C1357.08 287.516 1273.7 89.91 1127-.418L1374.18-6c65.77 100.68-15.89 431.512-52.61 544zM312 955c432.242 0 746.77-180.667 850-271-90.34 157.09-176.766 246.121-208.688 271H312z" fill="rgba(255,255,255,1)" fill-opacity=".25"/><path d="M1344.5 427c0-252.4-212.67-390.833-319-428.5H1373c70 82.4 10.17 320-28.5 428.5z" fill="rgba(255,255,255,1)" fill-opacity=".1"/><path fill-rule="evenodd" clip-rule="evenodd" d="M839.644 954C1138.37 793.549 1337 508.902 1337 184.5c0-63.218-7.54-124.926-21.9-184.5H1920v954H839.644zm0 0C676.842 1041.44 484.311 1092 278 1092c-584.87 0-1059-406.302-1059-907.5S-306.87-723 278-723c511.098 0 937.63 310.269 1037.1 723H0v954h839.644z" fill="rgba(255,255,255,1)" fill-opacity=".5"/><path fill-rule="evenodd" clip-rule="evenodd" d="M1011.55 954C1221.42 793.95 1353 564.007 1353 308.5c0-108.584-23.76-212.552-67.2-308.5H1920v954h-908.45zm0 0c-187.291 142.83-436.933 230-711.05 230C-280.78 1184-752 792.025-752 308.5S-280.78-567 300.5-567c450.743 0 835.31 235.692 985.3 567H0v954h1011.55z"/></g><defs><clipPath id="ra"><path fill="#fff" d="M0 0h1920v954H0z"/></clipPath></defs></svg><svg viewBox="0 0 24 24" fill="none" id="star-svgrepo-com" xmlns="http://www.w3.org/2000/svg"><path d="M9.153 5.408C10.42 3.136 11.053 2 12 2c.947 0 1.58 1.136 2.847 3.408l.328.588c.36.646.54.969.82 1.182.28.213.63.292 1.33.45l.636.144c2.46.557 3.689.835 3.982 1.776.292.94-.546 1.921-2.223 3.882l-.434.507c-.476.557-.715.836-.822 1.18-.107.345-.071.717.001 1.46l.066.677c.253 2.617.38 3.925-.386 4.506-.766.582-1.918.051-4.22-1.009l-.597-.274c-.654-.302-.981-.452-1.328-.452-.347 0-.674.15-1.329.452l-.595.274c-2.303 1.06-3.455 1.59-4.22 1.01-.767-.582-.64-1.89-.387-4.507l.066-.676c.072-.744.108-1.116 0-1.46-.106-.345-.345-.624-.821-1.18l-.434-.508c-1.677-1.96-2.515-2.941-2.223-3.882.293-.941 1.523-1.22 3.983-1.776l.636-.144c.699-.158 1.048-.237 1.329-.45.28-.213.46-.536.82-1.182l.328-.588Z" fill="currentColor"/></svg><svg viewBox="-5 0 32 32" id="user-svgrepo-com" xmlns="http://www.w3.org/2000/svg"><path d="M11 20c4.971 0 9-4.478 9-10S15.971 0 11 0 2 4.478 2 10s4.029 10 9 10Zm8.703-2.681C17.691 20.161 14.546 22 11 22c-3.546 0-6.691-1.839-8.703-4.681C.904 18.411 0 20.091 0 22v4a6 6 0 0 0 6 6h10a6 6 0 0 0 6-6v-4c0-1.909-.904-3.589-2.297-4.681Z" fill="#000" fill-rule="evenodd"/></svg><svg viewBox="0 0 24 24" fill="none" id="whatsapp-svgrepo-com" xmlns="http://www.w3.org/2000/svg"><path d="M6.014 8.006c.114-.904 1.289-2.132 2.22-1.996V6.01c.907.172 1.625 1.734 2.03 2.436.286.509.1 1.025-.167 1.243-.361.29-.926.692-.808 1.095C9.5 11.5 12 14 13.23 14.711c.466.269.804-.44 1.092-.804.21-.28.726-.447 1.234-.171.759.442 1.474.956 2.135 1.534.33.276.408.684.179 1.115-.403.76-1.569 1.76-2.415 1.557C13.976 17.587 8 15.27 6.08 8.558c-.108-.318-.08-.438-.066-.552Z" fill="#fff"/><path fill-rule="evenodd" clip-rule="evenodd" d="M12 23c-1.224 0-1.9-.131-3-.5l-2.106 1.053A2 2 0 0 1 4 21.763V19.5c-2.153-2.008-3-4.323-3-7.5C1 5.925 5.925 1 12 1s11 4.925 11 11-4.925 11-11 11Zm-6-4.37-.636-.593C3.691 16.477 3 14.733 3 12a9 9 0 1 1 9 9c-.986 0-1.448-.089-2.364-.396l-.788-.264L6 21.764V18.63Z" fill="#fff"/></svg></svg>